<?xml version="1.0" encoding="utf-8"?>
<!-- Generator: Adobe Illustrator 21.0.0, SVG Export Plug-In . SVG Version: 6.00 Build 0)  -->
<svg version="1.1" id="Capa_1" xmlns="http://www.w3.org/2000/svg" xmlns:xlink="http://www.w3.org/1999/xlink" x="0px" y="0px"
	 viewBox="0 0 776 813.1" style="enable-background:new 0 0 776 813.1;" xml:space="preserve">
<style type="text/css">
	.st0{fill:url(#SVGID_1_);}
	.st1{fill:url(#SVGID_2_);}
	.st2{fill:url(#SVGID_3_);}
	.st3{fill:url(#SVGID_4_);}
	.st4{fill:url(#SVGID_5_);}
	.st5{fill:url(#SVGID_6_);}
	.st6{fill:url(#SVGID_7_);}
	.st7{fill:url(#SVGID_8_);}
	.st8{fill:url(#SVGID_9_);}
	.st9{fill:url(#SVGID_10_);}
	.st10{fill:url(#SVGID_11_);}
	.st11{fill:url(#SVGID_12_);}
	.st12{fill:url(#SVGID_13_);}
	.st13{fill:url(#SVGID_14_);}
	.st14{fill:url(#SVGID_15_);}
	.st15{fill:url(#SVGID_16_);}
	.st16{fill:url(#SVGID_17_);}
	.st17{fill:url(#SVGID_18_);}
	.st18{fill:url(#SVGID_19_);}
	.st19{fill:url(#SVGID_20_);}
	.st20{fill:url(#SVGID_21_);}
	.st21{fill:url(#SVGID_22_);}
	.st22{fill:url(#SVGID_23_);}
	.st23{fill:url(#SVGID_24_);}
	.st24{fill:url(#SVGID_25_);}
	.st25{fill:url(#SVGID_26_);}
	.st26{fill:url(#SVGID_27_);}
	.st27{fill:url(#SVGID_28_);}
	.st28{fill:url(#SVGID_29_);}
	.st29{fill:url(#SVGID_30_);}
	.st30{fill:url(#SVGID_31_);}
	.st31{fill:url(#SVGID_32_);}
	.st32{fill:url(#SVGID_33_);}
	.st33{fill:url(#SVGID_34_);}
	.st34{fill:url(#SVGID_35_);}
	.st35{fill:url(#SVGID_36_);}
	.st36{fill:url(#SVGID_37_);}
	.st37{fill:url(#SVGID_38_);}
	.st38{fill:url(#SVGID_39_);}
	.st39{fill:url(#SVGID_40_);}
	.st40{fill:url(#SVGID_41_);}
	.st41{fill:url(#SVGID_42_);}
	.st42{fill:url(#SVGID_43_);}
	.st43{fill:url(#SVGID_44_);}
	.st44{fill:url(#SVGID_45_);}
	.st45{fill:url(#SVGID_46_);}
	.st46{fill:url(#SVGID_47_);}
	.st47{fill:url(#SVGID_48_);}
	.st48{fill:url(#SVGID_49_);}
	.st49{fill:url(#SVGID_50_);}
	.st50{fill:url(#SVGID_51_);}
	.st51{fill:url(#SVGID_52_);}
	.st52{fill:url(#SVGID_53_);}
	.st53{fill:url(#SVGID_54_);}
	.st54{fill:url(#SVGID_55_);}
	.st55{fill:url(#SVGID_56_);}
	.st56{fill:url(#SVGID_57_);}
	.st57{fill:url(#SVGID_58_);}
	.st58{fill:url(#SVGID_59_);}
	.st59{fill:url(#SVGID_60_);}
	.st60{fill:url(#SVGID_61_);}
	.st61{fill:url(#SVGID_62_);}
	.st62{fill:url(#SVGID_63_);}
	.st63{fill:url(#SVGID_64_);}
	.st64{fill:url(#SVGID_65_);}
	.st65{fill:url(#SVGID_66_);}
	.st66{fill:url(#SVGID_67_);}
	.st67{fill:url(#SVGID_68_);}
	.st68{fill:url(#SVGID_69_);}
	.st69{fill:url(#SVGID_70_);}
	.st70{fill:url(#SVGID_71_);}
	.st71{fill:url(#SVGID_72_);}
	.st72{fill:url(#SVGID_73_);}
	.st73{fill:#FFFFFF;stroke:#211915;stroke-miterlimit:10;}
	.st74{fill:url(#SVGID_74_);}
	.st75{fill:url(#SVGID_75_);}
	.st76{fill:#FCFCFC;stroke:#221A16;stroke-miterlimit:10;}
</style>
<linearGradient id="SVGID_1_" gradientUnits="userSpaceOnUse" x1="289.8459" y1="381.1158" x2="289.8459" y2="472.382" gradientTransform="matrix(0 1 -1 0 801.3597 6.0268)">
	<stop  offset="0" style="stop-color:#686868"/>
	<stop  offset="0.867" style="stop-color:#444242"/>
</linearGradient>
<path class="st0" d="M361,245.1c3.7-0.1,7.4-0.5,11-1.3c0.9-0.2,1.8-0.2,2.1,0.1c0.4,0.4-0.2,1.5-2.9,3.9
	c-8.8,7.5-23,13.8-42.2,17.5l11.6,9.4c13.4-2.3,24.5-4.5,25.5-4.4c1.5,0.2,2.7,0.9,4.1,2.2c0.1,0.1,0.2,0.2,0.3,0.3
	c2.4,2.4,2.3,6.3-0.3,8.6c-10.9,9.5-21.8,17.4-32.6,23.9l16.8,13.3c4.1-1.9,8.2-3.9,12.2-6.1c1.4-0.8,2.9-0.4,3.8,0.6
	c1,1,1.4,2.6,0.5,4c-5,8-12.6,19.4-21.6,30.5l16.4,3.4l3.8-0.1c0.4-0.1,0.8-0.1,1.2,0l49.6-0.9l-39.5-8.2c-0.6-0.1-1.1-0.4-1.5-0.8
	c-0.9-0.9-1.2-2.3-0.6-3.6l12.9-25c0.6-1.2,0.4-2.6-0.6-3.5l0,0l-15.6-15.2l0,0c-1.1-1.1-1.2-3-0.1-4.2l10.4-11.8
	c1-1.2,1-2.9-0.1-4.1L373.5,261c-1.1-1.2-1.1-3,0-4.2l13.5-14c0.1-0.1,0.3-0.2,0.4-0.3l-49.9-1.8l-2.3,2.5
	C345.6,244.5,354.6,245.2,361,245.1z"/>
<linearGradient id="SVGID_2_" gradientUnits="userSpaceOnUse" x1="442.0462" y1="595.3845" x2="442.0462" y2="694.014" gradientTransform="matrix(0 1 -1 0 801.3597 6.0268)">
	<stop  offset="0" style="stop-color:#686868"/>
	<stop  offset="0.867" style="stop-color:#444242"/>
</linearGradient>
<path class="st1" d="M111,455.3c2.2,2.5,4.6,5,7,7.5c2.5,2.5,5,4.9,7.6,7.2c0.4,0.4,0.9,0.8,1.3,1.1c0.4-0.2,0.9-0.4,1.5-0.7
	c4.7-2.4,10.9-7,17.5-11.8c15.5-11.5,35.3-26,60.1-31.2c-8.7-0.7-17.1-1.3-25.6-1.4c-2.8-0.1-6.1-0.2-9.6-0.3
	c-4.7-0.1-10.2-0.3-16.1-0.4c-14,5.1-35,14.2-47.3,25.9c1.1,1.3,2.2,2.6,3.4,4C110.8,455.1,110.9,455.2,111,455.3z"/>
<g>
	
		<linearGradient id="SVGID_3_" gradientUnits="userSpaceOnUse" x1="480.2067" y1="389.7354" x2="480.2067" y2="389.842" gradientTransform="matrix(0 1 -1 0 801.3597 6.0268)">
		<stop  offset="0" style="stop-color:#686868"/>
		<stop  offset="0.867" style="stop-color:#444242"/>
	</linearGradient>
	<path class="st2" d="M411.6,486.2c0,0-0.1,0.1-0.1,0.1C411.6,486.3,411.6,486.2,411.6,486.2z"/>
	
		<linearGradient id="SVGID_4_" gradientUnits="userSpaceOnUse" x1="497.0778" y1="342.552" x2="497.0778" y2="468.7932" gradientTransform="matrix(0 1 -1 0 801.3597 6.0268)">
		<stop  offset="0" style="stop-color:#686868"/>
		<stop  offset="0.867" style="stop-color:#444242"/>
	</linearGradient>
	<path class="st3" d="M332.9,566.9c0,0.1-0.1,0.1-0.1,0.2c0,0.1-0.1,0.2-0.1,0.3c0,0.1,0,0.2-0.1,0.3c-0.1,0.2,0,0.5-0.1,0.7
		c0,0.3,0,0.5,0,0.8c0.1,1.1,0.6,2.3,1.3,3.6c0.7,1.3,1.8,2.6,3,3.8c1.3,1.3,2.8,2.6,4.4,3.7c1.7,1.1,3.3,2.3,5.2,3.2
		c0.9,0.5,1.8,1,2.7,1.5l2.8,1.4c3.8,1.8,7.8,3.5,11.9,4.9c8.1,2.9,16.6,5.1,25.2,6.9c2.1,0.4,4.3,0.8,6.5,1.2l0.8,0.1l0.2,0l0.1,0
		l0.2,0c0.3,0.1,0.5,0,0.8,0.1c0.5,0,1.1-0.1,1.6-0.2c2.1-0.6,3.9-2.4,4.3-4.5c0-0.1,0-0.1,0.1-0.2l0.1-0.4l0.5-2.5l0.7-3.3l1.4-6.6
		l2.8-13.2c1.8-8.8,3.6-17.6,5.2-26.4c1.6-8.8,3.2-17.6,4.6-26.4c1.2-7.8,2.3-15.6,2.9-23.2c-2.4,0.3-4.7,0.5-7,0.7
		c-1.3,0.1-2.5-0.4-3.4-1.2c-0.7-0.7-1.1-1.6-1.2-2.6c-0.1-1.1,0.2-2.2,0.9-3c-0.7,0.8-1.1,2-1,3.1c0.1,1,0.5,1.9,1.2,2.6
		c0.8,0.9,2,1.3,3.3,1.2c2.2-0.2,4.5-0.4,6.8-0.7c-0.6,7.6-1.7,15.4-2.8,23.1c-1.3,8.8-2.9,17.6-4.5,26.4
		c-1.6,8.8-3.3,17.6-5.1,26.3l-2.7,13.1l-1.4,6.6l-0.7,3.3l-0.5,2.4l-0.1,0.4c0,0.1,0,0.2-0.1,0.2c-0.5,2.1-2.2,3.9-4.2,4.5
		c-0.5,0.2-1,0.2-1.6,0.2c-0.3,0-0.5,0-0.8-0.1l-0.2,0l-0.1,0l-0.2,0l-0.8-0.1c-2.1-0.4-4.2-0.8-6.3-1.2c-8.3-1.7-16.6-3.9-24.5-6.8
		c-4-1.4-7.8-3-11.6-4.9l-2.8-1.4c-0.9-0.5-1.8-1-2.6-1.5c-1.8-1-3.4-2.1-5-3.2c-1.6-1.2-3-2.4-4.3-3.7c-1.2-1.2-2.2-2.5-3-3.8
		c-0.7-1.3-1.1-2.5-1.2-3.6c0-0.3,0-0.5,0-0.8c0.1-0.2,0-0.5,0.1-0.7c0-0.1,0-0.2,0.1-0.3c0-0.1,0.1-0.2,0.1-0.3
		c0-0.1,0.1-0.2,0.1-0.2c0,0,0,0,0,0v0c0,0-0.1,0.1-0.1,0.2l0.7-1.4l0.2-0.5l0.3-0.6c0.2-0.4,0.4-0.9,0.6-1.3
		c0.4-0.9,0.8-1.8,1.3-2.7l1.4-2.7l1.5-2.6c2-3.5,4.2-6.9,6.5-10.3c4.6-6.7,9.8-13.2,15.3-19.2c1.4-1.5,2.8-3,4.2-4.5l4.3-4.4
		l4.6-4.6c1.5-1.6,3-3.2,4.5-4.8c3-3.3,5.9-6.6,8.6-10.5c1.4-1.9,2.7-4,3.9-6.6l0.4-1.1l0.2-0.5c0.1-0.2,0.1-0.4,0.2-0.6
		c0.1-0.5,0.2-0.9,0.4-1.4c0-0.2,0.1-0.5,0.2-0.7c0-0.3,0.1-0.6,0.1-1c0.1-1.1,0.1-2.9-0.8-4.9c-0.2-0.5-0.5-1-0.8-1.5
		c-0.3-0.4-0.6-0.7-0.9-1c-0.1-0.1-0.3-0.3-0.4-0.4c-0.5-0.4-1-0.8-1.6-1.1c-0.1-0.1-0.3-0.2-0.5-0.2c-3.8-2.3-7.4-5.2-10.6-8.4
		c-3.7-3.8-6.8-8.1-9-12.9c-2.1-4.4-3.2-9.2-3.4-14c-0.2-4.7,0.8-9.5,2.7-13.8c3.9-8.6,12.1-15,21.5-17.9c9.5-3,20-2.9,29.8-0.1
		c9.5,2.7,18.5,7.8,25.5,14.9c0.2,0.2,0.4,0.4,0.6,0.7c1.7,1.9,3.3,3.9,4.8,6c0.7,1,1.4,2.1,2,3.2c0.6,1.1,1.2,2.2,1.7,3.4
		c2,4.6,3.1,9.5,3,14.4c-0.1,4.9-1.5,9.7-3.9,13.9c-0.3,0.6-0.6,1-1,1.5l-1,1.5l-1.2,1.4c-0.4,0.5-0.8,1-1.2,1.4l-1.3,1.3
		c-0.4,0.5-0.9,0.8-1.4,1.2l-1.5,1.2c-0.5,0.4-1,0.7-1.6,1l-1.6,1l-1.7,1c-1.2,0.7-2.4,1.3-3.5,1.9c-2.4,1.2-4.7,2.2-7.1,2.9
		c-0.6,0.2-1.3,0.4-1.9,0.5c0.9-0.2,1.7-0.4,2.5-0.7c2.5-0.7,4.8-1.7,7.2-2.9c1.2-0.6,2.4-1.2,3.6-1.9l1.8-1l1.6-1
		c0.5-0.4,1.1-0.6,1.6-1l1.5-1.2c0.5-0.4,1-0.8,1.4-1.2l1.4-1.3c0.5-0.4,0.9-0.9,1.3-1.4l1.2-1.4l1.1-1.5c0.3-0.5,0.7-1,1-1.6
		c2.5-4.2,3.9-9,4-13.9c0.1-4.9-1-9.9-3.1-14.4c-0.5-1.1-1.2-2.2-1.7-3.4c-0.7-1.1-1.3-2.2-2.1-3.2c-1.5-2.1-3.1-4.1-4.9-6
		c-0.2-0.2-0.4-0.4-0.7-0.7c-7.1-7.1-16.4-12.3-26.2-15c-10.1-2.8-20.9-3-30.6,0c-9.7,2.9-18.1,9.3-22,18c-2,4.3-2.9,9-2.8,13.8
		c0.2,4.8,1.4,9.6,3.5,14c2.3,4.8,5.5,9.1,9.3,12.9c3.2,3.2,6.9,6.1,10.9,8.4c0.2,0.1,0.4,0.2,0.5,0.2c0.6,0.3,1.1,0.7,1.6,1.1
		c0.1,0.1,0.3,0.3,0.4,0.4c0.3,0.3,0.6,0.7,0.9,1c0.3,0.5,0.6,1,0.9,1.5c0.9,2,0.9,3.7,0.8,4.9c0,0.3-0.1,0.7-0.1,1
		c-0.1,0.3-0.1,0.5-0.2,0.7c-0.1,0.5-0.2,0.9-0.4,1.4c-0.1,0.3-0.1,0.4-0.2,0.6l-0.2,0.5l-0.4,1.1c-1.2,2.6-2.6,4.7-4,6.6
		c-2.8,3.9-5.8,7.2-8.8,10.5c-1.5,1.6-3,3.2-4.6,4.8l-4.7,4.6l-4.4,4.4c-1.5,1.5-2.9,3-4.3,4.5c-5.6,6.1-10.9,12.5-15.7,19.3
		c-2.4,3.4-4.6,6.8-6.7,10.3l-1.5,2.6l-1.4,2.7c-0.4,0.9-0.9,1.8-1.3,2.7c-0.2,0.4-0.4,0.9-0.6,1.3l-0.3,0.6l-0.2,0.5l-0.7,1.4
		C332.9,567,332.9,566.9,332.9,566.9L332.9,566.9C332.9,566.9,332.9,566.9,332.9,566.9z"/>
	
		<linearGradient id="SVGID_5_" gradientUnits="userSpaceOnUse" x1="507.4688" y1="485.7792" x2="507.4688" y2="495.2784" gradientTransform="matrix(0 1 -1 0 801.3597 6.0268)">
		<stop  offset="0" style="stop-color:#686868"/>
		<stop  offset="0.867" style="stop-color:#444242"/>
	</linearGradient>
	<path class="st4" d="M315.6,508.2c-3.5,3.6-6.6,7.1-9.5,10.5C309.5,515.5,312.6,511.9,315.6,508.2z"/>
	
		<linearGradient id="SVGID_6_" gradientUnits="userSpaceOnUse" x1="497.7316" y1="397.7811" x2="497.7316" y2="511.5127" gradientTransform="matrix(0 1 -1 0 801.3597 6.0268)">
		<stop  offset="0" style="stop-color:#686868"/>
		<stop  offset="0.867" style="stop-color:#444242"/>
	</linearGradient>
	<path class="st5" d="M305.8,456.2c8.9-4.7,16-10.3,21.8-15.1c1.4-1.2,3.2-0.8,4.2,0.2c0.8,0.8,1.2,2.2,0.6,3.5
		c-4.7,10.8-7.2,23.3-19.3,42.3c3.9,4.3,8.8,6.5,12.1,7.5c3.7-6,7.1-12.2,10.1-18.5c1.9-3.9,3.1-8.4,5.2-12.2
		c1.6-2.9,2.3-4.2,3.5-3.1c0.5,0.5,1.1,1.5,1.9,3c2.3,4.3,1.9,9.1,3.3,13.6c0.9,3.1,3.1,5.8,4.4,8.7c0.4,0.9,0.8,1.9,1,2.9
		c0.6,3.1-0.5,6.3-2.4,8.8c-2.9,4-7.4,6.9-11.2,10.1c-9.2,7.9-16.5,18-22.7,28.4c-11.5,19.5-19.1,41.4-28.5,61.7
		c3.4,1.8,8.3,3.6,13.8,5.3l6.9-16.7c1.4-3.4,5.3-5,8.7-3.6c0.8,0.3,1.6,0.8,2.2,1.4c1.9,1.9,2.5,4.7,1.4,7.3l-6.3,15.3
		c11.7,3,22.1,5.1,22.1,5.1s49.2,1.3,56.2,1.3c1.3,0,2.4-0.1,3.3-0.3c-0.1,0-0.1,0-0.2,0c-0.9,0-1.7,0-2.6-0.1l-0.6-0.1l-0.3,0
		l-0.2,0l-0.9-0.1c-2.3-0.4-4.6-0.8-6.9-1.3c-9.1-1.8-18.2-4.2-27-7.4c-8.9-3.2-17.5-7-25.9-12.8c-2.1-1.5-4.1-3.2-6.1-5.1
		c-1.9-1.9-3.7-4.1-5.2-6.6c-1.5-2.6-2.7-5.7-3-9.1c0-0.9-0.1-1.7,0-2.6c0.1-0.9,0.1-1.7,0.3-2.6l0.3-1.3c0.1-0.4,0.3-0.9,0.4-1.3
		c0.1-0.4,0.4-0.9,0.5-1.3c0.1-0.2,0.2-0.5,0.3-0.7l0.1-0.1l0.1-0.4l0.4-0.9c0.2-0.6,0.5-1.1,0.7-1.6c0.5-1.1,1-2.1,1.5-3.1l1.6-3
		l1.7-3c2.3-3.9,4.7-7.6,7.3-11.3c5.2-7.3,10.8-14.1,16.8-20.6c1.5-1.6,3-3.2,4.6-4.8l4.7-4.7l4.5-4.4c1.5-1.5,2.9-3,4.3-4.5
		c2.8-3,5.5-6.1,7.7-9.2l0.4-0.6l0.4-0.6l0.8-1.1c0.2-0.4,0.4-0.7,0.6-1c-3.7-2.5-7.1-5.3-10.3-8.4c-5.1-5.1-9.3-10.9-12.3-17.6
		c-2.7-5.9-4.3-12.4-4.4-19c-0.1-6.6,1.4-13.4,4.3-19.3c2.9-6,7.3-11.2,12.5-15.2c5.2-4,11.1-6.8,17.1-8.6
		c5.7-1.6,11.6-2.4,17.4-2.4c-17.6-1.7-51.5-0.9-51.5-0.9s-0.6,0-1.7,0.1c-9.2,10.6-19.1,20.5-29.4,29.9c-4.9,4.5-10,8.8-15.4,12.5
		C305,443.4,305.3,450,305.8,456.2z"/>
</g>
<g>
	
		<linearGradient id="SVGID_7_" gradientUnits="userSpaceOnUse" x1="583.7594" y1="532.0116" x2="583.7594" y2="539.791" gradientTransform="matrix(0 1 -1 0 801.3597 6.0268)">
		<stop  offset="0" style="stop-color:#686868"/>
		<stop  offset="0.867" style="stop-color:#444242"/>
	</linearGradient>
	<path class="st6" d="M265.9,591.1c1.2-2.4,2.3-4.9,3.5-7.4h-1.4l-6.4,12.1c0.6,0.1,1,0.1,1.3,0C263.4,595.4,264.5,594,265.9,591.1z
		"/>
	
		<linearGradient id="SVGID_8_" gradientUnits="userSpaceOnUse" x1="641.9882" y1="421.8734" x2="641.9882" y2="566.0026" gradientTransform="matrix(0 1 -1 0 801.3597 6.0268)">
		<stop  offset="0" style="stop-color:#686868"/>
		<stop  offset="0.867" style="stop-color:#444242"/>
	</linearGradient>
	<path class="st7" d="M377.5,711.7c-5.9-0.3-12.8-1.1-20.3-2.9c-12.9-2.9-27.4-8.6-41.2-19l-1.8-1.3c-4.8-3.6-10.7-8-15.8-13.2
		c-6.3-6.3-11.6-13.8-12.4-22.2c-0.5-5,0.6-9.4,2.2-13.3c0.8-2,1.7-3.9,2.6-5.7c0.6-1.3,1.2-2.5,1.8-3.7c1.6-3.6,3.1-7.4,4.5-11.1
		c1-2.6,2-5.2,3.1-7.8l10.3-25c0.5-1.3,1.4-2.3,2.4-3h-16.7c-2.6,6.2-5.3,12.3-8.2,18.2c-3.1,6.4-7.4,12.6-13.7,15.9
		c-1.9,1-4,1.7-6.1,2.2c-4.9,1-10.2,0.6-15.1-0.8c-1.1-0.3-2.2-0.7-3.3-1L238,640.7c0,0-10.9,12.3,11.4,36.1
		c22.3,23.7,60.8,35.1,76.9,35.1s53.2,0.5,53.2,0.5l-0.6-0.6C378.4,711.7,378,711.7,377.5,711.7z"/>
	
		<linearGradient id="SVGID_9_" gradientUnits="userSpaceOnUse" x1="688.0266" y1="439.9985" x2="688.0266" y2="454.0647" gradientTransform="matrix(0 1 -1 0 801.3597 6.0268)">
		<stop  offset="0" style="stop-color:#686868"/>
		<stop  offset="0.867" style="stop-color:#444242"/>
	</linearGradient>
	<path class="st8" d="M347.3,692c4.8,1.8,9.6,3.2,14.1,4.1L347.3,692z"/>
</g>
<g>
	
		<linearGradient id="SVGID_10_" gradientUnits="userSpaceOnUse" x1="535.3684" y1="459.463" x2="535.3684" y2="641.5984" gradientTransform="matrix(0 1 -1 0 801.3597 6.0268)">
		<stop  offset="0" style="stop-color:#686868"/>
		<stop  offset="0.867" style="stop-color:#444242"/>
	</linearGradient>
	<path class="st9" d="M260.6,620.4c-2.5-0.2-5.1-0.6-7.5-1.3c-6.6-1.9-13.2-5-19.2-9.1c-3-2.1-5.9-4.5-8.5-7.1
		c-2.5-2.5-4.7-5.2-6.6-8.1c-1.5-2.3-2.8-4.6-3.9-7.1c-1.9-4.5-3.1-9.5-2.1-14.2c0.5-2.4,1.4-4.5,2.7-6.3
		c7.7-11.4,27.9-13.8,39.4-18.1c18-6.8,35.9-15.8,49.9-29.2c13-12.3,22.9-27.9,30.5-44c1.9-3.9,3.1-8.4,5.2-12.2
		c0.5-1,1-1.7,1.4-2.3h-15.8c-4.2,10.9-10.6,24.3-25.4,42.8c-16.3,20.4-53.1,37.5-78.3,40.7c-3.2,0.4-6.6,0.8-10.1,1.2
		c-0.9,0.3-1.9,0.5-2.8,0.7c-56,13.6-58.5,27.5-37.3,53.5c21.2,25.9,48.7,20.3,48.7,20.3L260.6,620.4z"/>
	
		<linearGradient id="SVGID_11_" gradientUnits="userSpaceOnUse" x1="575.3395" y1="524.7115" x2="575.3395" y2="562.8232" gradientTransform="matrix(0 1 -1 0 801.3597 6.0268)">
		<stop  offset="0" style="stop-color:#686868"/>
		<stop  offset="0.867" style="stop-color:#444242"/>
	</linearGradient>
	<path class="st10" d="M276.6,567c0,0,0-0.1,0-0.1c-4.2,1.8-8.5,3.6-13,5.3c-4,1.5-8.3,2.7-12.4,3.8c-3.4,1-9,2.5-12.7,4
		c0.2,0.4,0.5,0.8,0.7,1.2c1,1.5,2.2,2.9,3.6,4.3c1.5,1.5,3.2,2.9,5.1,4.2c3.7,2.6,7.7,4.5,11.8,5.6c1.5,0.4,2.6,0.5,3.2,0.4
		c0.5-0.5,1.6-1.8,3-4.8C269.6,583.4,273,575.4,276.6,567z"/>
</g>
<g>
	
		<linearGradient id="SVGID_12_" gradientUnits="userSpaceOnUse" x1="398.1002" y1="365.0369" x2="416.3292" y2="387.3475" gradientTransform="matrix(0 1 -1 0 801.3597 6.0268)">
		<stop  offset="0" style="stop-color:#686868"/>
		<stop  offset="0.4477" style="stop-color:#444242"/>
	</linearGradient>
	<path class="st11" d="M419.8,408.9c8.6,2.4,16.7,6.8,23.4,12.9l1.3,0c-6.9-6.3-15.4-10.8-24.4-13.3c-5.4-1.5-10.9-2.2-16.4-2.2
		c0.2,0.1,0.4,0.3,0.6,0.4C409.5,406.8,414.8,407.5,419.8,408.9z"/>
	
		<linearGradient id="SVGID_13_" gradientUnits="userSpaceOnUse" x1="344.0985" y1="435.9119" x2="364.2322" y2="460.5536" gradientTransform="matrix(0 1 -1 0 801.3597 6.0268)">
		<stop  offset="0" style="stop-color:#686868"/>
		<stop  offset="0.4477" style="stop-color:#444242"/>
	</linearGradient>
	<path class="st12" d="M348.2,356.5l-1.7,17c5.9-5.6,11.6-11.4,17.3-17H348.2z"/>
	
		<linearGradient id="SVGID_14_" gradientUnits="userSpaceOnUse" x1="280.4115" y1="265.4673" x2="304.5049" y2="294.9551" gradientTransform="matrix(0 1 -1 0 801.3597 6.0268)">
		<stop  offset="0" style="stop-color:#686868"/>
		<stop  offset="0.4477" style="stop-color:#444242"/>
	</linearGradient>
	<path class="st13" d="M506.5,306.2c9.5-2.4,18.5-6.8,26.5-13.1C524.6,297.5,515.6,302,506.5,306.2z"/>
	
		<linearGradient id="SVGID_15_" gradientUnits="userSpaceOnUse" x1="448.7371" y1="52.584" x2="449.2354" y2="53.1938" gradientTransform="matrix(0 1 -1 0 801.3597 6.0268)">
		<stop  offset="0" style="stop-color:#686868"/>
		<stop  offset="0.4477" style="stop-color:#444242"/>
	</linearGradient>
	<path class="st14" d="M748.2,455.2l0.5,0l-0.1-0.6C748.4,454.8,748.3,455,748.2,455.2z"/>
	
		<linearGradient id="SVGID_16_" gradientUnits="userSpaceOnUse" x1="415.9868" y1="85.4168" x2="441.472" y2="116.608" gradientTransform="matrix(0 1 -1 0 801.3597 6.0268)">
		<stop  offset="0" style="stop-color:#686868"/>
		<stop  offset="0.4477" style="stop-color:#444242"/>
	</linearGradient>
	<path class="st15" d="M664.3,417.7c14.7,8.7,27.8,20,36.3,34.3l32.9,2.2C711.9,427,684.6,418.9,664.3,417.7z"/>
	
		<linearGradient id="SVGID_17_" gradientUnits="userSpaceOnUse" x1="185.8332" y1="134.7575" x2="430.9535" y2="434.7603" gradientTransform="matrix(0 1 -1 0 801.3597 6.0268)">
		<stop  offset="0" style="stop-color:#686868"/>
		<stop  offset="0.4477" style="stop-color:#444242"/>
	</linearGradient>
	<path class="st16" d="M589.3,281c-9.4,5.1-25.5,5.2-25.5,5.2s-4.3,0.3-6.1-1.5c-1-1-1.2-2.7,0.6-5.5c-2.3,1.3-4.7,2.7-7.4,4.2
		c-2.3,3-4.7,5.9-7.4,8.6c-15.5,15.5-36,23.1-56.5,22.5c-5.1,2-10.1,3.7-14.8,5.1c-15.7,11.4-48.1,29.5-49.7,30.3h0
		c-0.6,0.3-1.4,0.5-2.1,0.3l-23.5-4.9c-6.2,4.3-10.6,8.3-12.8,11.2h-12.8c-2.5,10-6.3,18.4-11.9,26.6c9.4,2.6,21.8,7,31.2,13.4
		c10.9-2.3,22.1-1.5,32.5,1.6c11.1,3.3,21.5,9.2,29.8,17.5c0.5,0.5,1,1,1.5,1.6c1.5,1.6,2.9,3.3,4.2,5l19.5,0.4c0,0,0,0,0-0.1
		c-0.9,0-1.8-0.4-2.5-1c-0.1-0.1-0.2-0.2-0.3-0.3c-0.9-1.2-1.9-2.3-3.1-3.5c-12.6-12.6-40.9-26-40.9-26
		c-23.6-11.3-42.9-11.7-50.7-11.3c-0.8,0-1.5-0.3-2-0.8c-0.6-0.6-0.9-1.6-0.7-2.6c1.5-5.3,4.3-14.7,5.1-17.2c1.1-3.5,5.4-3,5.4-3
		c11.6,0,14.7,1.7,37.7,4.2c37.7-29.9,49.7-35.2,81.6-37.1c31.9-1.9,82.6-38.1,117.4-49.7c3.6-1.2,7.3-1.9,11-2.3
		c3.7-0.4,7.5-0.3,11.2,0c-1.5-0.7-3.1-1.1-4.7-1.1c-2.1,0-15.7,0-30.4,0C603.7,274.1,594.3,278.3,589.3,281z"/>
	
		<linearGradient id="SVGID_18_" gradientUnits="userSpaceOnUse" x1="373.589" y1="87.4029" x2="449.7657" y2="180.6357" gradientTransform="matrix(0 1 -1 0 801.3597 6.0268)">
		<stop  offset="0" style="stop-color:#686868"/>
		<stop  offset="0.4477" style="stop-color:#444242"/>
	</linearGradient>
	<path class="st17" d="M734.8,437.3c-2-2.4-4-4.7-6.2-6.8c-37.4-37.4-104.1-43.4-150.8-41.3c13.6,2,42.9,7.5,70.4,20.2
		c13.1,1.3,25.3,3.2,35,6.1c27.9,8.4,44.1,26.8,52,38.9l11,0.7C743,448.5,739.2,442.6,734.8,437.3z"/>
</g>
<g>
	
		<linearGradient id="SVGID_19_" gradientUnits="userSpaceOnUse" x1="235.7075" y1="230.8006" x2="235.7075" y2="452.8751" gradientTransform="matrix(0 1 -1 0 801.3597 6.0268)">
		<stop  offset="0" style="stop-color:#686868"/>
		<stop  offset="0.867" style="stop-color:#444242"/>
	</linearGradient>
	<path class="st18" d="M352.3,239.1c4.9,0,100.8,0.9,115.7,8.5c0.6,0.3,1.2,0.6,2,0.9c13,1.1,26.9,2.5,40.1,4.2
		c0.7,0.1,1.3,0.4,1.8,0.9c1,1,1.3,2.7,0.3,4c3.1,0.6,6.1,1.3,8.8,2c0.7-1,1.4-2,2-3.1c0.6-1.1,1.9-1.7,3.1-1.5c0,0,0,0,0.1,0
		c0.7,0.1,1.2,0.4,1.7,0.8c0.9,0.9,1.2,2.4,0.5,3.7c-0.3,0.6-0.7,1.2-1.1,1.8c4.6,1.4,8.3,3,10.3,4.9c1.2-2,2.2-4.1,3.2-6.2
		c0.2-0.4,0.4-0.7,0.6-0.9c0.7-0.7,1.8-1,2.8-0.8c0,0,0,0,0.1,0c0.6,0.1,1.1,0.4,1.5,0.8c0.8,0.8,1.2,2.1,0.6,3.3
		c-3,6.9-7.3,13.3-12.6,18.7c0.5,3,4.2,4.3,7.2,4.8c6-6.4,10.8-13.9,14-22.1c0.6-1.5,2.2-2.2,3.7-1.8c0,0,0,0,0.1,0
		c0.5,0.2,0.9,0.4,1.2,0.7c0.8,0.8,1.1,2.1,0.7,3.3c-2.9,7.2-6.9,14-11.8,20.1l12.1-0.2c-1.1-0.2-2.3-0.6-3.1-1.4
		c-1.6-1.6-1.2-4.9,6.2-11.6c7.2-6.5,7.5-9.9,5.8-11.6c-1.9-1.9-6.3-1.8-6.8-1.8h0l-5.8-2.3c0,0-37.6-14.5-130.1-17.6
		c-0.2,0-0.3,0-0.5,0c-5-0.2-10.2-0.3-15.5-0.4c-1-0.1-2-0.2-3.1-0.1c-5.9,0.4-8.7,0.1-9.4-0.5c-2.4-2.4,23.7-10.5,32.2-14.4
		c10.9-5.1,29.1-17.7,57-25.3c3.2-0.9,6.6-1.4,10.1-1.7h-31c-18.2,5.1-33.8,6.8-47.4,6.1c-4,1.8-8.8,4-14,6.4
		c7.4,1.4,13.8,2.3,18.4,2.9c0.5,0.1,0.9,0.3,1.2,0.6c0.9,0.9,0.8,2.7-0.6,3.4c-38.9,18.6-41,16.1-70.8,17.9
		c-1.7,0.9-3.4,1.7-5.1,2.6C348.6,237.2,347.4,239.1,352.3,239.1z"/>
	
		<linearGradient id="SVGID_20_" gradientUnits="userSpaceOnUse" x1="232.6302" y1="191.8439" x2="232.6302" y2="321.3932" gradientTransform="matrix(0 1 -1 0 801.3597 6.0268)">
		<stop  offset="0" style="stop-color:#686868"/>
		<stop  offset="0.867" style="stop-color:#444242"/>
	</linearGradient>
	<path class="st19" d="M492,214.8c-4.3,1.2-8.3,2.5-12.1,3.8l1.3,0.2c11,1.6,21.6,4.7,31.7,9.2l9.5,4.3c27,4.7,39.5,9.4,40.4,9.8
		c0,0,0,0,0,0l3.3,1.3c4.5,0.4,10.5,1.9,15,6.5c3.7,3.7,5.8,8.7,5.7,14c5.8-2.7,14.4-6.6,22.6-9.7c-7.7-3.5-16.1-7.6-25.3-12.2
		c-17.8-8.9-32.7-16.8-36.2-18.6C538,219.1,509.7,210,492,214.8z"/>
</g>
<g>
	
		<linearGradient id="SVGID_21_" gradientUnits="userSpaceOnUse" x1="270.0183" y1="337.9243" x2="270.0183" y2="259.567" gradientTransform="matrix(0 1 -1 0 801.3597 6.0268)">
		<stop  offset="0" style="stop-color:#686868"/>
		<stop  offset="0.4477" style="stop-color:#444242"/>
	</linearGradient>
	<path class="st20" d="M520.8,269.2c-12.4,12.4-30.4,16-46.1,10.7c-2,1.5-7.3,5.5-11.3,7.4c21.1,10.9,47.7,7.5,65.3-10.1
		c5-5,9-10.9,11.8-17.3c0.2-0.4,0.4-0.7,0.6-0.9c0.2-0.2,0.4-0.3,0.6-0.5h-13.3c-0.1,0.3-0.2,0.6-0.3,0.9
		C526.2,263,523.7,266.3,520.8,269.2z"/>
	
		<linearGradient id="SVGID_22_" gradientUnits="userSpaceOnUse" x1="259.1478" y1="337.1233" x2="259.1478" y2="276.131" gradientTransform="matrix(0 1 -1 0 801.3597 6.0268)">
		<stop  offset="0" style="stop-color:#686868"/>
		<stop  offset="0.4477" style="stop-color:#444242"/>
	</linearGradient>
	<path class="st21" d="M512.2,254.2c0.6,1.1,0.6,2.4-0.3,3.5c-0.4,0.5-0.8,0.9-1.3,1.4c-9.8,9.8-24.8,11.5-36.4,4.9l-9.9,3
		c15.2,12.8,37.9,12.1,52.2-2.2c2.5-2.5,4.7-5.4,6.4-8.5c0.5-0.9,1.4-1.4,2.4-1.5l0,0L512.2,254.2z"/>
	
		<linearGradient id="SVGID_23_" gradientUnits="userSpaceOnUse" x1="278.8754" y1="337.8694" x2="278.8754" y2="244.6725" gradientTransform="matrix(0 1 -1 0 801.3597 6.0268)">
		<stop  offset="0" style="stop-color:#686868"/>
		<stop  offset="0.4477" style="stop-color:#444242"/>
	</linearGradient>
	<path class="st22" d="M546.2,262.4c-3.1,7.1-7.5,13.7-13.1,19.2c-15.8,15.8-38,21.2-58.2,16.5c-2.7,1.6-7.4,4.2-11.4,5.4
		c25.5,10,55.3,4.5,75.7-15.9c6.8-6.8,12.2-15,15.7-23.9c0.3-0.8,1-1.5,1.8-1.7l-10.3-0.6C546.4,261.8,546.3,262.1,546.2,262.4z"/>
</g>
<g>
	
		<linearGradient id="SVGID_24_" gradientUnits="userSpaceOnUse" x1="276.2376" y1="310.7932" x2="276.2332" y2="310.5568" gradientTransform="matrix(0 1 -1 0 801.3597 6.0268)">
		<stop  offset="0" style="stop-color:#686868"/>
		<stop  offset="0.4477" style="stop-color:#444242"/>
	</linearGradient>
	<path class="st23" d="M490.6,282.3l0.2,0l0,0C490.7,282.3,490.7,282.3,490.6,282.3z"/>
	
		<linearGradient id="SVGID_25_" gradientUnits="userSpaceOnUse" x1="284.8995" y1="423.8026" x2="283.9136" y2="370.9211" gradientTransform="matrix(0 1 -1 0 801.3597 6.0268)">
		<stop  offset="0" style="stop-color:#686868"/>
		<stop  offset="0.4477" style="stop-color:#444242"/>
	</linearGradient>
	<path class="st24" d="M383.6,289.2c-1.1,1.2-1,3,0.1,4.2l0,0l12.6,12.3c0.7,0.6,1.6,1,2.5,0.8c6.5-0.8,22.9-3.5,35.2-9.6
		c1.9-0.9,2.2-3.4,0.8-4.9c0,0,0,0,0,0l-0.2-0.2c-4.9-4.9-9-10.3-12.4-16.2c-0.1-0.2-0.3-0.5-0.5-0.6c-0.8-0.8-2-1.1-3.1-0.7
		c-6.2,2.1-12.6,3.3-19.1,3.8l-5.5,0.4c-0.8,0.1-1.5,0.4-2.1,1L383.6,289.2z"/>
	
		<linearGradient id="SVGID_26_" gradientUnits="userSpaceOnUse" x1="316.631" y1="422.195" x2="315.1293" y2="341.6493" gradientTransform="matrix(0 1 -1 0 801.3597 6.0268)">
		<stop  offset="0" style="stop-color:#686868"/>
		<stop  offset="0.4477" style="stop-color:#444242"/>
	</linearGradient>
	<path class="st25" d="M388.4,336.7c0.4,0.4,0.9,0.7,1.5,0.8l29.5,6.2c0.7,0.1,1.5,0,2.1-0.3c7-4,31.1-17.7,44.8-27.2
		c1.6-1.1,1.7-3.4,0.4-4.6c-0.3-0.3-0.7-0.6-1.2-0.7c-7.3-2.4-14.4-5.9-20.9-10.6c-1-0.7-2.3-0.8-3.4-0.2c-7.6,4.6-17,7.7-25.3,9.7
		c1.4,1.6,2.9,4.3-0.1,6c-3.6,2.1-21,13-27.9,17.3l-0.1,0.2C387.2,334.4,387.5,335.8,388.4,336.7z"/>
	
		<linearGradient id="SVGID_27_" gradientUnits="userSpaceOnUse" x1="254.5849" y1="423.7846" x2="253.9111" y2="387.6459" gradientTransform="matrix(0 1 -1 0 801.3597 6.0268)">
		<stop  offset="0" style="stop-color:#686868"/>
		<stop  offset="0.4477" style="stop-color:#444242"/>
	</linearGradient>
	<path class="st26" d="M417.3,264.9c-1.5-3.8-2.6-7.8-3.5-11.8c-0.1-0.6-0.4-1.2-0.8-1.6c-0.5-0.5-1.1-0.8-1.8-0.9l-19.2-2.3
		c-0.9-0.1-1.9,0.2-2.5,0.9l-7.4,7.6c-1.1,1.2-1.1,3,0,4.2l9.7,10.3l0.1,0.1c0.6,0.6,1.5,0.9,2.4,0.9l5-0.4
		c5.5-0.4,10.9-1.5,16.1-3.1C417,268.4,417.9,266.5,417.3,264.9z"/>
	
		<linearGradient id="SVGID_28_" gradientUnits="userSpaceOnUse" x1="251.9808" y1="352.7609" x2="251.3902" y2="321.0865" gradientTransform="matrix(0 1 -1 0 801.3597 6.0268)">
		<stop  offset="0" style="stop-color:#686868"/>
		<stop  offset="0.4477" style="stop-color:#444242"/>
	</linearGradient>
	<path class="st27" d="M476.9,249.1l-11.9-1.5l-13.5,0.3c0.3,0.3,0.5,0.7,0.6,1.1c1.8,5.9,5.1,11.4,9.6,15.8
		c0.6,0.6,1.3,1.2,1.9,1.8l19.9,0.8c-5.9-1.1-11.5-3.9-16.1-8.4c-1.9-1.9-3.6-4.1-4.9-6.4c-1.2-2.1,0.5-4.7,2.9-4.5
		C469.3,248.4,473.1,248.8,476.9,249.1z"/>
	
		<linearGradient id="SVGID_29_" gradientUnits="userSpaceOnUse" x1="266.9449" y1="389.1234" x2="265.7949" y2="327.4416" gradientTransform="matrix(0 1 -1 0 801.3597 6.0268)">
		<stop  offset="0" style="stop-color:#686868"/>
		<stop  offset="0.4477" style="stop-color:#444242"/>
	</linearGradient>
	<path class="st28" d="M419.1,247.4c0,0.1,0,0.2,0,0.3c0.9,6.2,2.6,12.3,5.1,18l0.5-0.2l1.9,5c0.1,0.1,0.1,0.3,0.2,0.4
		c3.3,6.1,7.4,11.6,12.3,16.5c1.8,1.8,3.8,3.6,5.8,5.2c3,2.4,6.2,4.5,9.4,6.4h26.3c-13-1.8-25.5-7.7-35.5-17.6
		c-8.9-8.9-14.8-20.1-17.2-32.3c0-0.3-0.1-0.5-0.1-0.8c0-0.7,0.4-1.4,0.9-1.9c0.6-0.6,1.4-0.9,2.3-0.9c0,0,0,0,0.1,0c0,0,0,0,0.1,0
		c-0.5-0.2-1.2-0.4-1.8-0.4c-1.2,0-7.4,0.1-11.5,0.2c0.1,0.1,0.2,0.1,0.2,0.2C418.7,246.1,419,246.7,419.1,247.4z"/>
	
		<linearGradient id="SVGID_30_" gradientUnits="userSpaceOnUse" x1="258.8831" y1="373.033" x2="257.9163" y2="321.1785" gradientTransform="matrix(0 1 -1 0 801.3597 6.0268)">
		<stop  offset="0" style="stop-color:#686868"/>
		<stop  offset="0.4477" style="stop-color:#444242"/>
	</linearGradient>
	<path class="st29" d="M449.6,246.9c-0.2-0.1-0.4-0.2-0.6-0.2c-0.9,0-13.3-0.1-15.7-0.2c0,0,0,0,0,0c0.4,0.4,0.7,0.9,0.8,1.5
		c2.1,10.9,7.4,21,15.4,29.1c1.5,1.5,3.2,3,4.8,4.3l31.4,0.7c-10.3-0.8-20.4-5.1-28.3-13c-5.2-5.2-9-11.5-11.1-18.4
		C445.7,248.7,447.4,246.7,449.6,246.9C449.5,246.9,449.5,246.9,449.6,246.9C449.6,246.9,449.6,246.9,449.6,246.9z"/>
</g>
<g>
	
		<linearGradient id="SVGID_31_" gradientUnits="userSpaceOnUse" x1="93.4489" y1="371.5644" x2="93.4489" y2="399.8262" gradientTransform="matrix(0 1 -1 0 801.3597 6.0268)">
		<stop  offset="0" style="stop-color:#686868"/>
		<stop  offset="0.867" style="stop-color:#444242"/>
	</linearGradient>
	<path class="st30" d="M425.8,87.9c0.1-3.5-2-6.2-3.3-7.5c-2-2-4.5-3.4-7.1-3.9l-0.3,0c-1-0.2-2-0.3-3.1-0.2c-0.2,0-0.6,0.1-1.3,0.2
		c-4,1.1-9.5,5.7-9.2,12.1c0.2,5.2,3.7,11.3,10.2,17.8c0.3,0.3,0.6,0.6,0.9,0.8c6.6,6.3,12.1,11.4,17.2,15.5
		c-5.2-10.6-6.8-22.1-4.2-33.4C425.7,88.8,425.8,88.3,425.8,87.9z"/>
	
		<linearGradient id="SVGID_32_" gradientUnits="userSpaceOnUse" x1="99.102" y1="427.8509" x2="99.102" y2="438.2852" gradientTransform="matrix(0 1 -1 0 801.3597 6.0268)">
		<stop  offset="0" style="stop-color:#686868"/>
		<stop  offset="0.867" style="stop-color:#444242"/>
	</linearGradient>
	<path class="st31" d="M366.3,96.8c-0.5-1.3-0.8-1.9-1-2.1c-0.6,0.5-1.2,1.1-1.6,1.5c0,0-0.1,0.1-0.1,0.2c0,0,0,0,0,0.1
		c-0.7,1.4-1.1,5,1.4,9.5c1,1.9,2.4,3.7,4.2,5.5c0.2,0.2,0.3,0.3,0.5,0.5c1.3,1.2,2.6,2.5,3.8,3.6c-0.3-0.5-0.6-1-0.8-1.3
		c-2.8-4.8-4.2-9.6-5.2-13.5C367.1,99.3,366.7,98,366.3,96.8z"/>
	
		<linearGradient id="SVGID_33_" gradientUnits="userSpaceOnUse" x1="100.7792" y1="336.5629" x2="100.7792" y2="464.3293" gradientTransform="matrix(0 1 -1 0 801.3597 6.0268)">
		<stop  offset="0" style="stop-color:#686868"/>
		<stop  offset="0.867" style="stop-color:#444242"/>
	</linearGradient>
	<path class="st32" d="M359.8,122.3c-0.2-0.2-0.5-0.4-0.7-0.7c-2.8-2.8-5-5.8-6.6-8.7c-4.6-8.4-4.6-16.8-1.8-22.7
		c0.8-1.8,1.9-3.3,3.2-4.5c2.2-2,4.6-4.3,7.7-5.4c3-1,6.6-0.9,11,1.8c1.1,0.7,2.1,1.4,2.9,2.3c2.2,2.2,3.5,4.9,4.5,7.8
		c1.7,4.8,2.4,10.2,5.1,14.8c2.8,4.7,9.5,14.6,18.9,24c3.2,3.2,6.6,6.3,10.4,9.1c6.9,5.2,16.3,9.5,24.4,12.6l26-0.8
		c-26.7-3.1-39.1-12.1-62.2-34.4c-0.4-0.3-0.7-0.7-1-1c-10-10-14-19.3-14.4-27.3c-0.6-13.8,9.8-23.7,19.6-26.5
		c1.5-0.4,2.9-0.7,4.3-0.8c2.3-0.1,4.6,0,6.9,0.5h0c0.6,0.1,1.1,0.3,1.6,0.4c-0.1-0.2-0.1-0.3-0.1-0.3s-7.3-1.9-11.4-1.6
		c-4.1,0.3-50.6,0-50.6,0s-32.6,14.9-15.5,43.4c4.3,7.2,11.4,13.8,19.6,19.8C361,123.4,360.4,122.9,359.8,122.3z"/>
</g>
<g>
	
		<linearGradient id="SVGID_34_" gradientUnits="userSpaceOnUse" x1="138.6031" y1="440.2563" x2="138.6031" y2="471.4211" gradientTransform="matrix(0 1 -1 0 801.3597 6.0268)">
		<stop  offset="0" style="stop-color:#686868"/>
		<stop  offset="0.867" style="stop-color:#444242"/>
	</linearGradient>
	<path class="st33" d="M352.8,147.9c-4.3-3.7-10.5-8.9-16.1-11.6c-3.5-1.7-5.4-1.9-6.8-1.6c11.3,8.5,23.2,16,31.2,20
		C358.3,152.5,355.6,150.3,352.8,147.9z"/>
	
		<linearGradient id="SVGID_35_" gradientUnits="userSpaceOnUse" x1="114.049" y1="365.1804" x2="114.049" y2="502.5528" gradientTransform="matrix(0 1 -1 0 801.3597 6.0268)">
		<stop  offset="0" style="stop-color:#686868"/>
		<stop  offset="0.867" style="stop-color:#444242"/>
	</linearGradient>
	<path class="st34" d="M318.8,122.1c8-5.4,16.4-4.7,25-0.5c6.4,3.1,13,8.1,19.8,14c13.9,12.1,27.1,19.7,38.8,24.6l33.8,0.4
		c-7.1-0.7-14-2.6-21.4-4.4c-9.3-2.3-15.1-4-30-13.2c-9.1-5.6-16.5-12.5-25-20.7c-0.2-0.2-0.5-0.4-0.7-0.7c-2.8-2.8-5-5.8-6.6-8.7
		c-4.6-8.4-4.6-16.8-1.8-22.7c0.8-1.8,1.9-3.3,3.2-4.5c2.2-2,4.6-4.3,7.7-5.4c1.6-0.6,3.3-0.8,5.3-0.5c-0.1-0.2-0.1-0.3-0.1-0.3
		h-51.6c0,0-18,4.1-16.1,21.2c0.7,6,7.9,14.4,17.6,23C317.3,123.2,318.1,122.6,318.8,122.1z"/>
	
		<linearGradient id="SVGID_36_" gradientUnits="userSpaceOnUse" x1="99.102" y1="427.8509" x2="99.102" y2="438.2852" gradientTransform="matrix(0 1 -1 0 801.3597 6.0268)">
		<stop  offset="0" style="stop-color:#686868"/>
		<stop  offset="0.867" style="stop-color:#444242"/>
	</linearGradient>
	<path class="st35" d="M366.3,96.8c-0.5-1.3-0.8-1.9-1-2.1c-0.6,0.5-1.2,1.1-1.6,1.5c0,0-0.1,0.1-0.1,0.2c0,0,0,0,0,0.1
		c-0.7,1.4-1.1,5,1.4,9.5c1,1.9,2.4,3.7,4.2,5.5c0.2,0.2,0.3,0.3,0.5,0.5c1.3,1.2,2.6,2.5,3.8,3.6c-0.3-0.5-0.6-1-0.8-1.3
		c-2.8-4.8-4.2-9.6-5.2-13.5C367.1,99.3,366.7,98,366.3,96.8z"/>
</g>
<g>
	
		<linearGradient id="SVGID_37_" gradientUnits="userSpaceOnUse" x1="157.9572" y1="300.5152" x2="157.9572" y2="388.3572" gradientTransform="matrix(0 1 -1 0 801.3597 6.0268)">
		<stop  offset="0" style="stop-color:#686868"/>
		<stop  offset="0.867" style="stop-color:#444242"/>
	</linearGradient>
	<path class="st36" d="M499.1,160.5l-50.9-1.2c-0.4,0.6-1,1.1-1.9,1.2c-6.1,0.7-11.8,0.1-17.6-1.1c-2.8,1-8.9,3.1-15.7,4.5
		c8.3,2.6,15.6,3.8,21.8,4.5c14.1,1.6,36.3-7.5,66.1-7.5L499.1,160.5z"/>
	
		<linearGradient id="SVGID_38_" gradientUnits="userSpaceOnUse" x1="197.2575" y1="367.4068" x2="197.2575" y2="368.8939" gradientTransform="matrix(0 1 -1 0 801.3597 6.0268)">
		<stop  offset="0" style="stop-color:#686868"/>
		<stop  offset="0.867" style="stop-color:#444242"/>
	</linearGradient>
	<path class="st37" d="M432.5,203.3l1.3,0c0,0,0.1,0,0.2-0.1C433.5,203.3,433,203.3,432.5,203.3z"/>
	
		<linearGradient id="SVGID_39_" gradientUnits="userSpaceOnUse" x1="201.8062" y1="186.6636" x2="201.8062" y2="318.0746" gradientTransform="matrix(0 1 -1 0 801.3597 6.0268)">
		<stop  offset="0" style="stop-color:#686868"/>
		<stop  offset="0.867" style="stop-color:#444242"/>
	</linearGradient>
	<path class="st38" d="M613.4,224.7c-16.1-8.4-31.1-15.3-45.1-20.7c-33.3-12.8-61.1-16.9-85-11.6c4.2,1.1,10.2,2.7,16.9,4.8
		c24.9-1.2,52.6,10.4,54.8,11.3c0.1,0,0.2,0.1,0.2,0.1c1.4,0.8,15.3,8.2,32.7,16.9l26.7,0l-12-11.6L613.4,224.7z"/>
	
		<linearGradient id="SVGID_40_" gradientUnits="userSpaceOnUse" x1="154.8357" y1="345.0317" x2="154.8357" y2="476.7683" gradientTransform="matrix(0 1 -1 0 801.3597 6.0268)">
		<stop  offset="0" style="stop-color:#686868"/>
		<stop  offset="0.867" style="stop-color:#444242"/>
	</linearGradient>
	<path class="st39" d="M325.5,137.8c-0.5,0.5-0.8,0.9-0.9,1.1c0.2,0.5,0.6,1.5,1.8,3.1c0.8,1.1,1.8,2.2,3,3.4
		c5.4,5.4,13.9,11.3,25.4,17.6c2,1.1,4,2.3,6.1,3.4c13,7.3,26.4,14.8,42.7,18.4c15.9,3.5,33.2,2.9,52.7-1.8
		c-8.5,1.5-16.1,2.5-23.4,1.7c-29.2-3.4-55.4-15.4-80.1-36.9c-4.3-3.7-10.5-8.9-16.1-11.6c-5.6-2.7-7.3-1.6-8.7-0.6
		C327.2,136.2,326.4,136.9,325.5,137.8z"/>
	
		<linearGradient id="SVGID_41_" gradientUnits="userSpaceOnUse" x1="154.8546" y1="379.5814" x2="154.8546" y2="543.1863" gradientTransform="matrix(0 1 -1 0 801.3597 6.0268)">
		<stop  offset="0" style="stop-color:#686868"/>
		<stop  offset="0.867" style="stop-color:#444242"/>
	</linearGradient>
	<path class="st40" d="M298.8,166.6c15.6,2.5,32.9,11.4,50.3,22.7c10.1,6.6,22.1,11.4,33.6,15l39.1-0.7
		c-32.9-0.8-54.5-14.9-74.8-26.1c-11.8-6.5-22.1-13.4-29.1-20.4c-1.7-1.7-3.2-3.4-4.5-5.1c-5.6-7.3-7.1-14.7-2.6-21.8
		c0.8-1.3,1.8-2.5,3-3.7c1.7-1.7,3.4-3.2,5.1-4.3c5.3-3.6,10.6-4.5,16.1-3.5c-2.2-0.4-7.1-1-18.2-1c-17.3,0-38.9,0-38.9,0
		s-18.5,5.7-19.7,20.4c-0.7,8.1,9.7,19.7,21.4,29.3C285.6,165.6,292,165.5,298.8,166.6z"/>
</g>
<g>
	
		<linearGradient id="SVGID_42_" gradientUnits="userSpaceOnUse" x1="194.4132" y1="441.1851" x2="194.4132" y2="524.417" gradientTransform="matrix(0 1 -1 0 801.3597 6.0268)">
		<stop  offset="0" style="stop-color:#686868"/>
		<stop  offset="0.867" style="stop-color:#444242"/>
	</linearGradient>
	<path class="st41" d="M295.9,184.8c-9.5-1.5-14.3,1-17,3.1c0,0-0.1,0-0.1,0.1c-0.6,0.5-1.3,1-1.9,1.6c0.2,0.3,0.5,0.7,0.8,1.2
		c0.5,0.7,1.1,1.3,1.8,2c9.8,9.8,34.2,20.9,66.8,23.8c5.3-0.4,9.8-0.6,13.7-0.8c-7.4-3.1-14.5-6.7-21.2-11
		C321.1,193.1,307,186.5,295.9,184.8z"/>
	
		<linearGradient id="SVGID_43_" gradientUnits="userSpaceOnUse" x1="192.4037" y1="474.8797" x2="192.4037" y2="592.7446" gradientTransform="matrix(0 1 -1 0 801.3597 6.0268)">
		<stop  offset="0" style="stop-color:#686868"/>
		<stop  offset="0.867" style="stop-color:#444242"/>
	</linearGradient>
	<path class="st42" d="M227.1,213.7c7.6-5,16.4-4.3,25.5-1.1c9.1,3.2,18.5,8.9,27.4,13.7c3.4,1.8,8.2,4,13.3,6.1h33.1
		c-26.9-5.1-48.6-15.3-59.9-26.6c-1.2-1.2-2.3-2.5-3.3-3.7c-5.8-7.4-7.1-15.1-2.5-21.9c0.8-1.1,1.7-2.2,2.7-3.3
		c1.4-1.4,2.8-2.6,4.3-3.7c8.3-6.3,18-8.1,28.6-6.9l-0.4-0.3l-34.7-0.9c0,0-58.4-6.6-52.2,25.2c2,10.5,8.5,18.6,16.3,24.8
		C226,214.6,226.6,214.1,227.1,213.7z"/>
</g>
<g>
	
		<linearGradient id="SVGID_44_" gradientUnits="userSpaceOnUse" x1="232.7999" y1="519.2186" x2="232.7999" y2="635.5668" gradientTransform="matrix(0 1 -1 0 801.3597 6.0268)">
		<stop  offset="0" style="stop-color:#686868"/>
		<stop  offset="0.867" style="stop-color:#444242"/>
	</linearGradient>
	<path class="st43" d="M208.6,256.7c7.4,3.4,15.1,8.8,24.8,12.3c17.9,0,37.3,0,46.9,0c0.6,0,1.2,0,1.9,0c-2.2,0-4.4-0.1-6.6-0.2
		c-22.9-1-40.6-8.6-50.4-18.4c-1.8-1.8-3.3-3.6-4.5-5.5c-5.1-7.7-5.7-16.3-0.6-23.8c1-1.6,2.3-3.1,3.8-4.5c1.1-1.1,2.2-2,3.4-2.7
		c3-2,6.2-3.1,9.5-3.5l-45.6-1.6c0,0-19.5-0.9-24.7,18c-3,11.1,7,23.6,15.9,32.1C192.2,251.7,200.2,252.9,208.6,256.7z"/>
	
		<linearGradient id="SVGID_45_" gradientUnits="userSpaceOnUse" x1="204.5815" y1="556.1423" x2="204.5815" y2="556.5082" gradientTransform="matrix(0 1 -1 0 801.3597 6.0268)">
		<stop  offset="0" style="stop-color:#686868"/>
		<stop  offset="0.867" style="stop-color:#444242"/>
	</linearGradient>
	<path class="st44" d="M245.1,210.6l-0.3,0C245,210.6,245.1,210.6,245.1,210.6C245.2,210.6,245.1,210.6,245.1,210.6z"/>
	
		<linearGradient id="SVGID_46_" gradientUnits="userSpaceOnUse" x1="233.5076" y1="517.7126" x2="233.5076" y2="565.4771" gradientTransform="matrix(0 1 -1 0 801.3597 6.0268)">
		<stop  offset="0" style="stop-color:#686868"/>
		<stop  offset="0.867" style="stop-color:#444242"/>
	</linearGradient>
	<path class="st45" d="M237.8,230c-0.1,0-0.3,0.2-0.7,0.6c-0.5,0.5-0.9,0.9-1,1.2c0,0,0,0,0,0.1c-0.1,0.2-0.2,0.3-0.2,0.3
		c0,0.2,0.2,0.8,0.9,1.9c0.5,0.8,1.2,1.6,2,2.5c5.6,5.6,18.4,11.9,37.4,12.7c2.5,0.1,5,0.2,7.4,0.2c-5-2.1-9.5-4.2-12.9-6.1
		c-1.7-1-3.5-1.9-5.3-2.9c-6.6-3.7-13.4-7.4-19.2-9.5c-2-0.7-6.7-2.2-8.3-1C237.9,230,237.9,230,237.8,230z"/>
</g>
<linearGradient id="SVGID_47_" gradientUnits="userSpaceOnUse" x1="284.806" y1="550.5065" x2="284.806" y2="682.6127" gradientTransform="matrix(0 1 -1 0 801.3597 6.0268)">
	<stop  offset="0" style="stop-color:#686868"/>
	<stop  offset="0.867" style="stop-color:#444242"/>
</linearGradient>
<path class="st46" d="M184.3,325.8c3.5,1.1,7,2.1,10.6,3.1c17.4,0.1,42.3,0.2,56,0c-4.2-0.1-8.3-0.3-12.5-0.8
	c-22.7-2.2-44.2-12.7-57-25.5c-3.4-3.4-6.1-6.9-8.2-10.5c-4.6-8.2-5.3-16.7-0.4-24c0.9-1.3,1.9-2.6,3.2-3.8c1.9-1.9,3.8-3.6,5.6-4.9
	c6-4.5,11.3-6,16.3-5.7l0.2-0.4l-45.1-0.5c0,0-30.9-3.8-34.2,25.2c-2.1,18.1,20.5,33.4,37.8,42.4C166,321.1,175.4,323,184.3,325.8z"
	/>
<linearGradient id="SVGID_48_" gradientUnits="userSpaceOnUse" x1="373.4668" y1="432.4885" x2="373.4668" y2="564.4964" gradientTransform="matrix(0 1 -1 0 801.3597 6.0268)">
	<stop  offset="0" style="stop-color:#686868"/>
	<stop  offset="0.867" style="stop-color:#444242"/>
</linearGradient>
<path class="st47" d="M300,402.6c27.6-6.8,48.5-31.6,68.8-51.1c0,0,0,0,0.1,0h-22.6c-8.5,10.1-18.1,19.6-27.6,25.4
	c-10.1,6.1-23.8,10-38.6,12.3c-13.4,7.9-28.3,14.7-43.2,17.8C257.3,408.2,278.1,408,300,402.6z"/>
<g>
	
		<linearGradient id="SVGID_49_" gradientUnits="userSpaceOnUse" x1="647.4465" y1="246.8029" x2="646.9075" y2="246.7644" gradientTransform="matrix(0 1 -1 0 801.3597 6.0268)">
		<stop  offset="0.1117" style="stop-color:#686868"/>
		<stop  offset="0.2101" style="stop-color:#444242"/>
		<stop  offset="0.3697" style="stop-color:#686868"/>
		<stop  offset="0.5824" style="stop-color:#444242"/>
		<stop  offset="0.885" style="stop-color:#444242"/>
	</linearGradient>
	<path class="st48" d="M554.3,653.4l0.6-0.4l-0.2,0C554.6,653.1,554.4,653.2,554.3,653.4z"/>
	
		<linearGradient id="SVGID_50_" gradientUnits="userSpaceOnUse" x1="650.8303" y1="266.0664" x2="628.3405" y2="264.4566" gradientTransform="matrix(0 1 -1 0 801.3597 6.0268)">
		<stop  offset="0.1117" style="stop-color:#686868"/>
		<stop  offset="0.2101" style="stop-color:#444242"/>
		<stop  offset="0.3697" style="stop-color:#686868"/>
		<stop  offset="0.5824" style="stop-color:#444242"/>
		<stop  offset="0.885" style="stop-color:#444242"/>
	</linearGradient>
	<path class="st49" d="M506.6,648.3c16.6,10.6,47.3-1.9,57.5-6.5c2-1.3,4-2.6,5.4-3.7h-50c0,0-10.6,6.6-16.3,7.7
		C504.4,646.8,505.6,647.6,506.6,648.3z M566.6,640c-0.2,0.2-0.4,0.3-0.6,0.5l0.4-0.4C566.5,640,566.6,640,566.6,640z"/>
	
		<linearGradient id="SVGID_51_" gradientUnits="userSpaceOnUse" x1="601.0947" y1="407.5291" x2="551.4194" y2="403.9734" gradientTransform="matrix(0 1 -1 0 801.3597 6.0268)">
		<stop  offset="0.1117" style="stop-color:#686868"/>
		<stop  offset="0.2101" style="stop-color:#444242"/>
		<stop  offset="0.3697" style="stop-color:#686868"/>
		<stop  offset="0.5824" style="stop-color:#444242"/>
		<stop  offset="0.885" style="stop-color:#444242"/>
	</linearGradient>
	<path class="st50" d="M403.6,595.1c0-0.1,0-0.1,0.1-0.2l0.1-0.4l0.5-2.5l0.7-3.3l1.4-6.6l2.8-13.2c0.5-2.5,1-4.9,1.5-7.4h-0.2
		c-0.5,2.4-0.9,4.8-1.4,7.2l-2.7,13.1l-1.4,6.6l-0.7,3.3l-0.5,2.4l-0.1,0.4c0,0.1,0,0.2-0.1,0.2c-0.5,2.1-2.2,3.9-4.2,4.5
		c-0.5,0.2-1,0.2-1.6,0.2c-0.3,0-0.5,0-0.8-0.1l-0.2,0l-0.1,0l-0.2,0l-0.8-0.1c-2.1-0.4-4.2-0.8-6.3-1.2c-2.8-0.6-5.6-1.2-8.4-1.9
		c0,0.1,0,0.2,0,0.3c2.7,0.6,5.4,1.2,8.1,1.8c2.1,0.4,4.3,0.8,6.5,1.2l0.8,0.1l0.2,0l0.1,0l0.2,0c0.3,0.1,0.5,0,0.8,0.1
		c0.5,0,1.1-0.1,1.6-0.2C401.3,599,403.1,597.2,403.6,595.1z"/>
	
		<linearGradient id="SVGID_52_" gradientUnits="userSpaceOnUse" x1="792.2252" y1="363.9502" x2="541.3897" y2="345.9957" gradientTransform="matrix(0 1 -1 0 801.3597 6.0268)">
		<stop  offset="0.1117" style="stop-color:#686868"/>
		<stop  offset="0.2101" style="stop-color:#444242"/>
		<stop  offset="0.3697" style="stop-color:#686868"/>
		<stop  offset="0.5824" style="stop-color:#444242"/>
		<stop  offset="0.885" style="stop-color:#444242"/>
	</linearGradient>
	<path class="st51" d="M419.3,755c-10,0.5-20.1-0.8-29.7-3.7c-0.7-0.2-1.2-0.5-1.6-1c-2.1-2.1-0.9-6.4,2.7-6.6
		c7.3-0.3,14.4-2.8,20.4-9.2c0.7-0.8,1.8-1.2,2.9-1.1c-0.6,0-1.2,0-1.8-0.1c0.3-0.4,0.6-0.8,0.9-1.2c0.1-0.2,0.3-0.4,0.4-0.6
		c0.7-1.2,3.2-5.8,4.6-14.2c1.3-7.5,0.1-50.4,2-73.5c0.4-4.4,5.7-6.3,8.8-3.2c0.1,0.1,0.2,0.2,0.3,0.3c5.3,6.1,11.8,13.2,18.7,20.1
		c10.7,10.7,22.4,20.9,32.2,25.8c5,2.6,10.6,3.2,16.4,2.6l-2.4-0.5c0.6-0.6,2.8,0.5,3.7,0.4c11.5-1.6,26.5-10,31.6-12.8l-7.5-0.1
		c-12.4,6.2-26.2,9.8-37.2,4.2c-19.7-10-44.9-38.8-57.4-54l0,0c0.5-13.9,1.3-27.3,2.4-40c14.2,16.4,54.2,61.9,68,71.2
		c15.3,10.3,50.1-2.3,56.7-4.8l-8.1-1c-12.1,4-24.7,4.7-34.6,3.7c-16.2-1.7-34.6-25.2-34.6-25.2l-46.6-52.7c0.5-5,1-9.9,1.6-14.6
		l-1-1.6h-6.6c-0.7,3.4-1.3,6.7-2,10.1l-2.8,13.3l-1.4,6.6l-0.7,3.3l-0.4,1.7l-0.2,0.8l-0.1,0.4l-0.2,0.6c-0.4,1.7-1.1,3.2-1.9,4.8
		c-0.9,1.5-1.8,2.9-3,4.1c-1.2,1.2-2.5,2.3-4,3.2c-0.7,0.5-1.5,0.8-2.3,1.2c-0.8,0.3-1.6,0.6-2.4,0.9c-1.6,0.5-3.4,0.7-5.1,0.8
		c-0.9,0-1.7,0-2.6-0.1l-0.6-0.1l-0.3,0l-0.2,0l-0.9-0.1c-2.3-0.4-4.6-0.8-6.9-1.3c-2.3-0.5-4.6-1-6.9-1.5
		c-3.1,28.6-7,63.8-9.9,87.6c3.1,0.4,5.9,0.7,8.6,0.8c3.5,0.2,6.5-2.4,6.9-5.8l8.3-70c0.4-3.7,3.8-6.3,7.4-5.8
		c1.5,0.2,2.9,0.9,3.9,1.9c1.4,1.4,2.2,3.4,1.9,5.5l-8.3,70c-1.2,10.4-10.4,18.1-20.9,17.5c-3-0.2-6.2-0.4-9.6-0.9
		c-0.9,7-1.7,11.8-2.2,13.4c-3.2,10.8-14.5,19-24.7,19c-10.2,0-8.1,10.2,7.1,10.7c15.2,0.5,70.3,1.9,70.3,1.9L419.3,755z"/>
</g>
<g>
	
		<linearGradient id="SVGID_53_" gradientUnits="userSpaceOnUse" x1="510.2612" y1="210.9375" x2="510.2612" y2="379.7716" gradientTransform="matrix(0 1 -1 0 801.3597 6.0268)">
		<stop  offset="0" style="stop-color:#686868"/>
		<stop  offset="0.4477" style="stop-color:#444242"/>
	</linearGradient>
	<path class="st52" d="M501.6,406.5c-10.7,5.8-17.5,11.7-21,15.1c-1.4,1.4-3.6,1.3-5,0c-0.1-0.1-0.2-0.2-0.3-0.3
		c-0.9-1.2-1.9-2.3-3.1-3.5c-3.5-3.5-8.1-7-13-10.3c-2,1-5.1,2.8-8.8,5.8c0.9,0.8,1.7,1.5,2.5,2.4c0.5,0.5,1,1,1.5,1.6
		c2.1,2.3,4.1,4.7,5.8,7.3c0.9,1.3,1.7,2.6,2.5,4c0.7,1.4,1.5,2.8,2.1,4.3c2.5,5.8,3.9,12.3,3.7,18.8c-0.2,6.5-2.3,12.9-5.7,18.5
		c-0.4,0.7-0.9,1.4-1.4,2l-1.4,2l-1.6,1.8c-0.6,0.6-1,1.2-1.7,1.7c-1.2,1.1-2.3,2.2-3.6,3.1l-1.9,1.4c-0.6,0.5-1.3,0.8-2,1.3l-2,1.2
		l-2,1.1c-1.3,0.7-2.6,1.3-4,2c-1.9,0.9-3.8,1.7-5.8,2.4c0,0.2,0,0.4,0,0.5c-0.6,9.4-1.9,18.5-3.2,27.5c-1.4,9-3,17.9-4.6,26.9
		c-1.7,8.9-3.4,17.8-5.3,26.7l-0.7,3.2l7.8,12.1c0-0.1,0-0.3,0-0.4c6.8,7.8,19.4,22.2,32.3,36.1l9.2,0.9l-40.6-45.9
		c0.6-5.7,1.2-11.2,1.8-16.5l3.9,5.9c0,0,24.6,33.3,46.3,57.8l12.6,1.3l0.1-0.6c-36.2-39.3-51.8-75.9-56.6-88.9
		c-1.1-3.1-1.4-6.5-0.7-9.8l3.2-15.9c0,0,1-9.4,20.5-23.9c19.6-14.5,22.4-42,22.4-42l10.1-10.9c23.5-24.3,50.7-25.3,50.7-25.3
		s19.9-1.3,45.7-1.5l0-0.7H501.6z"/>
	
		<linearGradient id="SVGID_54_" gradientUnits="userSpaceOnUse" x1="613.2468" y1="249.3032" x2="613.2468" y2="296.7551" gradientTransform="matrix(0 1 -1 0 801.3597 6.0268)">
		<stop  offset="0" style="stop-color:#686868"/>
		<stop  offset="0.4477" style="stop-color:#444242"/>
	</linearGradient>
	<path class="st53" d="M544.2,619.7c-15.5-5.6-30.5-1.8-39.6,1.9h47.5C549.7,621.4,547.1,620.8,544.2,619.7z"/>
	
		<linearGradient id="SVGID_55_" gradientUnits="userSpaceOnUse" x1="470.9581" y1="220.2308" x2="470.9581" y2="249.1223" gradientTransform="matrix(0 1 -1 0 801.3597 6.0268)">
		<stop  offset="0" style="stop-color:#686868"/>
		<stop  offset="0.4477" style="stop-color:#444242"/>
	</linearGradient>
	<path class="st54" d="M581,479.1c0,0-14.3-2-28.8-12.8l13.4,17.7c0,0,5.1,6.2,10.9,2.5C582.3,482.9,581,479.1,581,479.1z"/>
	
		<linearGradient id="SVGID_56_" gradientUnits="userSpaceOnUse" x1="518.8508" y1="379.5004" x2="518.8508" y2="389.8986" gradientTransform="matrix(0 1 -1 0 801.3597 6.0268)">
		<stop  offset="0" style="stop-color:#686868"/>
		<stop  offset="0.4477" style="stop-color:#444242"/>
	</linearGradient>
	<path class="st55" d="M421.5,492.9c-0.6,7.6-1.7,15.4-2.8,23.1c-1.3,8.8-2.9,17.6-4.5,26.4c-0.9,4.7-1.8,9.4-2.7,14.2
		c0.1,0.1,0.1,0.3,0.2,0.4c1-4.8,1.9-9.6,2.8-14.5c1.6-8.8,3.2-17.6,4.6-26.4c1.2-7.8,2.3-15.6,2.9-23.2c-1.6,0.2-3.2,0.3-4.7,0.5
		c0,0,0,0.1,0,0.1C418.5,493.2,420,493.1,421.5,492.9z"/>
	
		<linearGradient id="SVGID_57_" gradientUnits="userSpaceOnUse" x1="445.8842" y1="342.552" x2="445.8842" y2="373.7665" gradientTransform="matrix(0 1 -1 0 801.3597 6.0268)">
		<stop  offset="0" style="stop-color:#686868"/>
		<stop  offset="0.4477" style="stop-color:#444242"/>
	</linearGradient>
	<path class="st56" d="M437.4,479.6c1.2-0.6,2.4-1.2,3.6-1.9l1.8-1l1.6-1c0.5-0.4,1.1-0.6,1.6-1l1.5-1.2c0.5-0.4,1-0.8,1.4-1.2
		l1.4-1.3c0.5-0.4,0.9-0.9,1.3-1.4l1.2-1.4l1.1-1.5c0.3-0.5,0.7-1,1-1.6c2.5-4.2,3.9-9,4-13.9c0.1-4.9-1-9.9-3.1-14.4
		c-0.5-1.1-1.2-2.2-1.7-3.4c-0.7-1.1-1.3-2.2-2.1-3.2c-1.5-2.1-3.1-4.1-4.9-6c-0.2-0.2-0.4-0.4-0.7-0.7c-1-1-2-2-3.1-2.9
		c-0.2,0.2-0.3,0.4-0.5,0.6c0.9,0.8,1.8,1.7,2.7,2.6c0.2,0.2,0.4,0.4,0.6,0.7c1.7,1.9,3.3,3.9,4.8,6c0.7,1,1.4,2.1,2,3.2
		c0.6,1.1,1.2,2.2,1.7,3.4c2,4.6,3.1,9.5,3,14.4c-0.1,4.9-1.5,9.7-3.9,13.9c-0.3,0.6-0.6,1-1,1.5l-1,1.5l-1.2,1.4
		c-0.4,0.5-0.8,1-1.2,1.4l-1.3,1.3c-0.4,0.5-0.9,0.8-1.4,1.2l-1.5,1.2c-0.5,0.4-1,0.7-1.6,1l-1.6,1l-1.7,1c-1.2,0.7-2.4,1.3-3.5,1.9
		c-2.4,1.2-4.7,2.2-7.1,2.9c-0.6,0.2-1.3,0.4-1.9,0.5c0.9-0.2,1.7-0.4,2.5-0.7C432.6,481.8,435,480.8,437.4,479.6z"/>
</g>
<linearGradient id="SVGID_58_" gradientUnits="userSpaceOnUse" x1="651.5352" y1="404.5175" x2="651.5352" y2="466.2556" gradientTransform="matrix(0 1 -1 0 801.3597 6.0268)">
	<stop  offset="0" style="stop-color:#686868"/>
	<stop  offset="0.867" style="stop-color:#444242"/>
</linearGradient>
<path class="st57" d="M385.1,692.6l8.3-70c0.3-2.2,1.6-4,3.4-5h-42c0,0-10.9-4.4-12.3,7c-1.1,9.1-5.6,47-7.4,61.9
	c4.1,2.2,8.2,4.1,12.2,5.6l14.1,4.1c6.2,1.3,11.9,2,16.8,2.3C381.7,698.6,384.7,696,385.1,692.6z"/>
<linearGradient id="SVGID_59_" gradientUnits="userSpaceOnUse" x1="435.7513" y1="60.3165" x2="435.7513" y2="157.1314" gradientTransform="matrix(0 1 -1 0 801.3597 6.0268)">
	<stop  offset="0" style="stop-color:#686868"/>
	<stop  offset="0.4477" style="stop-color:#444242"/>
</linearGradient>
<path class="st58" d="M653.3,417.8c-2.8,1.5-5.9,2.7-9,3.7c27.9,8.7,47.4,44.5,47.4,44.5H741c0,0-0.3-1-1.2-2.8
	C713.5,422.6,675.6,416.4,653.3,417.8z"/>
<g>
	
		<linearGradient id="SVGID_60_" gradientUnits="userSpaceOnUse" x1="268.4807" y1="439.9607" x2="268.4807" y2="530.7168" gradientTransform="matrix(0 1 -1 0 801.3597 6.0268)">
		<stop  offset="0" style="stop-color:#686868"/>
		<stop  offset="0.867" style="stop-color:#444242"/>
	</linearGradient>
	<path class="st59" d="M294.4,279.9c13.6,1.4,53.3-6.4,67-8.8l-46.9-2.1l-43.8,8.5C279.3,278.6,287.3,279.1,294.4,279.9z"/>
	
		<linearGradient id="SVGID_61_" gradientUnits="userSpaceOnUse" x1="296.4425" y1="501.2886" x2="296.4425" y2="572.0031" gradientTransform="matrix(0 1 -1 0 801.3597 6.0268)">
		<stop  offset="0" style="stop-color:#686868"/>
		<stop  offset="0.867" style="stop-color:#444242"/>
	</linearGradient>
	<path class="st60" d="M300.1,300.5c-2.9,0.1-5.5,0-7.8-0.3c-2.5-0.3-5.1-0.5-7.9-0.8c-7.6-0.7-16.1-1.5-25.4-3l-29.6,9.3
		c3.6,0.9,7.3,1.5,10.9,1.9C261,309.8,280.8,307.4,300.1,300.5z"/>
</g>
<linearGradient id="SVGID_62_" gradientUnits="userSpaceOnUse" x1="281.1494" y1="516.5914" x2="281.1494" y2="611.433" gradientTransform="matrix(0 1 -1 0 801.3597 6.0268)">
	<stop  offset="0" style="stop-color:#686868"/>
	<stop  offset="0.867" style="stop-color:#444242"/>
</linearGradient>
<path class="st61" d="M284.8,299.5c-0.1,0-0.3,0-0.4,0c-15.7-1.4-35.3-3.2-57.2-11c-7.7-2.7-14.3-6.4-19.6-9.3
	c-2.7-1.5-5.2-2.9-7.4-3.9c-2.4-1.1-3.4-1.2-3.6-1.2c-0.2,0.1-1,0.3-2.7,1.6c-1.1,0.8-2.3,1.9-3.5,3.1c-0.3,0.3-0.4,0.5-0.5,0.6
	c0.1,0.4,0.4,1.4,1.1,2.7c1.1,1.9,2.7,4,4.8,6.1c4.4,4.4,10.1,8.3,16.5,11.5C234,300.7,265,300.1,284.8,299.5z"/>
<g>
	
		<linearGradient id="SVGID_63_" gradientUnits="userSpaceOnUse" x1="499.2195" y1="518.0023" x2="499.2195" y2="624.0617" gradientTransform="matrix(0 1 -1 0 801.3597 6.0268)">
		<stop  offset="0" style="stop-color:#686868"/>
		<stop  offset="0.867" style="stop-color:#444242"/>
	</linearGradient>
	<path class="st62" d="M195.5,523.7c7.1,0,14.7-1,22-1.9l1.9-0.2c9.9-1.2,22.9-5.5,34.8-11.5c12.3-6.2,22.6-13.7,28-20.5
		c0.4-0.5,0.8-1,1.1-1.4c-5.2,0.8-10.7,1.3-16.6,1.3c-8.7,0.1-16.7-0.9-24.4-1.8c-3.2-0.4-6.2-0.7-9.1-1c-4.1,6.3-17.1,20.4-56,32.6
		c0,0,0.1,0.1,0.1,0.1C180.6,522.3,186.7,523.8,195.5,523.7z"/>
	
		<linearGradient id="SVGID_64_" gradientUnits="userSpaceOnUse" x1="447.1476" y1="473.6241" x2="447.1476" y2="566.0738" gradientTransform="matrix(0 1 -1 0 801.3597 6.0268)">
		<stop  offset="0" style="stop-color:#686868"/>
		<stop  offset="0.867" style="stop-color:#444242"/>
	</linearGradient>
	<path class="st63" d="M266.5,465.9c29.7-0.2,48.4-14.4,61.1-24.9c0,0,0.1-0.1,0.1-0.1l-27.8-0.5c-5.8,3.4-11.9,6.1-18.6,7.7
		c-5.3,1.3-10.8,1.9-16.2,2.1c-7,4.4-16.8,9.4-29.8,13C245.7,464.2,256,466,266.5,465.9z"/>
</g>
<g>
	
		<linearGradient id="SVGID_65_" gradientUnits="userSpaceOnUse" x1="481.806" y1="545.036" x2="481.806" y2="594.457" gradientTransform="matrix(0 1 -1 0 801.3597 6.0268)">
		<stop  offset="0" style="stop-color:#686868"/>
		<stop  offset="0.867" style="stop-color:#444242"/>
	</linearGradient>
	<path class="st64" d="M206.9,489.4l49.4-0.2c-4.8-0.3-9.4-0.9-14-1.4c-10.1-1.2-18.8-2.2-26.6-0.7
		C212.7,487.6,209.8,488.4,206.9,489.4z"/>
	
		<linearGradient id="SVGID_66_" gradientUnits="userSpaceOnUse" x1="498.8653" y1="565.2221" x2="498.8653" y2="700.8854" gradientTransform="matrix(0 1 -1 0 801.3597 6.0268)">
		<stop  offset="0" style="stop-color:#686868"/>
		<stop  offset="0.867" style="stop-color:#444242"/>
	</linearGradient>
	<path class="st65" d="M195.7,547.3c-12.5,0.1-24.8-2.1-33.9-10.2c-0.5-0.4-0.9-0.9-1.4-1.3c-7.4-7.4-10.7-18.1-7.5-28.3
		c0.2-0.8,0.5-1.5,0.8-2.2c2.3-5.9,6.1-11,10.4-15.6c12.5-13.3,29.3-22.4,47.3-25.8c8.3-1.6,16.6-1.3,24.8-0.5
		c-8.7-1.1-21.2-2-34.7-1.2c-8.1,0.5-16.2,1-23.6,1.4c-15.1,9.6-27.9,21-39.2,26.8c-9,4.6-17.1,5.7-24.7-0.7
		c-0.3-0.2-0.6-0.5-0.9-0.7c-4.5,6.4-8.8,14.5-12.4,24.8c0,0-5.4,22.5,25,31.6c0,0,8.2,1.9,23.7,2.2c15.5,0.3,48.1,0.3,48.1,0.3
		l-0.6-0.6C196.6,547.3,196.1,547.3,195.7,547.3z"/>
</g>
<linearGradient id="SVGID_67_" gradientUnits="userSpaceOnUse" x1="442.7818" y1="656.3712" x2="442.7818" y2="781.1257" gradientTransform="matrix(0 1 -1 0 801.3597 6.0268)">
	<stop  offset="0" style="stop-color:#686868"/>
	<stop  offset="0.867" style="stop-color:#444242"/>
</linearGradient>
<path class="st66" d="M133,492.8c-0.1,0-0.2,0.1-0.3,0.1c-0.4,0.1-0.7,0.2-1.1,0.3c-0.1,0-0.2,0.1-0.3,0.1c-0.4,0.1-0.7,0.2-1.1,0.3
	c-0.1,0-0.1,0-0.2,0c-1.1,0.2-2.3,0.4-3.4,0.5c-0.2,0-0.3,0-0.5,0c-0.3,0-0.5,0-0.8,0c-0.2,0-0.4,0-0.6,0c-0.3,0-0.5,0-0.8-0.1
	c-0.2,0-0.4-0.1-0.7-0.1c-0.2,0-0.5-0.1-0.7-0.1c-0.3,0-0.6-0.1-0.8-0.2c-0.2-0.1-0.5-0.1-0.7-0.2c-0.4-0.1-0.7-0.2-1.1-0.4
	c-0.2-0.1-0.3-0.1-0.5-0.2c-0.3-0.1-0.6-0.2-0.8-0.4c-0.2-0.1-0.4-0.2-0.5-0.3c-0.3-0.1-0.6-0.3-0.8-0.4c-0.2-0.1-0.3-0.2-0.5-0.3
	c-0.3-0.2-0.6-0.4-0.9-0.6c-0.1-0.1-0.3-0.2-0.4-0.3c-0.4-0.3-0.9-0.6-1.3-1c0,0,0,0,0,0c-1.1-1-2.3-1.9-3.4-2.9
	c-0.7-0.6-1.4-1.3-2.1-1.9c-1.4-1.3-2.9-2.7-4.3-4c-0.7-0.7-1.4-1.4-2.1-2.1c-2.7-2.7-5.4-5.6-8-8.4l-0.1-0.1
	c-1.9-2.2-3.8-4.4-5.6-6.7c-0.6-0.7-1.2-1.5-1.8-2.2c-2.3-3-4.4-6-6.4-9c0-0.1-0.1-0.1-0.1-0.2c0,0,0,0,0,0c0,0,0,0,0,0c0,0,0,0,0,0
	c0,0,0-0.1-0.1-0.1c-3.1-4.9-5.6-9.7-7.1-14.2c-0.2-0.4-0.3-0.9-0.4-1.3c-0.7-2.2-1.1-4.4-1.3-6.4v0c0,0,0,0,0,0c0,0,0,0,0,0
	c-0.2-2.1-0.1-4.1,0.4-5.9c0.4-1.8,1.2-3.5,2.3-5.1c3.4-4.6,9.3-8,16.7-10.4c0,0,0,0,0,0c0.9-0.3,1.7-0.6,2.6-0.8
	c0.3-0.1,0.6-0.2,0.9-0.2c0.6-0.2,1.2-0.3,1.9-0.5c0.4-0.1,0.7-0.2,1.1-0.3c0.6-0.1,1.2-0.3,1.8-0.4c0.4-0.1,0.8-0.2,1.2-0.3
	c0.6-0.1,1.2-0.2,1.8-0.4c0.4-0.1,0.8-0.2,1.2-0.2c0.6-0.1,1.3-0.2,1.9-0.3c0.4-0.1,0.8-0.1,1.2-0.2c0.7-0.1,1.4-0.2,2.1-0.3
	c0.3,0,0.7-0.1,1-0.1c0.9-0.1,1.8-0.2,2.8-0.3c0.1,0,0.3,0,0.4-0.1c1.1-0.1,2.2-0.2,3.3-0.4c0.2,0,0.4,0,0.6-0.1
	c0.9-0.1,1.8-0.2,2.7-0.2c0.3,0,0.7-0.1,1-0.1c0.8-0.1,1.6-0.1,2.4-0.2c0.4,0,0.7,0,1.1-0.1c0.8,0,1.6-0.1,2.4-0.1
	c0.4,0,0.7,0,1.1-0.1c0.8,0,1.6-0.1,2.4-0.1c0.3,0,0.7,0,1,0c0.9,0,1.8-0.1,2.7-0.1c0.2,0,0.5,0,0.7,0c3.5-0.1,7-0.1,10.4-0.2
	c0,0,0,0,0,0l0.3-0.1c0,0-53.6-1.4-82.6,1.9c-29,3.3-57.4,11.9-32.8,46s37,41.8,37,41.8s3.8,1.9,20.9,2.4
	c17.1,0.5,32.8,0.9,32.8,0.9s8.7,1.2,13.9-3C133.8,492.6,133.4,492.7,133,492.8z"/>
<g>
	
		<linearGradient id="SVGID_68_" gradientUnits="userSpaceOnUse" x1="356.7685" y1="489.3628" x2="356.7685" y2="582.7336" gradientTransform="matrix(0 1 -1 0 801.3597 6.0268)">
		<stop  offset="0" style="stop-color:#686868"/>
		<stop  offset="0.867" style="stop-color:#444242"/>
	</linearGradient>
	<path class="st67" d="M258.1,369.8c21.9-1.4,39.4-5.5,49.3-11.5c1.5-0.9,3-1.9,4.5-3.1c-19.5,4-39.5,5.6-60,4.6
		c-6.6,3-17.3,6.7-33.4,9.6C229.8,370.4,243.7,370.8,258.1,369.8z"/>
	
		<linearGradient id="SVGID_69_" gradientUnits="userSpaceOnUse" x1="318.8243" y1="434.8131" x2="318.8243" y2="564.3684" gradientTransform="matrix(0 1 -1 0 801.3597 6.0268)">
		<stop  offset="0" style="stop-color:#686868"/>
		<stop  offset="0.867" style="stop-color:#444242"/>
	</linearGradient>
	<path class="st68" d="M366.5,312.6l-39.7-1.3c-16.4,8.4-32.8,13.5-49.1,16c-11.4,4-25.2,7.8-40.7,9.8
		C281.4,341.9,325.2,334.7,366.5,312.6z"/>
</g>
<g>
	
		<linearGradient id="SVGID_70_" gradientUnits="userSpaceOnUse" x1="344.8435" y1="557.6188" x2="344.8435" y2="673.9229" gradientTransform="matrix(0 1 -1 0 801.3597 6.0268)">
		<stop  offset="0" style="stop-color:#686868"/>
		<stop  offset="0.867" style="stop-color:#444242"/>
	</linearGradient>
	<path class="st69" d="M127.4,346.2c0.5,0,0.9,0.1,1.4,0.2c29.9,10,78.3,13.8,78.3,13.8l36.6-0.8c-21.4-1.7-43.4-6-65.8-13
		c-11.3-3.5-22.2-5.1-31.7-4.7C139.2,342.1,132.9,343.6,127.4,346.2z"/>
	
		<linearGradient id="SVGID_71_" gradientUnits="userSpaceOnUse" x1="383.0183" y1="574.9303" x2="383.0183" y2="667.1863" gradientTransform="matrix(0 1 -1 0 801.3597 6.0268)">
		<stop  offset="0" style="stop-color:#686868"/>
		<stop  offset="0.867" style="stop-color:#444242"/>
	</linearGradient>
	<path class="st70" d="M200.5,389c-14.1-2.3-39.6-4-66.3-1.9c17,2.4,32.2,4.8,32.2,4.8l60.1-0.4C216.6,391.1,207.6,390.2,200.5,389z
		"/>
	
		<linearGradient id="SVGID_72_" gradientUnits="userSpaceOnUse" x1="359.7461" y1="650.8309" x2="359.7461" y2="699.2243" gradientTransform="matrix(0 1 -1 0 801.3597 6.0268)">
		<stop  offset="0" style="stop-color:#686868"/>
		<stop  offset="0.867" style="stop-color:#444242"/>
	</linearGradient>
	<path class="st71" d="M150.5,364.7l-41.9-2.8c-2.4,2.4-4.6,5-6.5,7.7C118.5,366.5,135.2,365.1,150.5,364.7z"/>
	
		<linearGradient id="SVGID_73_" gradientUnits="userSpaceOnUse" x1="352.3997" y1="654.6969" x2="352.3997" y2="780.3102" gradientTransform="matrix(0 1 -1 0 801.3597 6.0268)">
		<stop  offset="0" style="stop-color:#686868"/>
		<stop  offset="0.867" style="stop-color:#444242"/>
	</linearGradient>
	<path class="st72" d="M74.6,394.1c-1.9-1.9-3.2-4.6-3.3-7.4l0,0c0,0,0,0,0,0c0,0,0,0,0,0c-0.1-1.1,0.1-2.2,0.4-3.3
		c3.9-13.5,11.2-26.3,21.8-36.9c0,0,8.1-8.1,8.1-8.1c2-2,4-3.8,6.2-5.4c11-8.4,23.9-12.2,37.3-12.8c0.5,0,1,0,1.5-0.1
		c-14.7-0.8-43.9-1.8-63.4,0.6c-27.1,3.3-51.7,37-59.8,55.1c-8.1,18,6.6,21.8,6.6,21.8h50.8c0,0,0.4-0.2,1.1-0.7
		C79.2,397.2,76.6,396.1,74.6,394.1z"/>
</g>
<path class="st73" d="M412.6,107.2c-0.3-0.3-0.6-0.6-0.9-0.8c-6.4-6.4-10-12.6-10.2-17.8c-0.3-6.5,5.2-11,9.2-12.1
	c0.7-0.2,1.1-0.2,1.3-0.2c1-0.1,2,0,3.1,0.2l0.3,0c2.6,0.6,5.2,2,7.1,3.9c1.3,1.3,3.4,4,3.3,7.5c0,0.5-0.1,1-0.2,1.5
	c-2.5,11.3-1,22.8,4.2,33.4C424.7,118.7,419.2,113.6,412.6,107.2z M490.5,149.3c-0.2-0.2-0.4-0.4-0.8-0.5
	c-12.8-5.6-33.3-15.1-37.8-19.6c-6.7-6.7-16.2-19.8-12.4-36.6c0.3-1.4,0.5-2.8,0.5-4.1c0.3-7-2.7-13.4-7.5-18.2
	c-3.9-3.9-9.1-6.8-14.7-7.9l0,0c-2.2-0.5-4.6-0.6-6.9-0.5c-1.4,0.1-2.8,0.4-4.3,0.8c-9.8,2.8-20.2,12.7-19.6,26.5
	c0.3,8,4.4,17.3,14.4,27.3c0.3,0.3,0.7,0.7,1,1c29,28,41.2,35.1,86.2,35.8C491,153.3,491.9,150.7,490.5,149.3z"/>
<path class="st73" d="M366.5,93.8L366.5,93.8"/>
<path class="st73" d="M369.7,111.9c-0.2-0.1-0.3-0.3-0.5-0.5c-1.8-1.8-3.2-3.6-4.2-5.5c-2.5-4.6-2.1-8.2-1.4-9.5c0,0,0,0,0-0.1
	c0.1-0.2,0.1-0.2,0.1-0.2c0.4-0.4,1-1,1.6-1.5c0.2,0.2,0.5,0.8,1,2.1c0.4,1.1,0.8,2.5,1.2,3.9c1.1,3.9,2.4,8.7,5.2,13.5
	c0.2,0.3,0.5,0.8,0.8,1.3C372.3,114.4,371,113.2,369.7,111.9z M447.8,156.2c-0.3-0.3-0.6-0.5-1-0.6c-9.1-3-23.1-8.4-32.5-15.5
	c-3.8-2.8-7.2-6-10.4-9.1c-9.4-9.4-16.1-19.4-18.9-24c-2.7-4.6-3.5-9.9-5.1-14.8c-1-2.9-2.3-5.6-4.5-7.8c-0.8-0.8-1.8-1.6-2.9-2.3
	c-4.4-2.7-8-2.8-11-1.8c-3.1,1.1-5.5,3.4-7.7,5.4c-1.3,1.2-2.4,2.7-3.2,4.5c-2.8,5.8-2.9,14.2,1.8,22.7c1.6,2.9,3.8,5.9,6.6,8.7
	c0.2,0.2,0.5,0.4,0.7,0.7c8.5,8.2,16,15.1,25,20.7c14.9,9.2,20.7,10.9,30,13.2c10.9,2.7,20.7,5.6,31.5,4.4
	C448.5,160.3,449.2,157.6,447.8,156.2z"/>
<path class="st73" d="M346.4,216.6c-32.6-2.9-57-14-66.8-23.8c-0.7-0.7-1.3-1.4-1.8-2c-0.4-0.5-0.6-0.9-0.8-1.2
	c0.6-0.6,1.3-1.1,1.9-1.6c0,0,0,0,0.1-0.1c2.7-2.1,7.5-4.6,17-3.1c11.1,1.8,25.2,8.3,43.1,19.9c6.6,4.3,13.8,7.9,21.2,11
	C356.3,215.9,351.7,216.2,346.4,216.6z M425.1,213.3c-0.3-0.3-0.7-0.5-1.2-0.6c-15-1.8-50.2-7.5-74.8-23.5
	c-17.3-11.3-34.6-20.2-50.3-22.7c-11.5-1.8-22-0.2-31,6.6c-1.5,1.1-2.9,2.3-4.3,3.7c-1.1,1.1-2,2.2-2.7,3.3
	c-4.6,6.9-3.3,14.5,2.5,21.9c1,1.2,2.1,2.5,3.3,3.7c14,14,43.9,26.4,79.8,29.3c37.1-2.9,36.3,1.6,78.2-18.5
	C425.9,216,426,214.2,425.1,213.3z"/>
<path class="st73" d="M276.3,249.3c-19-0.8-31.8-7.1-37.4-12.7c-0.8-0.8-1.5-1.6-2-2.5c-0.7-1.1-0.9-1.7-0.9-1.9
	c0-0.1,0.1-0.2,0.2-0.3c0,0,0,0,0-0.1c0.2-0.2,0.5-0.7,1-1.2c0.4-0.4,0.6-0.5,0.7-0.6c0,0,0.1,0,0.1-0.1c1.7-1.1,6.4,0.4,8.3,1
	c5.8,2,12.6,5.8,19.2,9.5c1.8,1,3.6,2,5.3,2.9c3.4,1.8,7.9,4,12.9,6.1C281.2,249.4,278.8,249.4,276.3,249.3z M374.1,243.9
	c-0.3-0.3-1.2-0.3-2.1-0.1c-3.6,0.7-7.3,1.2-11,1.3c-10.3,0.1-27.6-1.7-45.9-5.6c-9.3-1.9-26.6-8.7-35-13.3
	c-8.8-4.8-18.2-10.5-27.4-13.7c-9.1-3.2-17.9-4-25.5,1.1c-1.2,0.8-2.3,1.7-3.4,2.7c-1.5,1.5-2.8,3-3.8,4.5
	c-5.1,7.5-4.5,16.1,0.6,23.8c1.2,1.9,2.8,3.7,4.5,5.5c9.8,9.8,27.5,17.5,50.4,18.4c47.4,2,80.1-7.6,95.7-20.9
	C373.9,245.5,374.5,244.4,374.1,243.9z"/>
<path class="st73" d="M240.3,307.7c-16.8-1.6-34.2-9.3-44.5-19.6c-2.1-2.1-3.7-4.2-4.8-6.1c-0.8-1.3-1-2.3-1.1-2.7
	c0.1-0.1,0.2-0.3,0.5-0.6c1.2-1.2,2.4-2.3,3.5-3.1c1.6-1.2,2.5-1.5,2.7-1.6c0.2,0,1.2,0.1,3.6,1.2c2.1,1,4.7,2.4,7.4,3.9
	c5.3,2.9,11.8,6.5,19.6,9.3c21.9,7.8,41.5,9.6,57.2,11c2.8,0.3,5.4,0.5,7.9,0.8c2.3,0.2,4.9,0.3,7.8,0.3
	C280.8,307.4,261,309.8,240.3,307.7z M370.5,272.9c-0.1-0.1-0.2-0.2-0.3-0.3c-1.5-1.3-2.7-2-4.1-2.2c-2.4-0.3-55.5,11.1-71.7,9.4
	c-16.2-1.7-37.2-2.5-60.4-10.7c-9.9-3.5-17.8-9-25.3-12.5c-8.6-3.9-16.8-5.1-27.1,2.6c-1.8,1.4-3.7,3-5.6,4.9
	c-1.2,1.2-2.3,2.5-3.2,3.8c-4.9,7.4-4.2,15.8,0.4,24c2,3.6,4.8,7.1,8.2,10.5c12.8,12.8,34.3,23.3,57,25.5
	c43.5,4.3,87.6-8,131.9-46.7C372.8,279.2,372.9,275.2,370.5,272.9z"/>
<path class="st73" d="M566.6,640L566.6,640L566.6,640z M566.6,640c0,0-0.1,0-0.2,0.1l-0.4,0.4C566.2,640.3,566.4,640.1,566.6,640
	L566.6,640z"/>
<g>
	<path class="st73" d="M747.1,456.9c-3.4-7.2-7.5-13.8-12.3-19.6c-2-2.4-4-4.7-6.2-6.8c-46-46-136.2-44.5-179.1-38.9
		c-39.8,5.2-61.6,23-68.9,30c-1.4,1.4-3.6,1.3-5,0c-0.1-0.1-0.2-0.2-0.3-0.3c-0.9-1.2-1.9-2.3-3.1-3.5c-12.6-12.6-40.9-26-40.9-26
		c-23.6-11.3-42.9-11.7-50.7-11.3c-0.8,0-1.5-0.3-2-0.8c-0.6-0.6-0.9-1.6-0.7-2.6c1.5-5.3,4.3-14.7,5.1-17.2c1.1-3.5,5.4-3,5.4-3
		c11.6,0,14.7,1.7,37.7,4.2c37.7-29.9,49.7-35.2,81.6-37.1c31.9-1.9,82.6-38.1,117.4-49.7c3.6-1.2,7.3-1.9,11-2.3
		c9.3-0.9,18.8,0.6,27.6,3.2l72.2,72.2C765.6,376.9,769.3,423.1,747.1,456.9z"/>
</g>
<path class="st73" d="M548.6,223.5L548.6,223.5"/>
<path class="st73" d="M510.6,259.1c-11.8,11.8-31.1,11.8-43-0.1c-1.9-1.9-3.6-4.1-4.9-6.4c-1.2-2.1,0.5-4.7,2.9-4.5
	c14.2,1.2,29.7,2.7,44.4,4.6c0.7,0.1,1.3,0.4,1.8,0.9c1.1,1.1,1.3,2.9,0.2,4.2C511.5,258.2,511.1,258.6,510.6,259.1z"/>
<path class="st73" d="M520.8,269.2c-17.4,17.4-45.8,17.4-63.3-0.1c-5.2-5.2-9-11.5-11.1-18.4c-0.6-2,1-4.1,3.1-3.9c0,0,0.1,0,0.1,0
	c0.7,0.1,1.4,0.4,1.9,0.9c0.3,0.3,0.6,0.8,0.8,1.2c1.8,5.9,5.1,11.4,9.6,15.8c15.1,15.1,39.6,15.1,54.6,0.1c2.5-2.5,4.7-5.4,6.4-8.5
	c0.6-1.1,1.9-1.7,3.1-1.5c0,0,0,0,0.1,0c0.7,0.1,1.2,0.4,1.7,0.8c0.9,0.9,1.2,2.4,0.5,3.7C526.2,263,523.7,266.3,520.8,269.2z"/>
<path class="st73" d="M466.4,316.1c-13.7,9.6-37.8,23.3-44.8,27.2c-0.6,0.4-1.4,0.5-2.1,0.3l-29.5-6.2c-0.6-0.1-1.1-0.4-1.5-0.8
	c-0.9-0.9-1.2-2.3-0.6-3.6l9.8-18.9c0.5-0.9,1.3-1.5,2.3-1.6c7.8-1,27.7-4.2,41.4-12.6c1-0.6,2.4-0.5,3.4,0.2
	c6.5,4.7,13.6,8.2,20.9,10.6c0.5,0.2,0.9,0.4,1.2,0.7C468.1,312.8,468,315,466.4,316.1z M543.5,292c7.4-7.4,13.2-16.3,17-25.9
	c0.5-1.2,0.1-2.5-0.7-3.3c-0.3-0.3-0.7-0.6-1.2-0.7c0,0,0,0-0.1,0c-1.5-0.5-3.2,0.3-3.7,1.8c-3.5,8.9-8.9,17.1-15.7,23.9
	c-25.5,25.5-66,27.7-94.2,5.1c-2-1.6-4-3.4-5.8-5.2c-4.9-4.9-9.1-10.5-12.3-16.5c-0.1-0.1-0.1-0.3-0.2-0.4l-1.9-5l-0.5,0.2
	c-2.5-5.7-4.2-11.8-5.1-18c0-0.1,0-0.2,0-0.3c-0.1-0.7-0.4-1.3-0.9-1.7c-0.5-0.5-1.2-0.8-2-0.9c-2-0.1-3.2-0.2-3.5-0.2
	c-0.1,0-0.1,0-0.2,0l-22.8-2.7c-0.9-0.1-1.9,0.2-2.5,0.9l-13.5,14c-1.1,1.2-1.1,3,0,4.2l11.9,12.7c1.1,1.1,1.1,2.9,0.1,4.1
	l-10.4,11.8c-1.1,1.2-1,3,0.1,4.2l0,0L391,309l0,0c0.9,0.9,1.2,2.4,0.6,3.5l-12.9,25c-0.6,1.2-0.3,2.7,0.6,3.6
	c0.4,0.4,0.9,0.7,1.5,0.8l39.7,8.3c0.7,0.1,1.4,0,2.1-0.3h0c1.7-1,42.9-23.9,54.9-34.4c0.6-0.5,1.1-1,1.6-1.4l-0.2-0.3
	C501.9,316.9,526,309.5,543.5,292z M394.2,272.3c-0.9,0.1-1.8-0.3-2.4-0.9l-0.1-0.1l-9.7-10.3c-1.1-1.2-1.1-3,0-4.2l7.4-7.6
	c0.7-0.7,1.6-1,2.5-0.9l19.2,2.3c0.7,0.1,1.3,0.4,1.8,0.9c0.4,0.4,0.7,1,0.8,1.6c0.8,4,2,8,3.5,11.8c0.6,1.6-0.3,3.5-1.9,4
	c-5.2,1.6-10.6,2.6-16.1,3.1L394.2,272.3z M396.4,305.7l-12.6-12.3l0,0c-1.1-1.1-1.2-3-0.1-4.2l8.5-9.7c0.5-0.6,1.3-1,2.1-1l5.5-0.4
	c6.5-0.5,12.9-1.8,19.1-3.8c1.1-0.4,2.3,0,3.1,0.7c0.2,0.2,0.3,0.4,0.5,0.6c3.4,5.9,7.5,11.4,12.4,16.2l0.2,0.2c0,0,0,0,0,0
	c1.5,1.5,1.1,4-0.8,4.9c-12.4,6.2-28.7,8.8-35.2,9.6C398,306.7,397.1,306.3,396.4,305.7z"/>
<path class="st73" d="M533.1,281.6c-24.2,24.2-63.7,24.2-88-0.1c-8.9-8.9-14.8-20.1-17.2-32.3c0-0.3-0.1-0.5-0.1-0.8
	c0-0.7,0.4-1.4,0.9-1.9c0.6-0.6,1.4-0.9,2.3-0.9c0,0,0,0,0.1,0c0.8,0.1,1.5,0.4,2,0.9c0.4,0.4,0.7,0.9,0.8,1.5
	c2.1,10.9,7.4,21,15.4,29.1c21.9,21.9,57.4,21.9,79.3,0.1c5-5,9-10.9,11.8-17.3c0.2-0.4,0.4-0.7,0.6-0.9c0.7-0.7,1.8-1,2.8-0.8
	c0,0,0,0,0.1,0c0.6,0.1,1.1,0.4,1.5,0.8c0.8,0.8,1.2,2.1,0.6,3.3C543.1,269.5,538.7,276,533.1,281.6z"/>
<path class="st73" d="M587,263.9c0.1-5.3-1.9-10.3-5.7-14c-4.6-4.6-10.5-6.1-15-6.5l-3.3-1.3c0,0,0,0,0,0
	c-1.4-0.5-30.8-11.6-98.7-16.7c7.9-3.8,17.1-7.6,27.8-10.5c17.7-4.8,45.9,4.3,56.1,8.5c3.4,1.8,18.3,9.8,36.2,18.6
	c9.2,4.6,17.6,8.6,25.3,12.2C601.4,257.3,592.7,261.1,587,263.9z M635.8,247.1c-0.4-0.4-0.9-0.7-1.4-0.8c-3.3-0.9-6.4-1.8-8.9-2.9
	c-11-4.9-23-10.7-34-16.1c-19-9.5-34.8-17.9-36.3-18.7c-0.1,0-0.2-0.1-0.2-0.1c-2.5-1.1-40.3-16.8-67.3-9.4
	c-27.9,7.6-46.1,20.2-57,25.3c-8.4,3.9-34.6,12-32.2,14.4c0.7,0.7,3.5,0.9,9.4,0.5c1-0.1,2,0,3.1,0.1c5.3,0.1,10.5,0.2,15.5,0.4
	c0.2,0,0.3,0,0.5,0c92.5,3.1,130.1,17.6,130.1,17.6l5.8,2.3h0c0.5,0,4.9-0.1,6.8,1.8c1.7,1.7,1.4,5.1-5.8,11.6
	c-7.4,6.7-7.8,10-6.2,11.6c1.8,1.8,6.1,1.5,6.1,1.5s16.1-0.1,25.5-5.2c9.4-5.1,34.4-15.6,39.9-15.9c0.1,0,0.1,0,0.2,0
	c2.1-0.3,11.9-3.4,20.1-2.5c0.7,0.1,1.4,0.1,2,0.2L635.8,247.1z"/>
<path class="st73" d="M414.7,603.1c0.8-1.5,1.5-3.1,1.9-4.8l0.2-0.6l0.1-0.4l0.2-0.8l0.4-1.7l0.7-3.3l1.4-6.6l2.8-13.3
	c1.8-8.9,3.6-17.8,5.3-26.7c1.7-8.9,3.2-17.9,4.6-26.9c1.4-9,2.6-18.1,3.2-27.5c0-0.2,0-0.3,0-0.5c2-0.7,4-1.5,5.8-2.4
	c1.4-0.6,2.7-1.3,4-2l2-1.1l2-1.2c0.7-0.4,1.4-0.8,2-1.3l1.9-1.4c1.3-0.9,2.4-2.1,3.6-3.1c0.6-0.5,1.1-1.2,1.7-1.7l1.6-1.8l1.4-2
	c0.5-0.7,1-1.3,1.4-2c3.4-5.5,5.4-11.9,5.7-18.5c0.2-6.5-1.1-13-3.7-18.8c-0.6-1.5-1.4-2.9-2.1-4.3c-0.8-1.4-1.6-2.7-2.5-4
	c-1.7-2.6-3.7-5-5.8-7.3c-0.5-0.5-1-1.1-1.5-1.6c-8.3-8.3-18.7-14.2-29.8-17.5c-11.8-3.5-24.7-4-36.9-0.5c-6.1,1.8-12,4.6-17.1,8.6
	c-5.2,4-9.6,9.2-12.5,15.2c-2.9,6-4.4,12.7-4.3,19.3c0.1,6.6,1.7,13.1,4.4,19c3,6.6,7.3,12.5,12.3,17.6c3.1,3.1,6.6,6,10.3,8.4
	c-0.2,0.3-0.3,0.7-0.6,1l-0.8,1.1l-0.4,0.6l-0.4,0.6c-2.2,3.1-5,6.2-7.7,9.2c-1.4,1.5-2.9,3-4.3,4.5l-4.5,4.4l-4.7,4.7
	c-1.6,1.5-3,3.2-4.6,4.8c-6,6.5-11.7,13.3-16.8,20.6c-2.5,3.7-5,7.4-7.3,11.3l-1.7,3l-1.6,3c-0.5,1-1,2.1-1.5,3.1
	c-0.3,0.5-0.5,1.1-0.7,1.6l-0.4,0.9l-0.1,0.4l-0.1,0.1c-0.1,0.2-0.3,0.5-0.3,0.7c-0.2,0.4-0.4,0.9-0.5,1.3c-0.2,0.4-0.3,0.9-0.4,1.3
	l-0.3,1.3c-0.2,0.9-0.2,1.7-0.3,2.6c0,0.9,0,1.7,0,2.6c0.3,3.4,1.5,6.5,3,9.1c1.5,2.6,3.3,4.7,5.2,6.6c1.9,1.9,4,3.6,6.1,5.1
	c8.3,5.8,17,9.6,25.9,12.8c8.9,3.2,17.9,5.6,27,7.4c2.3,0.5,4.6,0.9,6.9,1.3l0.9,0.1l0.2,0l0.3,0l0.6,0.1c0.8,0.1,1.7,0.1,2.6,0.1
	c1.7,0,3.4-0.3,5.1-0.8c0.8-0.2,1.6-0.6,2.4-0.9c0.8-0.4,1.6-0.7,2.3-1.2c1.5-0.9,2.8-2,4-3.2C412.8,606,413.8,604.6,414.7,603.1z
	 M399.2,599.6c-0.5,0.2-1.1,0.2-1.6,0.2c-0.3,0-0.5,0-0.8-0.1l-0.2,0l-0.1,0l-0.2,0l-0.8-0.1c-2.2-0.4-4.3-0.8-6.5-1.2
	c-8.6-1.7-17-4-25.2-6.9c-4.1-1.5-8-3.1-11.9-4.9l-2.8-1.4c-0.9-0.5-1.8-1-2.7-1.5c-1.9-1-3.5-2.1-5.2-3.2c-1.6-1.2-3.1-2.4-4.4-3.7
	c-1.2-1.2-2.3-2.5-3-3.8c-0.7-1.3-1.2-2.5-1.3-3.6c0-0.3,0-0.5,0-0.8c0.1-0.2,0-0.5,0.1-0.7c0-0.1,0-0.2,0.1-0.3
	c0-0.1,0.1-0.2,0.1-0.3c0-0.1,0.1-0.2,0.1-0.2c0,0,0,0,0,0v0c0,0-0.1,0.1-0.1,0.2l0.7-1.4l0.2-0.5l0.3-0.6c0.2-0.4,0.4-0.9,0.6-1.3
	c0.4-0.9,0.9-1.8,1.3-2.7l1.4-2.7l1.5-2.6c2.1-3.5,4.3-7,6.7-10.3c4.8-6.7,10-13.2,15.7-19.3c1.4-1.5,2.8-3.1,4.3-4.5l4.4-4.4
	l4.7-4.6c1.5-1.6,3.1-3.2,4.6-4.8c3-3.3,6-6.6,8.8-10.5c1.4-1.9,2.8-4,4-6.6l0.4-1.1l0.2-0.5c0.1-0.2,0.1-0.4,0.2-0.6
	c0.1-0.5,0.3-0.9,0.4-1.4c0.1-0.2,0.1-0.5,0.2-0.7c0-0.3,0.1-0.6,0.1-1c0.1-1.2,0.1-2.9-0.8-4.9c-0.3-0.5-0.5-1-0.9-1.5
	c-0.3-0.4-0.6-0.7-0.9-1c-0.1-0.1-0.3-0.3-0.4-0.4c-0.5-0.4-1-0.8-1.6-1.1c-0.2-0.1-0.3-0.2-0.5-0.2c-4-2.4-7.6-5.2-10.9-8.4
	c-3.8-3.8-7-8.2-9.3-12.9c-2.1-4.5-3.3-9.3-3.5-14c-0.2-4.8,0.8-9.5,2.8-13.8c4-8.6,12.4-15.1,22-18c9.7-3,20.5-2.8,30.6,0
	c9.8,2.7,19,7.9,26.2,15c0.2,0.2,0.4,0.4,0.7,0.7c1.8,1.9,3.4,3.9,4.9,6c0.8,1,1.4,2.1,2.1,3.2c0.6,1.1,1.2,2.2,1.7,3.4
	c2.1,4.6,3.2,9.5,3.1,14.4c-0.1,4.9-1.5,9.7-4,13.9c-0.3,0.6-0.7,1-1,1.6l-1.1,1.5l-1.2,1.4c-0.4,0.5-0.8,1-1.3,1.4l-1.4,1.3
	c-0.4,0.5-0.9,0.8-1.4,1.2l-1.5,1.2c-0.5,0.4-1.1,0.7-1.6,1l-1.6,1l-1.8,1c-1.2,0.7-2.4,1.3-3.6,1.9c-2.4,1.2-4.8,2.2-7.2,2.9
	c-4.8,1.5-10.4,1.9-16.1,2.6l0,0c-2.3,0.3-3.9,2.3-3.7,4.6c0.1,1,0.5,1.9,1.2,2.6c0.9,0.9,2.1,1.3,3.4,1.2c2.3-0.2,4.6-0.4,7-0.7
	c-0.6,7.6-1.7,15.4-2.9,23.2c-1.4,8.8-2.9,17.6-4.6,26.4c-1.7,8.8-3.4,17.6-5.2,26.4l-2.8,13.2l-1.4,6.6l-0.7,3.3l-0.5,2.5l-0.1,0.4
	c0,0.1-0.1,0.2-0.1,0.2C403.1,597.2,401.3,599,399.2,599.6z"/>
<path class="st73" d="M377.5,711.7c-5.9-0.3-12.8-1.1-20.3-2.9c-12.9-2.9-27.4-8.6-41.2-19l-1.8-1.3c-4.8-3.6-10.7-8-15.8-13.2
	c-6.3-6.3-11.6-13.8-12.4-22.2c-0.5-5,0.6-9.4,2.2-13.3c0.8-2,1.7-3.9,2.6-5.7c0.6-1.3,1.2-2.5,1.8-3.7c1.6-3.6,3.1-7.4,4.5-11.1
	c1-2.6,2-5.2,3.1-7.8l10.3-25c1.4-3.4,5.3-5,8.7-3.6c0.8,0.3,1.6,0.8,2.2,1.4c1.9,1.9,2.5,4.7,1.4,7.3l-10.3,25c-1,2.5-2,5-3,7.5
	c-1.5,3.8-3,7.7-4.7,11.6c-0.6,1.5-1.3,2.8-2,4.2c-1.9,3.9-3.6,7.4-3.6,10.8c0,0.3,0,0.6,0,1c0.5,4.7,4.1,9.6,8.6,14
	c4.6,4.6,10.3,8.9,14.4,12l1.8,1.4c3.4,2.5,6.8,4.8,10.2,6.7c16,9,32.3,11.8,43.9,12.5c3.5,0.2,6.5-2.4,6.9-5.8l8.3-70
	c0.4-3.7,3.8-6.3,7.4-5.8c1.5,0.2,2.9,0.9,3.9,1.9c1.4,1.4,2.2,3.4,1.9,5.5l-8.3,70C397.1,704.6,388,712.3,377.5,711.7z"/>
<g>
	<g>
		
			<linearGradient id="SVGID_74_" gradientUnits="userSpaceOnUse" x1="115.2522" y1="250.5097" x2="115.2522" y2="362.6556" gradientTransform="matrix(0 1 -1 0 801.3597 6.0268)">
			<stop  offset="0" style="stop-color:#686868"/>
			<stop  offset="0.867" style="stop-color:#444242"/>
		</linearGradient>
		<path class="st74" d="M440.1,88.4c0,1.4-0.2,2.7-0.5,4.1c-3.8,16.9,5.7,29.9,12.4,36.6c4.5,4.5,25,14,37.8,19.6
			c0.3,0.1,0.6,0.3,0.8,0.5c1.4,1.4,0.5,4-1.7,4c-6-0.1-11.4-0.3-16.3-0.6c10.3,3.8,19.4,6.8,24.2,8.4c6.9-0.2,14.3,0.1,22.1,1.1
			h32.1l-0.1-0.1c-10.2-3.6-22.3-7.5-28.9-8.5c-1.4-0.2-3.3-0.7-5.4-1.3c-16.1-4.9-49.2-20.9-59-30.8c-0.5-0.5-1-1-1.3-1.5
			c-6.9-8.6-11.3-17.1-5.7-27.4c1.4-2.7,3.5-5.5,6.4-8.5c2.9-3,7.8-3.2,13.7-1.7c0,0,0.1,0,0.1,0c0.4,0.3,0.8,0.7,1.2,1l-2.3-2.3
			L439,80.4C439.8,82.9,440.2,85.6,440.1,88.4z"/>
		
			<linearGradient id="SVGID_75_" gradientUnits="userSpaceOnUse" x1="106.6807" y1="304.0493" x2="106.6807" y2="339.1781" gradientTransform="matrix(0 1 -1 0 801.3597 6.0268)">
			<stop  offset="0" style="stop-color:#686868"/>
			<stop  offset="0.867" style="stop-color:#444242"/>
		</linearGradient>
		<path class="st75" d="M463,99.3c-1.1,2.1-2,3.8,4.3,11.6c0,0,0.1,0.1,0.3,0.3c4.4,4.4,17.1,11.6,29.7,17.6l-31.4-31.4
			c-0.3-0.3-0.7-0.7-1-1C464.1,97.5,463.5,98.5,463,99.3z"/>
	</g>
	<g>
		<path class="st73" d="M467.6,111.3c-0.2-0.2-0.3-0.3-0.3-0.3c-6.3-7.9-5.4-9.6-4.3-11.6c0.5-0.9,1.1-1.8,1.9-2.8
			c0.4,0.3,0.7,0.7,1,1l31.4,31.4C484.6,122.9,472,115.7,467.6,111.3z M476.1,87.4c-1.8-1.8-3.6-3.4-5.5-5c0,0-0.1,0-0.1,0
			c-5.9-1.5-10.8-1.3-13.7,1.7c-2.9,3-5,5.8-6.4,8.5c-5.6,10.4-1.2,18.8,5.7,27.4c0.4,0.5,0.8,1,1.3,1.5c9.9,9.9,42.9,25.8,59,30.8
			c2.2,0.7,4,1.1,5.4,1.3c6.6,1,18.7,5,28.9,8.5L476.1,87.4z"/>
	</g>
</g>
<path class="st73" d="M403.6,184.9c-16.3-3.6-29.7-11.1-42.7-18.4c-2.1-1.2-4.1-2.3-6.1-3.4c-11.5-6.3-20-12.3-25.4-17.6
	c-1.2-1.2-2.2-2.3-3-3.4c-1.2-1.6-1.7-2.6-1.8-3.1c0.2-0.3,0.5-0.7,0.9-1.1c0.9-0.9,1.7-1.6,2.5-2.2c1.4-0.9,3.1-2.1,8.7,0.6
	c5.6,2.7,11.9,7.9,16.1,11.6c24.7,21.4,50.9,33.5,80.1,36.9c7.3,0.8,14.9-0.2,23.4-1.7C436.8,187.8,419.5,188.4,403.6,184.9z
	 M568.1,179.4c-12.8-6.5-26.8-12.5-39.9-15.5c-2.5-0.6-5-1.1-7.5-1.4c-39.9-5.8-68.8,8.1-85.9,6.1c-16.6-1.9-42.1-7.7-71.2-33
	c-6.7-5.9-13.3-10.9-19.8-14c-8.6-4.2-17-4.9-25,0.5c-1.7,1.2-3.4,2.6-5.1,4.3c-1.2,1.2-2.2,2.5-3,3.7c-4.5,7.1-2.9,14.5,2.6,21.8
	c1.3,1.7,2.8,3.4,4.5,5.1c7,7,17.3,13.9,29.1,20.4c29,16,60.7,37.8,124.1,18.6c26.5-10.2,58.1-7.1,97.2,7.9
	c14,5.4,29,12.3,45.1,20.7L568.1,179.4z"/>
<path class="st73" d="M307.5,358.4c-9.9,6-27.4,10.1-49.3,11.5c-21.8,1.4-42.3-0.2-54.3-2.1c-18.8-3-61.4-5.9-101.7,1.9
	c2-2.8,4.2-5.4,6.7-7.8l8.1-8.1c1.3-1.3,2.6-2.4,4-3.5c0,0,0,0,0.1-0.1c6.7-5.1,15.2-8,25.4-8.5c9.4-0.5,20.4,1.1,31.7,4.7
	c47,14.7,91.8,17.6,134.1,8.9C310.4,356.4,308.9,357.5,307.5,358.4z M370.9,317.1c0.9-1.5,0.5-3-0.5-4c-0.9-0.9-2.4-1.3-3.8-0.6
	c-57.6,30.9-120.2,32.7-182.3,13.3c-12.6-3.9-26.1-6.3-39.2-5.6c-13.4,0.7-26.3,4.5-37.3,12.8c-2.1,1.6-4.2,3.4-6.2,5.4
	c0,0-8.1,8.1-8.1,8.1c-10.6,10.6-17.9,23.3-21.8,36.9c-0.3,1.1-0.4,2.2-0.4,3.3c0,0,0,0,0,0c0,0,0,0,0,0l0,0
	c0.1,2.8,1.4,5.5,3.3,7.4c2.4,2.4,5.8,3.6,9.4,2.4c2.6-0.9,5.3-1.7,8-2.5c38.6-10.7,86.9-8.6,108.5-5.1
	c29.4,4.7,88.8,5.5,118.2-12.2C339.7,364.1,360.7,333.4,370.9,317.1z"/>
<path class="st73" d="M384.5,367.7L384.5,367.7"/>
<path class="st73" d="M145.9,458.5c-6.6,4.8-12.8,9.4-17.5,11.8c-0.6,0.3-1.1,0.5-1.5,0.7c-0.4-0.4-0.8-0.7-1.3-1.1
	c-2.6-2.3-5.1-4.7-7.6-7.2c-2.5-2.5-4.8-5-7-7.5c-0.1-0.1-0.2-0.2-0.3-0.3c-4.5-5.1-8.3-10-11.2-14.6c-0.1-0.1-0.2-0.3-0.3-0.4
	c0,0,0-0.1-0.1-0.1c-2.5-3.9-3.8-6.8-4.5-8.7c0.8-0.4,1.9-0.8,3.1-1.2c0,0,0,0,0.1,0c18.6-6.1,52.6-5.1,72.9-4.4
	c3.5,0.1,6.8,0.2,9.6,0.3c8.5,0.2,16.9,0.7,25.6,1.4C181.1,432.4,161.4,447,145.9,458.5z M353.8,390.4c9.4-11.4,15.2-22.6,18.2-37.2
	c0.1-0.7-0.1-1.3-0.5-1.7c-0.7-0.7-1.9-0.9-2.7,0c-20.3,19.6-41.2,44.3-68.8,51.1c-42,10.4-79.9,1.4-119.2,0.7
	c-20.2-0.4-64.2-3.2-90,5.3c-7.4,2.4-13.3,5.8-16.7,10.4c-2.3,3.1-3.1,6.8-2.7,11c0,0,0,0,0,0c0,0,0,0,0,0
	c0.6,6.5,3.9,14.1,8.8,21.9c0,0,0,0.1,0.1,0.1c0,0,0,0,0,0c0,0,0,0,0,0c0,0.1,0.1,0.1,0.1,0.2c3.8,6,8.6,12.1,13.7,17.9l0.1,0.1
	c2.6,2.9,5.2,5.7,8,8.4c2.8,2.8,5.7,5.5,8.5,8.1c1.1,1,2.3,2,3.4,2.9c7.5,6.4,15.6,5.3,24.7,0.7c22.9-11.7,51.8-46.5,93.2-42.2
	c16.2,1.7,33.3,3.7,49.4-0.1c15.4-3.7,28.1-13.3,39.6-23.8C332.5,413.7,343.7,402.5,353.8,390.4z"/>
<path class="st73" d="M254.2,510.1c-11.9,6-24.9,10.3-34.8,11.5l-1.9,0.2c-7.3,0.9-14.9,1.9-22,1.9c-8.8,0-14.9-1.4-18.1-4.3
	c-0.1-0.1-0.2-0.2-0.4-0.3c-0.6-0.6-2.3-2.5-1.7-4.7c0.1-0.2,0.1-0.4,0.2-0.6c0,0,0,0,0-0.1c0.9-2.3,2.8-5,5.7-8.1
	c9-9.6,21.2-16.2,34.5-18.7c7.8-1.5,16.5-0.5,26.6,0.7c7.7,0.9,15.7,1.8,24.4,1.8c5.9,0,11.4-0.5,16.6-1.3c-0.4,0.5-0.8,1-1.1,1.4
	C276.8,496.4,266.5,503.9,254.2,510.1z M300.6,504.4c23.4-29.3,25.8-45.8,31.8-59.6c0.6-1.4,0.2-2.7-0.6-3.5c-1-1-2.8-1.4-4.2-0.2
	c-12.6,10.5-31.4,24.7-61.1,24.9c-18.6,0.1-36.7-5.6-55.2-2.1c-17.9,3.4-34.8,12.4-47.3,25.8c-4.3,4.6-8.2,9.8-10.4,15.6
	c-0.3,0.7-0.5,1.5-0.8,2.2c-3.1,10.2,0.1,20.8,7.5,28.3c0.4,0.4,0.9,0.9,1.4,1.3c9.1,8.1,21.4,10.3,33.9,10.2
	c9.2,0,18.5-1.3,26.7-2.3C247.5,541.9,284.3,524.8,300.6,504.4z"/>
<path class="st73" d="M259.7,595.4c-4-1.1-8.1-3.1-11.8-5.6c-1.9-1.3-3.6-2.7-5.1-4.2c-1.4-1.4-2.6-2.8-3.6-4.3
	c-0.3-0.4-0.5-0.8-0.7-1.2c3.7-1.5,9.3-3.1,12.7-4c4.1-1.1,8.4-2.3,12.4-3.8c4.5-1.7,8.9-3.5,13-5.3c0,0,0,0.1,0,0.1
	c-3.6,8.5-7,16.5-10.7,24.1c-1.4,2.9-2.5,4.3-3,4.8C262.3,595.9,261.2,595.9,259.7,595.4z M288,601.9c10.4-21.3,18.2-44.7,30.4-65.5
	c6.1-10.4,13.4-20.5,22.7-28.4c3.7-3.2,8.2-6.1,11.2-10.1c1.8-2.5,3-5.7,2.4-8.8c-0.2-1-0.6-2-1-2.9c-1.4-2.9-3.5-5.6-4.4-8.7
	c-1.3-4.5-1-9.4-3.3-13.6c-0.8-1.5-1.4-2.5-1.9-3c-1.2-1.2-1.8,0.2-3.5,3.1c-2.1,3.7-3.4,8.2-5.2,12.2c-7.6,16.1-17.5,31.6-30.5,44
	c-14,13.3-31.9,22.4-49.9,29.2c-11.5,4.3-31.6,6.7-39.4,18.1c-1.3,1.8-2.2,3.9-2.7,6.3c-1,4.8,0.2,9.7,2.1,14.2
	c1.1,2.5,2.4,4.8,3.9,7.1c1.9,2.9,4.2,5.6,6.6,8.1c2.6,2.6,5.4,5,8.5,7.1c5.9,4.1,12.6,7.3,19.2,9.1c4.9,1.4,10.2,1.8,15.1,0.8
	c2.1-0.4,4.2-1.1,6.1-2.2C280.6,614.5,284.9,608.3,288,601.9z"/>
<g>
	<path class="st73" d="M538.4,690.2L538.4,690.2"/>
	<path class="st73" d="M530.9,675.6l-54.1,54.1c-23.5,23.5-57.3,30.6-87.2,21.5c-0.7-0.2-1.2-0.5-1.6-1c-2.1-2.1-0.9-6.4,2.7-6.6
		c7.3-0.3,14.4-2.8,20.4-9.2c0.7-0.8,1.8-1.2,2.9-1.1c-0.6,0-1.2,0-1.8-0.1c0.3-0.4,0.6-0.8,0.9-1.2c0.1-0.2,0.3-0.4,0.4-0.6
		c0.7-1.2,3.2-5.8,4.6-14.2c1.3-7.5,0.1-50.4,2-73.5c0.4-4.4,5.7-6.3,8.8-3.2c0.1,0.1,0.2,0.2,0.3,0.3c5.3,6.1,11.8,13.2,18.7,20.1
		c10.7,10.7,22.4,20.9,32.2,25.8c5,2.6,10.6,3.2,16.4,2.6l-2.4-0.5c0.6-0.6,2.8,0.5,3.7,0.4C511.5,687.3,530.8,675.4,530.9,675.6
		C530.9,675.5,530.9,675.6,530.9,675.6z"/>
</g>
<path class="st73" d="M576.5,486.5c-5.8,3.6-10.9-2.5-10.9-2.5l-13.4-17.7c14.5,10.9,28.8,12.8,28.8,12.8S582.3,482.9,576.5,486.5z
	 M578.9,581.1c7.2-7.2,2.4-7.7,1.2-10.6c0,0,7.4-4,8.5-5.3c1.1-1.3-3.2-12.6-0.5-17.4c0,0,6.2-0.7,12.4-3.9c6.2-3.3,11.6-0.4,9-12.7
	c-2.6-12.3-15.1-30.6-13.9-42.7c0,0,4.8-10.9,8.4-14.9c3.6-4-3.5-26.3-3.5-26.3l-5.6-21.2c0,0,35.9,3.3,58.4-8.3
	c22.8-1.4,62,5.1,88.3,48.1c0,0-14.9-37.4-58.4-50.4c-43.5-13.1-138.5-6.7-138.5-6.7s-27.2,1.1-50.7,25.3l-10.1,10.9
	c0,0-2.9,27.5-22.4,42s-20.5,23.9-20.5,23.9l-3.2,15.9c-0.7,3.3-0.4,6.7,0.7,9.8c4.8,13.1,20.6,50.1,57.2,89.7
	c0,0,23.5-15.6,48.6-6.5s26.8-13.7,27.5-21C572.4,591.5,571.7,588.3,578.9,581.1z"/>
<path class="st73" d="M567.5,640.2c-16.4,14-39.9,17.1-56,15.4c-16.2-1.7-34.6-25.2-34.6-25.2l-46.6-52.7c0.6-5.7,1.2-11.2,1.8-16.5
	l3.9,5.9c0,0,50.6,68.4,70.6,81.3C526.7,661.2,567.5,640.2,567.5,640.2z"/>
<path class="st73" d="M555.2,652.5c0,0-43.6,41.9-70.8,28.1c-19.7-10-44.9-38.8-57.4-54l0,0c0.5-13.9,1.3-27.3,2.4-40
	c14.2,16.4,54.2,61.9,68,71.2C514.3,669.2,555.2,652.5,555.2,652.5z"/>
<path class="st76" d="M399.3,599.4c-0.5,0.2-1,0.2-1.6,0.2c-0.3,0-0.5,0-0.8-0.1l-0.2,0l-0.1,0l-0.2,0l-0.8-0.1
	c-2.1-0.4-4.2-0.8-6.3-1.2c-8.3-1.7-16.6-3.9-24.5-6.8c-4-1.4-7.8-3-11.6-4.9l-2.8-1.4c-0.9-0.5-1.8-1-2.6-1.5c-1.8-1-3.4-2.1-5-3.2
	c-1.6-1.2-3-2.4-4.3-3.7c-1.2-1.2-2.2-2.5-3-3.8c-0.7-1.3-1.1-2.5-1.2-3.6c0-0.3,0-0.5,0-0.8c0.1-0.2,0-0.5,0.1-0.7
	c0-0.1,0-0.2,0.1-0.3c0-0.1,0.1-0.2,0.1-0.3c0-0.1,0.1-0.2,0.1-0.2c0,0,0,0,0,0v0c0,0-0.1,0.1-0.1,0.2l0.7-1.4l0.2-0.5l0.3-0.6
	c0.2-0.4,0.4-0.9,0.6-1.3c0.4-0.9,0.8-1.8,1.3-2.7l1.4-2.7l1.5-2.6c2-3.5,4.2-6.9,6.5-10.3c4.6-6.7,9.8-13.2,15.3-19.2
	c1.4-1.5,2.8-3,4.2-4.5l4.3-4.4l4.6-4.6c1.5-1.6,3-3.2,4.5-4.8c3-3.3,5.9-6.6,8.6-10.5c1.4-1.9,2.7-4,3.9-6.6l0.4-1.1l0.2-0.5
	c0.1-0.2,0.1-0.4,0.2-0.6c0.1-0.5,0.2-0.9,0.4-1.4c0-0.2,0.1-0.5,0.2-0.7c0-0.3,0.1-0.6,0.1-1c0.1-1.1,0.1-2.9-0.8-4.9
	c-0.2-0.5-0.5-1-0.8-1.5c-0.3-0.4-0.6-0.7-0.9-1c-0.1-0.1-0.3-0.3-0.4-0.4c-0.5-0.4-1-0.8-1.6-1.1c-0.1-0.1-0.3-0.2-0.5-0.2
	c-3.8-2.3-7.4-5.2-10.6-8.4c-3.7-3.8-6.8-8.1-9-12.9c-2.1-4.4-3.2-9.2-3.4-14c-0.2-4.7,0.8-9.5,2.7-13.8c3.9-8.6,12.1-15,21.5-17.9
	c9.5-3,20-2.9,29.8-0.1c9.5,2.7,18.5,7.8,25.5,14.9c0.2,0.2,0.4,0.4,0.6,0.7c1.7,1.9,3.3,3.9,4.8,6c0.7,1,1.4,2.1,2,3.2
	c0.6,1.1,1.2,2.2,1.7,3.4c2,4.6,3.1,9.5,3,14.4c-0.1,4.9-1.5,9.7-3.9,13.9c-0.3,0.6-0.6,1-1,1.5l-1,1.5l-1.2,1.4
	c-0.4,0.5-0.8,1-1.2,1.4l-1.3,1.3c-0.4,0.5-0.9,0.8-1.4,1.2l-1.5,1.2c-0.5,0.4-1,0.7-1.6,1l-1.6,1l-1.7,1c-1.2,0.7-2.4,1.3-3.5,1.9
	c-2.4,1.2-4.7,2.2-7.1,2.9c-4.7,1.4-10.2,1.9-15.7,2.6l0,0c-2.2,0.3-3.8,2.3-3.6,4.6c0.1,1,0.5,1.9,1.2,2.6c0.8,0.9,2,1.3,3.3,1.2
	c2.2-0.2,4.5-0.4,6.8-0.7c-0.6,7.6-1.7,15.4-2.8,23.1c-1.3,8.8-2.9,17.6-4.5,26.4c-1.6,8.8-3.3,17.6-5.1,26.3l-2.7,13.1l-1.4,6.6
	l-0.7,3.3l-0.5,2.4l-0.1,0.4c0,0.1,0,0.2-0.1,0.2C403.1,597,401.4,598.8,399.3,599.4z"/>
<path class="st73" d="M422.9,463.7c-5.5,1.8-11.8,1.6-17.9-0.7c-3.9-1.5-7.4-3.7-10.2-6.5c-5.7-5.7-7.8-12.9-5.5-18.9
	c1.6-4.4,5.4-7.8,10.6-9.5c5.5-1.8,11.9-1.6,17.9,0.7c3.9,1.5,7.5,3.7,10.3,6.5c1.5,1.5,2.7,3.1,3.7,4.7c2.8,4.8,3.4,9.7,1.8,14.2
	c-0.7,1.9-1.9,3.7-3.4,5.2C428.2,461.3,425.8,462.7,422.9,463.7z M441.2,457.1c2.5-6.8,1.7-14.3-2.4-21.2c-1.4-2.3-3-4.5-5-6.4
	c-3.6-3.6-8.1-6.5-13.2-8.4c-7.8-2.9-16.1-3.2-23.4-0.8c-7.6,2.5-13.1,7.6-15.7,14.4c-3.5,9.4-0.3,19.9,7.4,27.6
	c3.5,3.5,8,6.4,13.1,8.4c7.8,2.9,16.1,3.2,23.4,0.8c4.1-1.4,7.7-3.5,10.4-6.3C438.2,462.9,440,460.1,441.2,457.1z"/>
<g>
	<g>
		<path class="st73" d="M408.3,514.8L408.3,514.8L408.3,514.8L408.3,514.8L408.3,514.8"/>
		<path class="st73" d="M371,559.3c1.6-2.6,3.4-5.3,5.2-7.9c0.9-1.3,1.9-2.6,2.8-3.9c1-1.3,1.9-2.5,2.9-3.8l-1.5,9.7l-1.5,9.7
			c-1.6-0.7-3.1-1.3-4.5-2S372.1,559.9,371,559.3z M393.6,577l10.5-70.3c0.2-1.5-0.3-2.8-1.2-3.6c-1.5-1.5-4.1-1.9-6-0.1l-1.8,1.8
			c0,0-28.7,27.4-42,52.8c-1.9,3.5-1.1,7.8,1.6,10.5c0.3,0.3,0.6,0.5,0.9,0.8c5.1,4,14.4,9.5,29.7,13.7
			C389.2,583.5,393,581,393.6,577z"/>
	</g>
</g>
</svg>
