<?xml version="1.0" encoding="utf-8"?>
<!-- Generator: Adobe Illustrator 21.0.0, SVG Export Plug-In . SVG Version: 6.00 Build 0)  -->
<svg version="1.1" id="Capa_1" xmlns="http://www.w3.org/2000/svg" xmlns:xlink="http://www.w3.org/1999/xlink" x="0px" y="0px"
	 viewBox="0 0 776 813.1" style="enable-background:new 0 0 776 813.1;" xml:space="preserve">
<style type="text/css">
	.st0{fill:url(#SVGID_1_);}
	.st1{fill:url(#SVGID_2_);}
	.st2{fill:url(#SVGID_3_);}
	.st3{fill:url(#SVGID_4_);}
	.st4{fill:url(#SVGID_5_);}
	.st5{fill:url(#SVGID_6_);}
	.st6{fill:url(#SVGID_7_);}
	.st7{fill:url(#SVGID_8_);}
	.st8{fill:url(#SVGID_9_);}
	.st9{fill:url(#SVGID_10_);}
	.st10{fill:url(#SVGID_11_);}
	.st11{fill:url(#SVGID_12_);}
	.st12{fill:url(#SVGID_13_);}
	.st13{fill:url(#SVGID_14_);}
	.st14{fill:url(#SVGID_15_);}
	.st15{fill:url(#SVGID_16_);}
	.st16{fill:url(#SVGID_17_);}
	.st17{fill:url(#SVGID_18_);}
	.st18{fill:url(#SVGID_19_);}
	.st19{fill:url(#SVGID_20_);}
	.st20{fill:url(#SVGID_21_);}
	.st21{fill:url(#SVGID_22_);}
	.st22{fill:url(#SVGID_23_);}
	.st23{fill:url(#SVGID_24_);}
	.st24{fill:url(#SVGID_25_);}
	.st25{fill:url(#SVGID_26_);}
	.st26{fill:url(#SVGID_27_);}
	.st27{fill:url(#SVGID_28_);}
	.st28{fill:url(#SVGID_29_);}
	.st29{fill:url(#SVGID_30_);}
	.st30{fill:url(#SVGID_31_);}
	.st31{fill:url(#SVGID_32_);}
	.st32{fill:url(#SVGID_33_);}
	.st33{fill:url(#SVGID_34_);}
	.st34{fill:url(#SVGID_35_);}
	.st35{fill:url(#SVGID_36_);}
	.st36{fill:url(#SVGID_37_);}
	.st37{fill:url(#SVGID_38_);}
	.st38{fill:url(#SVGID_39_);}
	.st39{fill:url(#SVGID_40_);}
	.st40{fill:url(#SVGID_41_);}
	.st41{fill:url(#SVGID_42_);}
	.st42{fill:url(#SVGID_43_);}
	.st43{fill:url(#SVGID_44_);}
	.st44{fill:url(#SVGID_45_);}
	.st45{fill:url(#SVGID_46_);}
	.st46{fill:url(#SVGID_47_);}
	.st47{fill:url(#SVGID_48_);}
	.st48{fill:url(#SVGID_49_);}
	.st49{fill:url(#SVGID_50_);}
	.st50{fill:url(#SVGID_51_);}
	.st51{fill:url(#SVGID_52_);}
	.st52{fill:url(#SVGID_53_);}
	.st53{fill:url(#SVGID_54_);}
	.st54{fill:url(#SVGID_55_);}
	.st55{fill:url(#SVGID_56_);}
	.st56{fill:url(#SVGID_57_);}
	.st57{fill:url(#SVGID_58_);}
	.st58{fill:url(#SVGID_59_);}
	.st59{fill:url(#SVGID_60_);}
	.st60{fill:url(#SVGID_61_);}
	.st61{fill:url(#SVGID_62_);}
	.st62{fill:url(#SVGID_63_);}
	.st63{fill:url(#SVGID_64_);}
	.st64{fill:url(#SVGID_65_);}
	.st65{fill:url(#SVGID_66_);}
	.st66{fill:url(#SVGID_67_);}
	.st67{fill:url(#SVGID_68_);}
	.st68{fill:url(#SVGID_69_);}
	.st69{fill:url(#SVGID_70_);}
	.st70{fill:url(#SVGID_71_);}
	.st71{fill:url(#SVGID_72_);}
	.st72{fill:url(#SVGID_73_);}
	.st73{fill:#FFFFFF;stroke:#211915;stroke-miterlimit:10;}
	.st74{fill:url(#SVGID_74_);}
	.st75{fill:url(#SVGID_75_);}
	.st76{fill:#FCFCFC;stroke:#221A16;stroke-miterlimit:10;}
</style>
<linearGradient id="SVGID_1_" gradientUnits="userSpaceOnUse" x1="275.5816" y1="373.1703" x2="275.5816" y2="469.3023">
	<stop  offset="0" style="stop-color:#686868"/>
	<stop  offset="0.867" style="stop-color:#000000"/>
</linearGradient>
<path class="st0" d="M222.2,435.6c-0.1-3.9-0.6-7.8-1.3-11.6c-0.2-1-0.3-1.9,0.1-2.2c0.4-0.4,1.6,0.2,4.1,3.1
	c7.9,9.2,14.5,24.2,18.5,44.4l9.9-12.2c-2.4-14.1-4.7-25.8-4.6-26.9c0.2-1.5,0.9-2.8,2.3-4.3c0.1-0.1,0.2-0.2,0.3-0.3
	c2.5-2.5,6.7-2.4,9,0.3c10,11.5,18.3,22.9,25.2,34.3l14-17.7c-2-4.3-4.1-8.6-6.4-12.9c-0.8-1.5-0.4-3.1,0.6-4c1-1,2.7-1.4,4.2-0.5
	c8.4,5.3,20.5,13.3,32.2,22.7l3.6-17.2l-0.1-4c-0.2-0.4-0.1-0.9,0-1.3l-0.9-52.2l-8.7,41.6c-0.1,0.6-0.4,1.2-0.9,1.6
	c-0.9,0.9-2.4,1.3-3.7,0.6l-26.3-13.6c-1.2-0.6-2.7-0.4-3.7,0.6l0,0l-16.1,16.5l0,0c-1.2,1.2-3.1,1.3-4.4,0.1l-12.4-10.9
	c-1.2-1.1-3.1-1.1-4.3,0.1l-13.3,12.6c-1.3,1.2-3.2,1.2-4.4,0l-14.8-14.3c-0.1-0.1-0.2-0.3-0.4-0.4l-1.9,52.6l2.6,2.4
	C221.5,451.8,222.2,442.3,222.2,435.6z"/>
<linearGradient id="SVGID_2_" gradientUnits="userSpaceOnUse" x1="435.8965" y1="598.8627" x2="435.8965" y2="702.7507">
	<stop  offset="0" style="stop-color:#686868"/>
	<stop  offset="0.867" style="stop-color:#000000"/>
</linearGradient>
<path class="st1" d="M443.5,698.9c2.6-2.3,5.3-4.8,7.9-7.4c2.6-2.6,5.1-5.3,7.5-8c0.4-0.5,0.8-0.9,1.2-1.4c-0.2-0.4-0.4-1-0.7-1.6
	c-2.6-5-7.4-11.5-12.5-18.4c-12.1-16.4-27.4-37.2-32.9-63.3c-0.7,9.2-1.3,18-1.5,27c-0.1,3-0.2,6.5-0.3,10.1c-0.2,5-0.3,10.8-0.4,17
	c5.4,14.7,15,36.8,27.2,49.8c1.4-1.1,2.8-2.3,4.2-3.6C443.3,699.1,443.4,699,443.5,698.9z"/>
<g>
	<linearGradient id="SVGID_3_" gradientUnits="userSpaceOnUse" x1="476.0914" y1="382.2494" x2="476.0914" y2="382.3617">
		<stop  offset="0" style="stop-color:#686868"/>
		<stop  offset="0.867" style="stop-color:#000000"/>
	</linearGradient>
	<path class="st2" d="M476,382.2c0,0,0.1,0.1,0.1,0.1C476.1,382.3,476.1,382.3,476,382.2z"/>
	<linearGradient id="SVGID_4_" gradientUnits="userSpaceOnUse" x1="493.862" y1="332.5505" x2="493.862" y2="465.5222">
		<stop  offset="0" style="stop-color:#686868"/>
		<stop  offset="0.867" style="stop-color:#000000"/>
	</linearGradient>
	<path class="st3" d="M561.1,465.1c0.1,0,0.1,0.1,0.3,0.1c0.1,0,0.2,0.1,0.3,0.1c0.1,0,0.2,0,0.4,0.1c0.2,0.1,0.5,0,0.8,0.1
		c0.3,0,0.5,0,0.8,0c1.1-0.1,2.4-0.6,3.8-1.3c1.3-0.8,2.7-1.9,4-3.2c1.4-1.4,2.7-3,3.9-4.7c1.2-1.8,2.4-3.5,3.4-5.4
		c0.5-1,1.1-1.9,1.6-2.9l1.5-3c1.9-4,3.6-8.2,5.2-12.5c3.1-8.6,5.4-17.5,7.2-26.5c0.4-2.3,0.9-4.5,1.2-6.8l0.1-0.9l0-0.2l0-0.1
		l0-0.2c0.1-0.3,0-0.6,0.1-0.9c0-0.6-0.1-1.1-0.3-1.7c-0.6-2.2-2.5-4.1-4.8-4.6c-0.1,0-0.1,0-0.2-0.1l-0.4-0.1l-2.6-0.6l-3.5-0.8
		l-6.9-1.5l-13.9-2.9c-9.3-1.9-18.6-3.8-27.8-5.5c-9.3-1.7-18.6-3.4-27.9-4.8c-8.2-1.3-16.4-2.4-24.5-3c0.3,2.5,0.5,4.9,0.7,7.4
		c0.1,1.4-0.4,2.7-1.3,3.6c-0.7,0.7-1.7,1.2-2.7,1.3c-1.2,0.1-2.3-0.3-3.2-1c0.9,0.8,2.1,1.2,3.3,1.1c1.1-0.1,2-0.6,2.7-1.2
		c0.9-0.9,1.4-2.1,1.3-3.5c-0.2-2.4-0.4-4.7-0.7-7.2c8,0.6,16.2,1.7,24.4,3c9.3,1.4,18.5,3,27.8,4.7c9.3,1.7,18.5,3.5,27.7,5.4
		l13.8,2.9l6.9,1.5l3.5,0.7l2.6,0.6l0.4,0.1c0.1,0,0.2,0.1,0.2,0.1c2.3,0.5,4.1,2.3,4.7,4.5c0.2,0.5,0.2,1.1,0.3,1.7
		c0,0.3,0,0.6-0.1,0.8l0,0.2l0,0.1l0,0.2l-0.1,0.8c-0.4,2.2-0.8,4.4-1.2,6.6c-1.8,8.8-4.1,17.5-7.2,25.8c-1.5,4.2-3.2,8.2-5.1,12.2
		l-1.5,2.9c-0.5,1-1.1,1.8-1.6,2.8c-1,1.9-2.2,3.6-3.4,5.3c-1.2,1.7-2.6,3.2-3.9,4.5c-1.3,1.3-2.7,2.4-4,3.1
		c-1.4,0.7-2.7,1.2-3.8,1.3c-0.3,0-0.6,0-0.8,0c-0.2-0.1-0.5,0-0.8-0.1c-0.1,0-0.2,0-0.4-0.1c-0.1,0-0.2-0.1-0.3-0.1
		c-0.1,0-0.2-0.1-0.3-0.1c0,0,0,0,0,0h0c0,0,0.2,0.1,0.2,0.1l-1.5-0.8l-0.5-0.2l-0.7-0.3c-0.4-0.2-0.9-0.4-1.4-0.6
		c-0.9-0.4-1.9-0.9-2.8-1.3l-2.8-1.4l-2.8-1.5c-3.7-2.1-7.3-4.4-10.9-6.8c-7.1-4.9-13.9-10.3-20.2-16.1c-1.6-1.5-3.2-2.9-4.8-4.4
		l-4.6-4.5l-4.9-4.8c-1.6-1.6-3.3-3.2-5-4.7c-3.4-3.1-6.9-6.2-11-9c-2-1.4-4.2-2.8-7-4.1l-1.1-0.5l-0.6-0.2
		c-0.2-0.1-0.4-0.1-0.6-0.2c-0.5-0.1-1-0.3-1.5-0.4c-0.3-0.1-0.5-0.1-0.8-0.2c-0.3,0-0.7-0.1-1-0.1c-1.2-0.1-3-0.1-5.1,0.8
		c-0.6,0.3-1.1,0.5-1.6,0.9c-0.4,0.3-0.7,0.6-1.1,0.9c-0.1,0.1-0.3,0.3-0.4,0.4c-0.4,0.5-0.8,1.1-1.1,1.7c-0.1,0.2-0.2,0.3-0.2,0.5
		c-2.5,4.1-5.4,7.8-8.8,11.1c-4,3.9-8.6,7.2-13.6,9.5c-4.7,2.2-9.7,3.4-14.7,3.6c-5,0.2-10-0.8-14.5-2.8
		c-9.1-4.1-15.8-12.7-18.9-22.6c-3.1-10-3-21.1-0.1-31.4c2.8-10,8.2-19.5,15.7-26.8c0.2-0.2,0.5-0.4,0.7-0.7c2-1.8,4.1-3.5,6.3-5.1
		c1.1-0.8,2.3-1.5,3.4-2.1c1.2-0.6,2.3-1.3,3.5-1.8c4.8-2.1,10-3.3,15.1-3.2c5.2,0.1,10.2,1.6,14.6,4.1c0.6,0.3,1.1,0.7,1.6,1
		l1.6,1.1l1.5,1.3c0.5,0.4,1,0.8,1.4,1.3l1.3,1.4c0.5,0.5,0.9,1,1.3,1.5l1.2,1.5c0.4,0.5,0.7,1.1,1.1,1.6l1.1,1.7l1.1,1.8
		c0.7,1.2,1.4,2.5,2,3.7c1.2,2.5,2.3,4.9,3.1,7.4c0.2,0.7,0.4,1.3,0.5,2c-0.2-0.9-0.4-1.8-0.7-2.7c-0.8-2.6-1.8-5.1-3.1-7.6
		c-0.6-1.3-1.3-2.5-2-3.8l-1.1-1.9l-1.1-1.7c-0.4-0.6-0.7-1.2-1.1-1.7l-1.2-1.6c-0.4-0.5-0.8-1-1.3-1.5l-1.4-1.4
		c-0.4-0.5-1-0.9-1.4-1.3l-1.5-1.3l-1.6-1.1c-0.5-0.4-1-0.8-1.6-1.1c-4.5-2.6-9.5-4.1-14.7-4.2c-5.2-0.1-10.4,1.1-15.2,3.3
		c-1.2,0.5-2.4,1.2-3.5,1.8c-1.2,0.7-2.3,1.4-3.4,2.2c-2.2,1.6-4.3,3.3-6.3,5.2c-0.2,0.2-0.5,0.5-0.7,0.7
		c-7.5,7.5-12.9,17.2-15.8,27.6c-3,10.6-3.1,22,0,32.2c3.1,10.2,9.8,19,18.9,23.2c4.5,2.1,9.5,3.1,14.5,2.9c5-0.2,10.1-1.5,14.8-3.7
		c5-2.4,9.6-5.8,13.6-9.8c3.4-3.4,6.4-7.3,8.9-11.4c0.1-0.2,0.2-0.4,0.2-0.5c0.3-0.6,0.7-1.2,1.1-1.7c0.1-0.1,0.3-0.3,0.4-0.4
		c0.3-0.3,0.7-0.6,1.1-0.9c0.5-0.4,1-0.6,1.6-0.9c2.1-1,3.9-1,5.1-0.9c0.3,0,0.7,0.1,1,0.1c0.3,0.1,0.5,0.1,0.8,0.2
		c0.5,0.1,1,0.3,1.5,0.4c0.3,0.1,0.5,0.1,0.6,0.2l0.6,0.2l1.1,0.5c2.8,1.3,4.9,2.7,7,4.2c4.1,2.9,7.6,6.1,11.1,9.3
		c1.7,1.6,3.4,3.2,5,4.8l4.9,4.9l4.7,4.7c1.5,1.6,3.2,3,4.8,4.5c6.4,5.9,13.2,11.5,20.3,16.5c3.6,2.5,7.2,4.8,10.9,7l2.8,1.6
		l2.8,1.5c0.9,0.5,1.9,0.9,2.8,1.4c0.5,0.2,0.9,0.4,1.4,0.6l0.7,0.3l0.5,0.2l1.5,0.8C561.2,465.2,561,465.1,561.1,465.1L561.1,465.1
		C561.1,465.1,561.1,465.1,561.1,465.1z"/>
	<linearGradient id="SVGID_5_" gradientUnits="userSpaceOnUse" x1="504.807" y1="483.4138" x2="504.807" y2="493.4194">
		<stop  offset="0" style="stop-color:#686868"/>
		<stop  offset="0.867" style="stop-color:#000000"/>
	</linearGradient>
	<path class="st4" d="M499.3,483.4c3.8,3.7,7.5,7,11.1,10C506.9,489.9,503.2,486.5,499.3,483.4z"/>
	<linearGradient id="SVGID_6_" gradientUnits="userSpaceOnUse" x1="494.5507" y1="390.7241" x2="494.5507" y2="510.5193">
		<stop  offset="0" style="stop-color:#686868"/>
		<stop  offset="0.867" style="stop-color:#000000"/>
	</linearGradient>
	<path class="st5" d="M444.4,493.8c-4.9-9.4-10.8-16.9-15.9-23c-1.2-1.5-0.9-3.3,0.2-4.4c0.9-0.9,2.3-1.3,3.7-0.7
		c11.4,5,24.5,7.6,44.5,20.3c4.6-4.1,6.9-9.3,7.9-12.7c-6.3-3.9-12.9-7.5-19.5-10.6c-4.1-2-8.9-3.3-12.8-5.5
		c-3.1-1.7-4.5-2.4-3.2-3.7c0.5-0.5,1.6-1.2,3.1-2c4.5-2.4,9.6-2,14.4-3.4c3.3-1,6.1-3.2,9.2-4.7c1-0.5,2-0.8,3.1-1
		c3.2-0.6,6.6,0.6,9.3,2.5c4.2,3.1,7.3,7.8,10.7,11.8c8.3,9.7,18.9,17.4,29.9,23.9c20.6,12.1,43.6,20.1,64.9,30.1
		c1.9-3.6,3.8-8.7,5.6-14.5l-17.6-7.3c-3.6-1.5-5.3-5.6-3.8-9.2c0.4-0.9,0.9-1.7,1.5-2.3c1.9-1.9,4.9-2.6,7.7-1.5l16.1,6.6
		c3.2-12.3,5.4-23.3,5.4-23.3s1.4-51.8,1.3-59.2c0-1.4-0.1-2.5-0.3-3.4c0,0.1,0,0.1,0,0.2c0,0.9,0,1.8-0.1,2.7l-0.1,0.7l0,0.3l0,0.2
		l-0.2,0.9c-0.4,2.4-0.8,4.8-1.3,7.2c-1.9,9.6-4.4,19.1-7.8,28.5c-3.4,9.4-7.4,18.5-13.5,27.3c-1.6,2.2-3.4,4.3-5.4,6.4
		c-2,2-4.3,3.9-7,5.5c-2.8,1.5-6,2.8-9.6,3.1c-0.9,0-1.8,0.1-2.7,0c-0.9-0.1-1.8-0.1-2.8-0.3l-1.4-0.3c-0.5-0.1-0.9-0.3-1.4-0.4
		c-0.5-0.1-0.9-0.4-1.4-0.6c-0.2-0.1-0.5-0.2-0.7-0.4l-0.1-0.1l-0.4-0.2l-0.9-0.4c-0.6-0.3-1.2-0.5-1.7-0.8
		c-1.1-0.5-2.2-1.1-3.3-1.6l-3.2-1.7l-3.1-1.8c-4.1-2.4-8.1-5-11.9-7.7c-7.7-5.4-14.9-11.4-21.7-17.7c-1.7-1.6-3.4-3.2-5.1-4.8
		l-4.9-4.9l-4.7-4.7c-1.6-1.5-3.2-3-4.7-4.6c-3.2-2.9-6.4-5.8-9.7-8.2l-0.6-0.5l-0.6-0.4l-1.2-0.8c-0.4-0.3-0.7-0.4-1.1-0.6
		c-2.6,3.9-5.6,7.5-8.9,10.8c-5.3,5.3-11.5,9.8-18.5,13c-6.2,2.8-13.1,4.5-20.1,4.6c-7,0.1-14.1-1.4-20.4-4.5
		c-6.3-3.1-11.8-7.7-16-13.2c-4.2-5.4-7.2-11.7-9-18.1c-1.7-6-2.5-12.2-2.5-18.3c-1.8,18.5-0.9,54.3-0.9,54.3s0,0.6,0.1,1.8
		c11.2,9.6,21.5,20.2,31.5,31c4.7,5.1,9.3,10.5,13.2,16.3C431,494.6,438,494.3,444.4,493.8z"/>
</g>
<g>
	<linearGradient id="SVGID_7_" gradientUnits="userSpaceOnUse" x1="585.165" y1="532.1111" x2="585.165" y2="540.3053">
		<stop  offset="0" style="stop-color:#686868"/>
		<stop  offset="0.867" style="stop-color:#000000"/>
	</linearGradient>
	<path class="st6" d="M586.5,535.7c-2.6-1.2-5.2-2.4-7.8-3.6v1.5l12.8,6.7c0.1-0.6,0.1-1.1,0.1-1.4
		C591.1,538.4,589.6,537.3,586.5,535.7z"/>
	<linearGradient id="SVGID_8_" gradientUnits="userSpaceOnUse" x1="646.4982" y1="416.1009" x2="646.4982" y2="567.9144">
		<stop  offset="0" style="stop-color:#686868"/>
		<stop  offset="0.867" style="stop-color:#000000"/>
	</linearGradient>
	<path class="st7" d="M713.6,418.2c-0.3,6.2-1.2,13.5-3,21.4c-3.1,13.6-9,28.9-20,43.4l-1.4,1.8c-3.8,5-8.4,11.2-13.9,16.7
		c-6.7,6.7-14.5,12.2-23.4,13.1c-5.3,0.5-9.9-0.6-14-2.3c-2.1-0.9-4.1-1.8-6-2.8c-1.4-0.7-2.6-1.3-3.9-1.9
		c-3.8-1.7-7.8-3.2-11.6-4.7c-2.7-1.1-5.5-2.1-8.2-3.3l-26.3-10.9c-1.3-0.5-2.4-1.5-3.1-2.6v17.6c6.5,2.8,12.9,5.6,19.2,8.6
		c6.7,3.3,13.3,7.8,16.7,14.4c1.1,2,1.8,4.2,2.3,6.4c1.1,5.2,0.6,10.8-0.8,15.9c-0.3,1.1-0.7,2.3-1.1,3.4l23.8,12.5
		c0,0,13,11.5,38-12s37-64,37-81s0.5-56,0.5-56l-0.7,0.7C713.6,417.2,713.6,417.7,713.6,418.2z"/>
	<linearGradient id="SVGID_9_" gradientUnits="userSpaceOnUse" x1="694.9913" y1="435.1923" x2="694.9913" y2="450.0084">
		<stop  offset="0" style="stop-color:#686868"/>
		<stop  offset="0.867" style="stop-color:#000000"/>
	</linearGradient>
	<path class="st8" d="M692.8,450c1.9-5.1,3.3-10.1,4.4-14.8L692.8,450z"/>
</g>
<g>
	<linearGradient id="SVGID_10_" gradientUnits="userSpaceOnUse" x1="534.1941" y1="455.6946" x2="534.1941" y2="647.5405">
		<stop  offset="0" style="stop-color:#686868"/>
		<stop  offset="0.867" style="stop-color:#000000"/>
	</linearGradient>
	<path class="st9" d="M617.4,541.3c-0.2,2.7-0.6,5.3-1.4,7.9c-2,7-5.3,13.9-9.6,20.2c-2.2,3.2-4.7,6.2-7.4,8.9c-2.6,2.6-5.5,5-8.5,7
		c-2.4,1.6-4.9,3-7.5,4.1c-4.7,2-10,3.3-15,2.2c-2.5-0.5-4.7-1.5-6.7-2.9c-12-8.1-14.5-29.4-19-41.5c-7.1-19-16.7-37.8-30.7-52.6
		c-13-13.7-29.4-24.1-46.3-32.1c-4.1-2-8.9-3.3-12.8-5.5c-1-0.6-1.8-1-2.4-1.4v16.7c11.4,4.4,25.6,11.2,45.1,26.8
		c21.5,17.2,39.5,55.9,42.8,82.5c0.4,3.4,0.9,7,1.3,10.7c0.3,1,0.5,2,0.8,3c14.3,59,29,61.7,56.3,39.3
		c27.3-22.3,21.3-51.3,21.3-51.3L617.4,541.3z"/>
	<linearGradient id="SVGID_11_" gradientUnits="userSpaceOnUse" x1="576.2962" y1="524.4218" x2="576.2962" y2="564.5655">
		<stop  offset="0" style="stop-color:#686868"/>
		<stop  offset="0.867" style="stop-color:#000000"/>
	</linearGradient>
	<path class="st10" d="M561.1,524.5c0,0-0.1,0-0.1,0c1.9,4.4,3.8,8.9,5.6,13.7c1.6,4.2,2.8,8.7,4,13c1,3.6,2.6,9.5,4.3,13.4
		c0.4-0.2,0.8-0.5,1.3-0.8c1.6-1,3.1-2.3,4.5-3.8c1.6-1.6,3.1-3.4,4.5-5.4c2.7-3.9,4.7-8.2,5.9-12.4c0.4-1.5,0.5-2.7,0.4-3.3
		c-0.5-0.5-1.9-1.6-5-3.1C578.5,531.8,570.1,528.3,561.1,524.5z"/>
</g>
<g>
	<linearGradient id="SVGID_12_" gradientUnits="userSpaceOnUse" x1="389.6074" y1="356.2342" x2="408.8083" y2="379.7342">
		<stop  offset="0" style="stop-color:#686868"/>
		<stop  offset="0.4477" style="stop-color:#000000"/>
	</linearGradient>
	<path class="st11" d="M394.7,373.6c2.6-9.1,7.2-17.6,13.6-24.6l0-1.4c-6.6,7.2-11.4,16.2-14,25.7c-1.6,5.6-2.3,11.5-2.3,17.3
		c0.2-0.2,0.3-0.4,0.5-0.6C392.4,384.5,393.1,379,394.7,373.6z"/>
	<linearGradient id="SVGID_13_" gradientUnits="userSpaceOnUse" x1="332.7266" y1="430.8878" x2="353.9338" y2="456.8433">
		<stop  offset="0" style="stop-color:#686868"/>
		<stop  offset="0.4477" style="stop-color:#000000"/>
	</linearGradient>
	<path class="st12" d="M339.4,449.1l17.9,1.8c-5.9-6.2-12-12.2-17.9-18.2V449.1z"/>
	<linearGradient id="SVGID_14_" gradientUnits="userSpaceOnUse" x1="265.6441" y1="251.3559" x2="291.022" y2="282.4159">
		<stop  offset="0" style="stop-color:#686868"/>
		<stop  offset="0.4477" style="stop-color:#000000"/>
	</linearGradient>
	<path class="st13" d="M286.4,282.3c-2.5-10-7.1-19.5-13.8-27.9C277.3,263.2,282,272.7,286.4,282.3z"/>
	<linearGradient id="SVGID_15_" gradientUnits="userSpaceOnUse" x1="442.944" y1="27.1227" x2="443.4688" y2="27.7651">
		<stop  offset="0" style="stop-color:#686868"/>
		<stop  offset="0.4477" style="stop-color:#000000"/>
	</linearGradient>
	<path class="st14" d="M443.4,27.8l0-0.5l-0.6,0.1C443,27.5,443.2,27.6,443.4,27.8z"/>
	<linearGradient id="SVGID_16_" gradientUnits="userSpaceOnUse" x1="408.4477" y1="61.706" x2="435.2916" y2="94.5602">
		<stop  offset="0" style="stop-color:#686868"/>
		<stop  offset="0.4477" style="stop-color:#000000"/>
	</linearGradient>
	<path class="st15" d="M404,116.1c9.2-15.5,21-29.2,36.1-38.2l2.3-34.7C413.7,66,405.2,94.7,404,116.1z"/>
	<linearGradient id="SVGID_17_" gradientUnits="userSpaceOnUse" x1="166.0233" y1="113.6774" x2="424.2123" y2="429.6748">
		<stop  offset="0" style="stop-color:#686868"/>
		<stop  offset="0.4477" style="stop-color:#000000"/>
	</linearGradient>
	<path class="st16" d="M259.9,195.1c5.3,9.9,5.4,26.9,5.4,26.9s0.3,4.5-1.6,6.4c-1.1,1.1-2.9,1.3-5.8-0.6c1.4,2.4,2.8,5,4.4,7.8
		c3.2,2.4,6.2,5,9.1,7.8c16.3,16.3,24.3,37.9,23.7,59.5c2.1,5.4,3.9,10.6,5.4,15.6c12,16.6,31,50.7,31.9,52.3v0
		c0.4,0.7,0.5,1.5,0.3,2.2l-5.2,24.8c4.5,6.5,8.8,11.2,11.8,13.5v13.5c10.5,2.6,19.4,6.7,28,12.5c2.8-9.9,7.4-23,14.1-32.9
		c-2.4-11.5-1.6-23.3,1.7-34.3c3.5-11.7,9.7-22.6,18.5-31.4c0.5-0.5,1.1-1.1,1.7-1.6c1.7-1.6,3.4-3,5.3-4.4l0.5-20.5c0,0,0,0-0.1,0
		c0,1-0.4,1.9-1.1,2.6c-0.1,0.1-0.2,0.2-0.4,0.3c-1.2,0.9-2.5,2-3.7,3.3c-13.2,13.2-27.4,43.1-27.4,43.1
		c-11.9,24.9-12.3,45.2-11.9,53.4c0,0.8-0.3,1.6-0.8,2.1c-0.7,0.7-1.7,1-2.7,0.7c-5.6-1.6-15.5-4.5-18.1-5.3
		c-3.7-1.1-3.2-5.7-3.2-5.7c0-12.2,1.8-15.5,4.4-39.7c-31.5-39.7-37.1-52.4-39.1-86c-2-33.6-40.1-87-52.3-123.6
		c-1.3-3.8-2-7.7-2.4-11.6c-0.4-3.9-0.4-7.9,0-11.8c-0.7,1.6-1.2,3.3-1.2,5c0,2.2,0,16.6,0,32.1C252.7,180,257.1,189.8,259.9,195.1z
		"/>
	<linearGradient id="SVGID_18_" gradientUnits="userSpaceOnUse" x1="363.7893" y1="63.7981" x2="444.0275" y2="162.0015">
		<stop  offset="0" style="stop-color:#686868"/>
		<stop  offset="0.4477" style="stop-color:#000000"/>
	</linearGradient>
	<path class="st17" d="M424.5,41.9c-2.5,2.1-4.9,4.3-7.2,6.5c-39.4,39.4-45.7,109.7-43.5,158.9c2.1-14.4,7.9-45.1,21.2-74.2
		c1.3-13.8,3.4-26.7,6.4-36.9c8.9-29.4,28.2-46.4,41-54.8l0.8-11.6C436.4,33.2,430.2,37.2,424.5,41.9z"/>
</g>
<g>
	<linearGradient id="SVGID_19_" gradientUnits="userSpaceOnUse" x1="218.5567" y1="214.841" x2="218.5567" y2="448.7554">
		<stop  offset="0" style="stop-color:#686868"/>
		<stop  offset="0.867" style="stop-color:#000000"/>
	</linearGradient>
	<path class="st18" d="M215.8,444.8c0-5.2,0.9-106.2,8.9-121.8c0.3-0.6,0.6-1.3,0.9-2.1c1.2-13.7,2.7-28.3,4.4-42.2
		c0.1-0.8,0.4-1.4,0.9-1.9c1.1-1.1,2.9-1.3,4.2-0.3c0.7-3.2,1.4-6.4,2.1-9.3c-1.1-0.7-2.1-1.4-3.3-2.1c-1.2-0.6-1.8-2-1.6-3.3
		c0,0,0,0,0-0.1c0.1-0.7,0.4-1.3,0.9-1.8c1-1,2.5-1.3,3.9-0.5c0.6,0.4,1.3,0.8,1.9,1.1c1.5-4.9,3.2-8.7,5.1-10.8
		c-2.1-1.2-4.3-2.4-6.5-3.3c-0.4-0.2-0.7-0.4-1-0.7c-0.7-0.7-1.1-1.9-0.9-2.9c0,0,0,0,0-0.1c0.1-0.6,0.5-1.2,0.9-1.6
		c0.9-0.9,2.3-1.2,3.5-0.7c7.3,3.2,14,7.6,19.7,13.2c3.2-0.6,4.5-4.4,5.1-7.6c-6.8-6.3-14.7-11.4-23.3-14.8
		c-1.5-0.6-2.4-2.3-1.8-3.9c0,0,0,0,0-0.1c0.2-0.5,0.4-0.9,0.8-1.3c0.9-0.9,2.2-1.2,3.5-0.7c7.6,3,14.8,7.2,21.2,12.4l-0.2-12.8
		c-0.2,1.2-0.6,2.5-1.4,3.3c-1.7,1.7-5.2,1.3-12.3-6.5c-6.9-7.6-10.4-7.9-12.2-6.1c-2,2-1.9,6.6-1.9,7.2v0l-2.4,6.1
		c0,0-15.3,39.6-18.6,137.1c0,0.2,0,0.3,0,0.5c-0.2,5.3-0.3,10.7-0.4,16.3c-0.1,1.1-0.2,2.1-0.1,3.2c0.4,6.2,0.1,9.2-0.6,9.9
		c-2.6,2.6-11-25-15.1-33.9c-5.3-11.4-18.7-30.6-26.7-60c-0.9-3.4-1.5-7-1.8-10.6v32.6c5.4,19.2,7.1,35.6,6.5,49.9
		c1.9,4.3,4.2,9.3,6.7,14.7c1.5-7.8,2.5-14.6,3-19.4c0.1-0.5,0.3-1,0.6-1.3c1-1,2.8-0.9,3.5,0.6c19.6,41,16.9,43.1,18.9,74.6
		c0.9,1.8,1.8,3.6,2.7,5.3C213.7,448.6,215.8,449.9,215.8,444.8z"/>
	<linearGradient id="SVGID_20_" gradientUnits="userSpaceOnUse" x1="215.3154" y1="173.8074" x2="215.3154" y2="310.2636">
		<stop  offset="0" style="stop-color:#686868"/>
		<stop  offset="0.867" style="stop-color:#000000"/>
	</linearGradient>
	<path class="st19" d="M190.2,297.5c1.2,4.5,2.6,8.7,4,12.7l0.2-1.3c1.6-11.5,4.9-22.8,9.7-33.4l4.5-10c4.9-28.4,9.9-41.6,10.3-42.6
		c0,0,0,0,0,0l1.3-3.4c0.4-4.8,2-11,6.9-15.8c3.9-3.9,9.2-6.1,14.8-6c-2.9-6.1-6.9-15.2-10.3-23.8c-3.7,8.1-8,17-12.8,26.6
		c-9.3,18.8-17.7,34.5-19.6,38.1C194.7,249.2,185.2,278.9,190.2,297.5z"/>
</g>
<g>
	<linearGradient id="SVGID_21_" gradientUnits="userSpaceOnUse" x1="254.6968" y1="327.6761" x2="254.6968" y2="245.141">
		<stop  offset="0" style="stop-color:#686868"/>
		<stop  offset="0.4477" style="stop-color:#000000"/>
	</linearGradient>
	<path class="st20" d="M247.5,267.3c13.1,13.1,16.8,32,11.2,48.5c1.6,2.1,5.8,7.7,7.8,11.9c11.5-22.2,7.9-50.2-10.6-68.8
		c-5.3-5.3-11.5-9.5-18.2-12.4c-0.4-0.2-0.7-0.4-1-0.7c-0.2-0.2-0.4-0.4-0.5-0.7v14c0.3,0.1,0.7,0.2,1,0.4
		C241,261.6,244.5,264.2,247.5,267.3z"/>
	<linearGradient id="SVGID_22_" gradientUnits="userSpaceOnUse" x1="243.2467" y1="326.8323" x2="243.2467" y2="262.5882">
		<stop  offset="0" style="stop-color:#686868"/>
		<stop  offset="0.4477" style="stop-color:#000000"/>
	</linearGradient>
	<path class="st21" d="M231.7,276.3c1.1-0.6,2.6-0.6,3.7,0.4c0.5,0.4,1,0.9,1.5,1.4c10.4,10.4,12.1,26.2,5.2,38.4l3.2,10.5
		c13.5-16,12.8-39.9-2.3-55c-2.7-2.7-5.7-4.9-8.9-6.7c-0.9-0.5-1.5-1.5-1.6-2.5l0,0L231.7,276.3z"/>
	<linearGradient id="SVGID_23_" gradientUnits="userSpaceOnUse" x1="264.0261" y1="327.6182" x2="264.0261" y2="229.4524">
		<stop  offset="0" style="stop-color:#686868"/>
		<stop  offset="0.4477" style="stop-color:#000000"/>
	</linearGradient>
	<path class="st22" d="M240.3,240.5c7.5,3.3,14.4,7.9,20.2,13.8c16.6,16.6,22.4,40,17.3,61.3c1.7,2.9,4.4,7.8,5.7,12
		c10.5-26.9,4.7-58.3-16.7-79.7c-7.2-7.2-15.8-12.8-25.1-16.5c-0.9-0.4-1.5-1.1-1.8-1.9l-0.6,10.8
		C239.7,240.3,240,240.4,240.3,240.5z"/>
</g>
<g>
	<linearGradient id="SVGID_24_" gradientUnits="userSpaceOnUse" x1="261.2477" y1="299.0984" x2="261.2431" y2="298.8494">
		<stop  offset="0" style="stop-color:#686868"/>
		<stop  offset="0.4477" style="stop-color:#000000"/>
	</linearGradient>
	<path class="st23" d="M261.2,299.1l0-0.2l0,0C261.2,298.9,261.2,299,261.2,299.1z"/>
	<linearGradient id="SVGID_25_" gradientUnits="userSpaceOnUse" x1="270.3714" y1="418.1329" x2="269.333" y2="362.432">
		<stop  offset="0" style="stop-color:#686868"/>
		<stop  offset="0.4477" style="stop-color:#000000"/>
	</linearGradient>
	<path class="st24" d="M268.6,411.7c1.3,1.1,3.2,1.1,4.4-0.1l0,0l13-13.3c0.7-0.7,1-1.7,0.9-2.7c-0.9-6.9-3.6-24.1-10.1-37.1
		c-1-2-3.6-2.4-5.2-0.8c0,0,0,0,0,0l-0.2,0.2c-5.1,5.1-10.9,9.5-17.1,13.1c-0.3,0.1-0.5,0.3-0.7,0.5c-0.8,0.8-1.1,2.1-0.8,3.2
		c2.2,6.5,3.5,13.3,4,20.1l0.4,5.8c0.1,0.8,0.4,1.6,1.1,2.2L268.6,411.7z"/>
	<linearGradient id="SVGID_26_" gradientUnits="userSpaceOnUse" x1="303.7946" y1="416.4396" x2="302.213" y2="331.5996">
		<stop  offset="0" style="stop-color:#686868"/>
		<stop  offset="0.4477" style="stop-color:#000000"/>
	</linearGradient>
	<path class="st25" d="M318.6,406.7c0.4-0.4,0.7-1,0.9-1.6L326,374c0.2-0.8,0-1.5-0.3-2.2c-4.2-7.4-18.6-32.8-28.7-47.2
		c-1.2-1.7-3.6-1.8-4.9-0.4c-0.3,0.3-0.6,0.8-0.8,1.3c-2.5,7.7-6.2,15.2-11.1,22c-0.7,1.1-0.8,2.4-0.2,3.5c4.9,8,8.1,18,10.2,26.7
		c1.7-1.4,4.5-3,6.3,0.1c2.2,3.8,13.7,22.1,18.2,29.3l0.2,0.1C316.2,408,317.7,407.6,318.6,406.7z"/>
	<linearGradient id="SVGID_27_" gradientUnits="userSpaceOnUse" x1="238.4406" y1="418.114" x2="237.7309" y2="380.0485">
		<stop  offset="0" style="stop-color:#686868"/>
		<stop  offset="0.4477" style="stop-color:#000000"/>
	</linearGradient>
	<path class="st26" d="M243,376.3c-4,1.5-8.2,2.8-12.4,3.6c-0.6,0.1-1.2,0.5-1.7,0.9c-0.5,0.5-0.8,1.1-0.9,1.9l-2.4,20.3
		c-0.1,1,0.2,2,1,2.7l8,7.7c1.2,1.2,3.2,1.2,4.4,0l10.9-10.2l0.1-0.1c0.7-0.7,1-1.6,0.9-2.5l-0.4-5.3c-0.4-5.8-1.5-11.5-3.2-17
		C246.6,376.6,244.7,375.6,243,376.3z"/>
	<linearGradient id="SVGID_28_" gradientUnits="userSpaceOnUse" x1="235.6976" y1="343.3036" x2="235.0756" y2="309.9406">
		<stop  offset="0" style="stop-color:#686868"/>
		<stop  offset="0.4477" style="stop-color:#000000"/>
	</linearGradient>
	<path class="st27" d="M226.3,313.4l-1.6,12.5l0.3,14.2c0.3-0.3,0.7-0.5,1.2-0.7c6.2-1.9,12-5.4,16.7-10.1c0.7-0.7,1.3-1.3,1.9-2
		l0.9-21c-1.1,6.2-4.1,12.1-8.9,16.9c-2,2-4.3,3.8-6.7,5.2c-2.2,1.3-5-0.5-4.8-3.1C225.6,321.5,226,317.5,226.3,313.4z"/>
	<linearGradient id="SVGID_29_" gradientUnits="userSpaceOnUse" x1="251.4595" y1="381.6048" x2="250.2483" y2="316.6344">
		<stop  offset="0" style="stop-color:#686868"/>
		<stop  offset="0.4477" style="stop-color:#000000"/>
	</linearGradient>
	<path class="st28" d="M224.6,374.4c0.1,0,0.2,0,0.3,0c6.6-1,12.9-2.8,19-5.4l-0.2-0.5l5.3-2c0.1-0.1,0.3-0.1,0.4-0.2
		c6.4-3.4,12.2-7.8,17.4-13c1.9-1.9,3.8-4,5.5-6.1c2.5-3.2,4.8-6.5,6.7-9.9v-27.7c-1.9,13.7-8.1,26.9-18.6,37.4
		c-9.4,9.4-21.2,15.6-34,18.1c-0.3,0-0.5,0.1-0.8,0.1c-0.8-0.1-1.5-0.4-2-0.9c-0.6-0.6-1-1.5-0.9-2.5c0,0,0,0,0-0.1c0,0,0,0,0-0.1
		c-0.2,0.6-0.4,1.2-0.4,1.9c0,1.2,0.1,7.8,0.2,12.2c0.1-0.1,0.1-0.2,0.2-0.3C223.2,374.8,223.8,374.5,224.6,374.4z"/>
	<linearGradient id="SVGID_30_" gradientUnits="userSpaceOnUse" x1="242.9679" y1="364.6565" x2="241.9496" y2="310.0374">
		<stop  offset="0" style="stop-color:#686868"/>
		<stop  offset="0.4477" style="stop-color:#000000"/>
	</linearGradient>
	<path class="st29" d="M224,342.3c-0.1,0.2-0.2,0.4-0.2,0.6c0,0.9-0.1,14.1-0.2,16.6c0,0,0,0,0,0c0.4-0.4,1-0.7,1.6-0.9
		c11.5-2.2,22.2-7.8,30.6-16.3c1.6-1.6,3.1-3.3,4.5-5.1l0.8-33.1c-0.8,10.9-5.4,21.5-13.7,29.8c-5.5,5.5-12.1,9.5-19.4,11.7
		C225.9,346.3,223.8,344.6,224,342.3C224,342.4,224,342.3,224,342.3C224,342.3,224,342.3,224,342.3z"/>
</g>
<g>
	<linearGradient id="SVGID_31_" gradientUnits="userSpaceOnUse" x1="68.7136" y1="363.1096" x2="68.7136" y2="392.8782">
		<stop  offset="0" style="stop-color:#686868"/>
		<stop  offset="0.867" style="stop-color:#000000"/>
	</linearGradient>
	<path class="st30" d="M56.5,367.3c-3.7-0.1-6.5,2.1-7.9,3.5c-2.1,2.1-3.5,4.7-4.1,7.5l0,0.3c-0.2,1.1-0.3,2.2-0.2,3.2
		c0,0.2,0.1,0.6,0.3,1.3c1.2,4.2,6,10,12.8,9.7c5.5-0.2,11.9-3.9,18.7-10.7c0.3-0.3,0.6-0.6,0.9-0.9c6.7-6.9,12.1-12.7,16.4-18.1
		c-11.2,5.5-23.3,7.1-35.2,4.5C57.5,367.4,57,367.4,56.5,367.3z"/>
	<linearGradient id="SVGID_32_" gradientUnits="userSpaceOnUse" x1="74.6681" y1="422.3971" x2="74.6681" y2="433.3876">
		<stop  offset="0" style="stop-color:#686868"/>
		<stop  offset="0.867" style="stop-color:#000000"/>
	</linearGradient>
	<path class="st31" d="M65.9,430c-1.4,0.5-2,0.8-2.3,1c0.5,0.6,1.1,1.3,1.5,1.7c0,0,0.1,0.1,0.3,0.1c0,0,0,0,0.1,0
		c1.5,0.7,5.2,1.2,10.1-1.5c2-1.1,3.9-2.6,5.8-4.4c0.2-0.2,0.3-0.3,0.5-0.5c1.3-1.4,2.6-2.7,3.8-4c-0.6,0.3-1,0.6-1.4,0.8
		c-5,3-10.1,4.4-14.2,5.5C68.5,429.2,67.1,429.6,65.9,430z"/>
	<linearGradient id="SVGID_33_" gradientUnits="userSpaceOnUse" x1="76.4347" y1="326.242" x2="76.4347" y2="460.8203">
		<stop  offset="0" style="stop-color:#686868"/>
		<stop  offset="0.867" style="stop-color:#000000"/>
	</linearGradient>
	<path class="st32" d="M92.7,436.9c-0.2,0.2-0.5,0.5-0.7,0.7c-3,3-6.1,5.3-9.2,7c-8.9,4.9-17.7,4.8-23.9,1.9c-1.9-0.9-3.4-2-4.7-3.4
		c-2.2-2.3-4.6-4.9-5.7-8.1c-1.1-3.2-1-6.9,1.9-11.6c0.7-1.2,1.5-2.2,2.4-3c2.3-2.3,5.2-3.7,8.2-4.8c5.1-1.7,10.7-2.6,15.5-5.4
		c4.9-2.9,15.4-10,25.3-19.9c3.3-3.3,6.6-7,9.6-11c5.5-7.3,10-17.2,13.3-25.7l-0.8-27.4c-3.3,28.1-12.8,41.2-36.3,65.5
		c-0.4,0.4-0.7,0.7-1.1,1.1c-10.5,10.5-20.4,14.8-28.8,15.1c-14.5,0.6-25-10.3-27.9-20.6c-0.4-1.5-0.7-3.1-0.8-4.5
		c-0.2-2.4,0-4.9,0.5-7.2v0c0.1-0.6,0.3-1.2,0.4-1.7c-0.2,0.1-0.3,0.1-0.3,0.1s-2,7.7-1.7,12c0.3,4.3,0,53.3,0,53.3
		s15.7,34.3,45.7,16.3c7.5-4.5,14.5-12,20.8-20.6C94,435.6,93.4,436.2,92.7,436.9z"/>
</g>
<g>
	<linearGradient id="SVGID_34_" gradientUnits="userSpaceOnUse" x1="116.2752" y1="435.4639" x2="116.2752" y2="468.2902">
		<stop  offset="0" style="stop-color:#686868"/>
		<stop  offset="0.867" style="stop-color:#000000"/>
	</linearGradient>
	<path class="st33" d="M119.7,444.2c-3.9,4.5-9.4,11.1-12.2,17c-1.8,3.7-2,5.7-1.6,7.1c9-11.9,16.9-24.5,21-32.8
		C124.6,438.4,122.2,441.3,119.7,444.2z"/>
	<linearGradient id="SVGID_35_" gradientUnits="userSpaceOnUse" x1="90.4119" y1="356.3852" x2="90.4119" y2="501.0817">
		<stop  offset="0" style="stop-color:#686868"/>
		<stop  offset="0.867" style="stop-color:#000000"/>
	</linearGradient>
	<path class="st34" d="M92.5,480c-5.7-8.5-5-17.2-0.6-26.3c3.3-6.8,8.6-13.7,14.8-20.8c12.7-14.7,20.8-28.5,25.9-40.9l0.5-35.6
		c-0.7,7.4-2.7,14.7-4.7,22.5c-2.4,9.8-4.2,16-13.9,31.6c-5.9,9.5-13.2,17.4-21.8,26.4c-0.2,0.2-0.5,0.5-0.7,0.7c-3,3-6.1,5.3-9.2,7
		c-8.9,4.9-17.7,4.8-23.9,1.9c-1.9-0.9-3.4-2-4.7-3.4c-2.2-2.3-4.6-4.9-5.7-8.1c-0.6-1.7-0.8-3.5-0.5-5.6c-0.2,0.1-0.4,0.2-0.4,0.2
		v54.3c0,0,4.3,19,22.3,17c6.3-0.7,15.2-8.4,24.3-18.5C93.7,481.6,93.1,480.8,92.5,480z"/>
	<linearGradient id="SVGID_36_" gradientUnits="userSpaceOnUse" x1="74.6681" y1="422.3971" x2="74.6681" y2="433.3876">
		<stop  offset="0" style="stop-color:#686868"/>
		<stop  offset="0.867" style="stop-color:#000000"/>
	</linearGradient>
	<path class="st35" d="M65.9,430c-1.4,0.5-2,0.8-2.3,1c0.5,0.6,1.1,1.3,1.5,1.7c0,0,0.1,0.1,0.3,0.1c0,0,0,0,0.1,0
		c1.5,0.7,5.2,1.2,10.1-1.5c2-1.1,3.9-2.6,5.8-4.4c0.2-0.2,0.3-0.3,0.5-0.5c1.3-1.4,2.6-2.7,3.8-4c-0.6,0.3-1,0.6-1.4,0.8
		c-5,3-10.1,4.4-14.2,5.5C68.5,429.2,67.1,429.6,65.9,430z"/>
</g>
<g>
	<linearGradient id="SVGID_37_" gradientUnits="userSpaceOnUse" x1="136.6612" y1="288.2724" x2="136.6612" y2="380.7977">
		<stop  offset="0" style="stop-color:#686868"/>
		<stop  offset="0.867" style="stop-color:#000000"/>
	</linearGradient>
	<path class="st36" d="M133,290.1l-1.3,53.6c0.7,0.4,1.2,1.1,1.3,2c0.7,6.4,0.1,12.5-1.1,18.6c1.1,2.9,3.3,9.4,4.8,16.5
		c2.7-8.7,4-16.5,4.7-22.9c1.7-14.9-7.9-38.3-7.9-69.6L133,290.1z"/>
	<linearGradient id="SVGID_38_" gradientUnits="userSpaceOnUse" x1="178.0567" y1="358.7303" x2="178.0567" y2="360.2968">
		<stop  offset="0" style="stop-color:#686868"/>
		<stop  offset="0.867" style="stop-color:#000000"/>
	</linearGradient>
	<path class="st37" d="M178.1,360.3l0-1.4c0,0,0-0.1-0.1-0.2C178,359.3,178.1,359.8,178.1,360.3z"/>
	<linearGradient id="SVGID_39_" gradientUnits="userSpaceOnUse" x1="182.848" y1="168.3509" x2="182.848" y2="306.768">
		<stop  offset="0" style="stop-color:#686868"/>
		<stop  offset="0.867" style="stop-color:#000000"/>
	</linearGradient>
	<path class="st38" d="M200.6,169.7c-8.8,16.9-16.1,32.7-21.8,47.5c-13.4,35-17.8,64.4-12.2,89.5c1.2-4.4,2.9-10.7,5-17.8
		c-1.2-26.2,10.9-55.5,11.9-57.7c0-0.1,0.1-0.2,0.1-0.3c0.8-1.5,8.6-16.2,17.8-34.5l0-28.1L189.3,181L200.6,169.7z"/>
	<linearGradient id="SVGID_40_" gradientUnits="userSpaceOnUse" x1="133.3732" y1="335.1624" x2="133.3732" y2="473.9225">
		<stop  offset="0" style="stop-color:#686868"/>
		<stop  offset="0.867" style="stop-color:#000000"/>
	</linearGradient>
	<path class="st39" d="M109.1,472.9c0.5,0.5,0.9,0.8,1.2,1c0.5-0.2,1.6-0.6,3.3-1.9c1.1-0.9,2.3-1.9,3.6-3.2
		c5.7-5.7,11.9-14.7,18.6-26.8c1.2-2.1,2.4-4.3,3.6-6.4c7.7-13.7,15.6-27.8,19.4-45c3.7-16.7,3.1-35-1.9-55.5c1.6,9,2.7,17,1.8,24.7
		c-3.6,30.7-16.3,58.3-38.9,84.3c-3.9,4.5-9.4,11.1-12.2,17c-2.9,5.9-1.6,7.7-0.7,9.1C107.4,471.1,108.1,472,109.1,472.9z"/>
	<linearGradient id="SVGID_41_" gradientUnits="userSpaceOnUse" x1="133.3932" y1="371.554" x2="133.3932" y2="543.8816">
		<stop  offset="0" style="stop-color:#686868"/>
		<stop  offset="0.867" style="stop-color:#000000"/>
	</linearGradient>
	<path class="st40" d="M139.4,501.1c2.6-16.5,12-34.7,23.9-52.9c6.9-10.7,12-23.2,15.8-35.4l-0.7-41.2
		c-0.9,34.7-15.7,57.4-27.4,78.8c-6.8,12.4-14.1,23.2-21.5,30.6c-1.8,1.8-3.6,3.3-5.3,4.7c-7.7,5.9-15.5,7.5-23,2.8
		c-1.3-0.8-2.6-1.9-3.9-3.1c-1.8-1.8-3.4-3.6-4.6-5.4c-3.7-5.5-4.7-11.2-3.7-17c-0.4,2.3-1,7.5-1,19.1c0,18.3,0,41,0,41
		s6,19.5,21.5,20.8c8.5,0.7,20.8-10.2,30.9-22.6C138.4,515,138.2,508.2,139.4,501.1z"/>
</g>
<g>
	<linearGradient id="SVGID_42_" gradientUnits="userSpaceOnUse" x1="175.0608" y1="436.4422" x2="175.0608" y2="524.1116">
		<stop  offset="0" style="stop-color:#686868"/>
		<stop  offset="0.867" style="stop-color:#000000"/>
	</linearGradient>
	<path class="st41" d="M158.6,504.1c-1.6,10.1,1.1,15.1,3.3,17.9c0,0,0,0.1,0.1,0.1c0.5,0.7,1,1.3,1.7,2c0.3-0.2,0.8-0.5,1.3-0.9
		c0.7-0.5,1.4-1.2,2.2-1.9c10.3-10.3,22-36,25.1-70.4c-0.4-5.6-0.7-10.4-0.9-14.5c-3.2,7.7-7.1,15.3-11.6,22.3
		C167.3,477.6,160.4,492.4,158.6,504.1z"/>
	<linearGradient id="SVGID_43_" gradientUnits="userSpaceOnUse" x1="172.9442" y1="471.9332" x2="172.9442" y2="596.0821">
		<stop  offset="0" style="stop-color:#686868"/>
		<stop  offset="0.867" style="stop-color:#000000"/>
	</linearGradient>
	<path class="st42" d="M189.1,576.6c-5.3-8-4.5-17.3-1.1-26.9c3.4-9.6,9.4-19.5,14.4-28.8c1.9-3.5,4.2-8.6,6.4-14v-34.9
		c-5.3,28.3-16.1,51.2-28.1,63.1c-1.3,1.3-2.6,2.4-3.9,3.5c-7.8,6.1-15.9,7.5-23.1,2.7c-1.2-0.8-2.3-1.8-3.5-2.9
		c-1.5-1.5-2.8-3-3.9-4.5c-6.6-8.8-8.6-19-7.3-30.1l-0.3,0.4l-1,36.5c0,0-7,61.5,26.5,55c11-2.1,19.6-9,26.2-17.2
		C189.9,577.8,189.5,577.2,189.1,576.6z"/>
</g>
<g>
	<linearGradient id="SVGID_44_" gradientUnits="userSpaceOnUse" x1="215.4941" y1="518.6361" x2="215.4941" y2="641.1873">
		<stop  offset="0" style="stop-color:#686868"/>
		<stop  offset="0.867" style="stop-color:#000000"/>
	</linearGradient>
	<path class="st43" d="M234.3,596.1c3.5-7.8,9.2-15.9,12.9-26.1c0-18.9,0-39.3,0-49.4c0-0.6,0-1.3,0-2c0,2.3-0.1,4.6-0.2,7
		c-1,24.1-9,42.7-19.4,53.1c-1.9,1.9-3.8,3.5-5.8,4.8c-8.2,5.4-17.1,6-25.1,0.7c-1.6-1.1-3.2-2.4-4.8-4c-1.1-1.2-2.1-2.4-2.9-3.6
		c-2.1-3.2-3.2-6.5-3.6-10l-1.7,48c0,0-1,20.5,19,26c11.7,3.2,24.9-7.4,33.8-16.7C229,613.4,230.3,604.9,234.3,596.1z"/>
	<linearGradient id="SVGID_45_" gradientUnits="userSpaceOnUse" x1="185.7712" y1="557.5284" x2="185.7712" y2="557.9138">
		<stop  offset="0" style="stop-color:#686868"/>
		<stop  offset="0.867" style="stop-color:#000000"/>
	</linearGradient>
	<path class="st44" d="M185.7,557.6l0,0.3C185.8,557.8,185.8,557.7,185.7,557.6C185.8,557.6,185.7,557.6,185.7,557.6z"/>
	<linearGradient id="SVGID_46_" gradientUnits="userSpaceOnUse" x1="216.2396" y1="517.0497" x2="216.2396" y2="567.3608">
		<stop  offset="0" style="stop-color:#686868"/>
		<stop  offset="0.867" style="stop-color:#000000"/>
	</linearGradient>
	<path class="st45" d="M206.2,565.3c0,0.1,0.2,0.3,0.6,0.7c0.5,0.6,1,0.9,1.2,1.1c0,0,0,0,0.1,0c0.2,0.1,0.3,0.2,0.4,0.2
		c0.2,0,0.9-0.2,2-0.9c0.8-0.6,1.7-1.3,2.6-2.2c5.9-5.9,12.5-19.4,13.4-39.4c0.1-2.6,0.2-5.2,0.2-7.8c-2.2,5.2-4.4,10-6.4,13.6
		c-1,1.8-2,3.7-3.1,5.6c-3.9,6.9-7.8,14.1-10,20.2c-0.7,2.1-2.3,7-1.1,8.8C206.2,565.2,206.2,565.3,206.2,565.3z"/>
</g>
<linearGradient id="SVGID_47_" gradientUnits="userSpaceOnUse" x1="270.2729" y1="551.5921" x2="270.2729" y2="690.7415">
	<stop  offset="0" style="stop-color:#686868"/>
	<stop  offset="0.867" style="stop-color:#000000"/>
</linearGradient>
<path class="st46" d="M307.1,621.7c1.2-3.7,2.2-7.4,3.3-11.1c0.1-18.4,0.2-44.5,0-58.9c-0.1,4.4-0.4,8.8-0.8,13.2
	c-2.3,23.9-13.4,46.6-26.9,60c-3.6,3.6-7.3,6.5-11.1,8.6c-8.6,4.9-17.6,5.6-25.3,0.4c-1.4-0.9-2.7-2-4-3.3c-2.1-2.1-3.8-4-5.2-5.9
	c-4.8-6.3-6.3-11.9-6-17.2l-0.4-0.3l-0.5,47.5c0,0-4,32.5,26.5,36c19.1,2.2,35.2-21.6,44.6-39.8C302.1,641,304.2,631.1,307.1,621.7z
	"/>
<linearGradient id="SVGID_48_" gradientUnits="userSpaceOnUse" x1="363.6607" y1="427.2819" x2="363.6607" y2="566.3278">
	<stop  offset="0" style="stop-color:#686868"/>
	<stop  offset="0.867" style="stop-color:#000000"/>
</linearGradient>
<path class="st47" d="M388,499.8c-7.2-29.1-33.2-51.1-53.9-72.5c0,0,0,0,0-0.1v23.8c10.7,9,20.7,19.1,26.7,29.1
	c6.4,10.6,10.5,25,13,40.6c8.3,14.1,15.5,29.8,18.8,45.5C393.9,544.8,393.7,522.9,388,499.8z"/>
<g>
	<linearGradient id="SVGID_49_" gradientUnits="userSpaceOnUse" x1="652.2477" y1="231.6965" x2="651.6799" y2="231.6559">
		<stop  offset="0.1117" style="stop-color:#686868"/>
		<stop  offset="0.2101" style="stop-color:#29211E"/>
		<stop  offset="0.3697" style="stop-color:#686868"/>
		<stop  offset="0.5824" style="stop-color:#322B28"/>
		<stop  offset="0.885" style="stop-color:#000000"/>
	</linearGradient>
	<path class="st48" d="M652.1,232l-0.4-0.6l0,0.2C651.8,231.7,652,231.8,652.1,232z"/>
	<linearGradient id="SVGID_50_" gradientUnits="userSpaceOnUse" x1="655.8119" y1="251.987" x2="632.1229" y2="250.2914">
		<stop  offset="0.1117" style="stop-color:#686868"/>
		<stop  offset="0.2101" style="stop-color:#29211E"/>
		<stop  offset="0.3697" style="stop-color:#686868"/>
		<stop  offset="0.5824" style="stop-color:#322B28"/>
		<stop  offset="0.885" style="stop-color:#000000"/>
	</linearGradient>
	<path class="st49" d="M646.8,282.2c11.2-17.5-2-49.8-6.9-60.6c-1.4-2.1-2.8-4.2-3.9-5.7v52.7c0,0,7,11.2,8.1,17.2
		C645.2,284.5,646.1,283.3,646.8,282.2z M638,219c0.2,0.2,0.3,0.4,0.5,0.6l-0.4-0.4C638.1,219.1,638,219,638,219z"/>
	<linearGradient id="SVGID_51_" gradientUnits="userSpaceOnUse" x1="603.4246" y1="400.9918" x2="551.1008" y2="397.2465">
		<stop  offset="0.1117" style="stop-color:#686868"/>
		<stop  offset="0.2101" style="stop-color:#29211E"/>
		<stop  offset="0.3697" style="stop-color:#686868"/>
		<stop  offset="0.5824" style="stop-color:#322B28"/>
		<stop  offset="0.885" style="stop-color:#000000"/>
	</linearGradient>
	<path class="st50" d="M590.7,390.7c-0.1,0-0.1,0-0.2-0.1l-0.4-0.1l-2.6-0.6l-3.5-0.8l-6.9-1.5l-13.9-2.9c-2.6-0.5-5.2-1-7.8-1.6
		v0.2c2.5,0.5,5.1,1,7.6,1.5l13.8,2.9l6.9,1.5l3.5,0.7l2.6,0.6l0.4,0.1c0.1,0,0.2,0.1,0.2,0.1c2.3,0.5,4.1,2.3,4.7,4.5
		c0.2,0.5,0.2,1.1,0.3,1.7c0,0.3,0,0.6-0.1,0.8l0,0.2l0,0.1l0,0.2l-0.1,0.8c-0.4,2.2-0.8,4.4-1.2,6.6c-0.6,2.9-1.3,5.9-2,8.8
		c0.1,0,0.2,0,0.4,0c0.7-2.8,1.3-5.6,1.9-8.5c0.4-2.3,0.9-4.5,1.2-6.8l0.1-0.9l0-0.2l0-0.1l0-0.2c0.1-0.3,0-0.6,0.1-0.9
		c0-0.6-0.1-1.1-0.3-1.7C594.9,393.1,593,391.2,590.7,390.7z"/>
	<linearGradient id="SVGID_52_" gradientUnits="userSpaceOnUse" x1="804.7452" y1="355.0895" x2="540.5364" y2="336.1778">
		<stop  offset="0.1117" style="stop-color:#686868"/>
		<stop  offset="0.2101" style="stop-color:#29211E"/>
		<stop  offset="0.3697" style="stop-color:#686868"/>
		<stop  offset="0.5824" style="stop-color:#322B28"/>
		<stop  offset="0.885" style="stop-color:#000000"/>
	</linearGradient>
	<path class="st51" d="M759.2,374.2c0.5,10.5-0.8,21.1-3.9,31.3c-0.2,0.7-0.6,1.3-1,1.7c-2.3,2.3-6.8,1-6.9-2.8
		c-0.3-7.7-3-15.2-9.7-21.5c-0.8-0.8-1.2-1.9-1.2-3c0,0.6,0,1.3-0.1,1.9c-0.4-0.3-0.8-0.7-1.2-1c-0.2-0.1-0.4-0.3-0.6-0.4
		c-1.3-0.8-6.1-3.4-14.9-4.9c-7.9-1.3-53-0.1-77.4-2.1c-4.7-0.4-6.6-6-3.4-9.2c0.1-0.1,0.2-0.2,0.3-0.3c6.4-5.6,13.9-12.4,21.2-19.7
		c11.3-11.3,22-23.6,27.2-33.9c2.7-5.3,3.4-11.2,2.7-17.2l-0.6,2.5c-0.6-0.6,0.5-3,0.4-3.9c-1.7-12.1-10.5-27.9-13.5-33.3l-0.1,7.9
		c6.6,13.1,10.3,27.6,4.4,39.2c-10.5,20.7-40.9,47.3-56.9,60.5l0,0c-14.6-0.5-28.8-1.4-42.1-2.6c17.3-15,65.2-57.1,75-71.6
		c10.9-16.1-2.4-52.8-5.1-59.7l-1.1,8.5c4.2,12.7,5,26,3.9,36.4c-1.8,17.1-26.5,36.4-26.5,36.4l-55.5,49.1
		c-5.3-0.5-10.4-1.1-15.3-1.7l-1.7,1v7c3.5,0.7,7.1,1.4,10.6,2.1l14,2.9l7,1.5l3.5,0.8l1.7,0.4l0.9,0.2l0.4,0.1l0.6,0.2
		c1.7,0.4,3.4,1.1,5,1.9c1.5,0.9,3,1.9,4.3,3.2c1.3,1.3,2.4,2.7,3.3,4.2c0.5,0.7,0.8,1.6,1.2,2.4c0.3,0.8,0.7,1.7,0.9,2.5
		c0.5,1.7,0.8,3.5,0.8,5.3c0,0.9,0,1.8-0.1,2.7l-0.1,0.7l0,0.3l0,0.2l-0.2,0.9c-0.4,2.4-0.8,4.8-1.3,7.2c-0.5,2.4-1,4.9-1.6,7.3
		c30.1,3.3,67.2,7.4,92.2,10.5c0.4-3.2,0.7-6.3,0.9-9c0.2-3.7-2.5-6.9-6.1-7.3l-73.8-8.8c-3.8-0.5-6.6-4-6.1-7.8
		c0.2-1.6,0.9-3,2-4.1c1.5-1.5,3.6-2.3,5.8-2l73.8,8.8c10.9,1.3,19,11,18.4,22c-0.2,3.1-0.5,6.5-1,10.1c7.4,1,12.4,1.8,14.1,2.3
		c11.3,3.3,20,15.3,20,26s10.8,8.5,11.3-7.5s2-74,2-74L759.2,374.2z"/>
</g>
<g>
	<linearGradient id="SVGID_53_" gradientUnits="userSpaceOnUse" x1="507.7483" y1="193.9189" x2="507.7483" y2="371.7544">
		<stop  offset="0" style="stop-color:#686868"/>
		<stop  offset="0.4477" style="stop-color:#000000"/>
	</linearGradient>
	<path class="st52" d="M392.1,287.5c6.1,11.2,12.3,18.5,15.9,22.2c1.4,1.5,1.4,3.8,0,5.3c-0.1,0.1-0.2,0.2-0.4,0.3
		c-1.2,0.9-2.5,2-3.7,3.3c-3.6,3.6-7.3,8.5-10.8,13.7c1,2.1,2.9,5.4,6.1,9.2c0.8-0.9,1.6-1.8,2.5-2.6c0.5-0.5,1.1-1.1,1.7-1.6
		c2.4-2.2,5-4.3,7.7-6.1c1.4-0.9,2.8-1.8,4.2-2.6c1.5-0.7,2.9-1.6,4.5-2.2c6.2-2.7,13-4.1,19.8-3.8c6.9,0.2,13.6,2.4,19.4,6
		c0.8,0.4,1.4,0.9,2.1,1.4l2.1,1.5l1.9,1.7c0.6,0.6,1.3,1.1,1.8,1.8c1.1,1.3,2.3,2.4,3.3,3.8l1.5,2c0.5,0.7,0.9,1.4,1.3,2.1l1.3,2.1
		l1.1,2.1c0.7,1.4,1.4,2.8,2.1,4.2c0.9,2,1.8,4,2.5,6.1c0.2,0,0.4,0,0.6,0c9.9,0.6,19.5,2,29,3.4c9.5,1.5,18.9,3.1,28.3,4.9
		c9.4,1.8,18.7,3.6,28.1,5.5l3.3,0.7l12.8-8.2c-0.1,0-0.3,0-0.4,0c8.2-7.1,23.4-20.4,38.1-34l1-9.7l-48.4,42.8
		c-6-0.6-11.8-1.3-17.4-1.9l6.2-4.1c0,0,35-25.9,60.8-48.7l1.4-13.3l-0.7-0.1c-41.4,38.1-79.9,54.6-93.7,59.6
		c-3.3,1.2-6.9,1.5-10.3,0.8l-16.7-3.4c0,0-9.9-1-25.2-21.6c-15.3-20.6-44.3-23.6-44.3-23.6l-11.4-10.7
		c-25.6-24.8-26.7-53.4-26.7-53.4s-1.4-21-1.6-48.2l-0.8,0V287.5z"/>
	<linearGradient id="SVGID_54_" gradientUnits="userSpaceOnUse" x1="616.2245" y1="234.3301" x2="616.2245" y2="284.3119">
		<stop  offset="0" style="stop-color:#686868"/>
		<stop  offset="0.4477" style="stop-color:#000000"/>
	</linearGradient>
	<path class="st53" d="M616.7,242.6c-5.9,16.3-1.9,32.1,2,41.7v-50C618.5,236.8,617.8,239.5,616.7,242.6z"/>
	<linearGradient id="SVGID_55_" gradientUnits="userSpaceOnUse" x1="466.3497" y1="203.7077" x2="466.3497" y2="234.1395">
		<stop  offset="0" style="stop-color:#686868"/>
		<stop  offset="0.4477" style="stop-color:#000000"/>
	</linearGradient>
	<path class="st54" d="M468.6,203.8c0,0-2.1,15-13.5,30.3l18.7-14.1c0,0,6.5-5.4,2.7-11.5C472.6,202.5,468.6,203.8,468.6,203.8z"/>
	<linearGradient id="SVGID_56_" gradientUnits="userSpaceOnUse" x1="516.7958" y1="371.4687" x2="516.7958" y2="382.4213">
		<stop  offset="0" style="stop-color:#686868"/>
		<stop  offset="0.4477" style="stop-color:#000000"/>
	</linearGradient>
	<path class="st55" d="M483.1,371.9c8,0.6,16.2,1.7,24.4,3c9.3,1.4,18.5,3,27.8,4.7c5,0.9,9.9,1.9,14.9,2.8c0.1-0.1,0.3-0.1,0.4-0.2
		c-5.1-1-10.2-2-15.2-3c-9.3-1.7-18.6-3.4-27.9-4.8c-8.2-1.3-16.4-2.4-24.5-3c0.2,1.7,0.3,3.3,0.5,5c0,0,0.1,0,0.1,0
		C483.4,375,483.3,373.4,483.1,371.9z"/>
	<linearGradient id="SVGID_57_" gradientUnits="userSpaceOnUse" x1="439.9391" y1="332.5505" x2="439.9391" y2="365.4292">
		<stop  offset="0" style="stop-color:#686868"/>
		<stop  offset="0.4477" style="stop-color:#000000"/>
	</linearGradient>
	<path class="st56" d="M469.1,355.1c-0.6-1.3-1.3-2.5-2-3.8l-1.1-1.9l-1.1-1.7c-0.4-0.6-0.7-1.2-1.1-1.7l-1.2-1.6
		c-0.4-0.5-0.8-1-1.3-1.5l-1.4-1.4c-0.4-0.5-1-0.9-1.4-1.3l-1.5-1.3l-1.6-1.1c-0.5-0.4-1-0.8-1.6-1.1c-4.5-2.6-9.5-4.1-14.7-4.2
		c-5.2-0.1-10.4,1.1-15.2,3.3c-1.2,0.5-2.4,1.2-3.5,1.8c-1.2,0.7-2.3,1.4-3.4,2.2c-2.2,1.6-4.3,3.3-6.3,5.2
		c-0.2,0.2-0.5,0.5-0.7,0.7c-1.1,1.1-2.1,2.2-3,3.3c0.2,0.2,0.4,0.4,0.7,0.5c0.9-1,1.8-1.9,2.7-2.8c0.2-0.2,0.5-0.4,0.7-0.7
		c2-1.8,4.1-3.5,6.3-5.1c1.1-0.8,2.3-1.5,3.4-2.1c1.2-0.6,2.3-1.3,3.5-1.8c4.8-2.1,10-3.3,15.1-3.2c5.2,0.1,10.2,1.6,14.6,4.1
		c0.6,0.3,1.1,0.7,1.6,1l1.6,1.1l1.5,1.3c0.5,0.4,1,0.8,1.4,1.3l1.3,1.4c0.5,0.5,0.9,1,1.3,1.5l1.2,1.5c0.4,0.5,0.7,1.1,1.1,1.6
		l1.1,1.7l1.1,1.8c0.7,1.2,1.4,2.5,2,3.7c1.2,2.5,2.3,4.9,3.1,7.4c0.2,0.7,0.4,1.3,0.5,2c-0.2-0.9-0.4-1.8-0.7-2.7
		C471.4,360.2,470.4,357.7,469.1,355.1z"/>
</g>
<linearGradient id="SVGID_58_" gradientUnits="userSpaceOnUse" x1="656.5543" y1="397.8197" x2="656.5543" y2="462.8493">
	<stop  offset="0" style="stop-color:#686868"/>
	<stop  offset="0.867" style="stop-color:#000000"/>
</linearGradient>
<path class="st57" d="M693.5,410.2l-73.8-8.8c-2.3-0.3-4.2-1.7-5.3-3.6v44.3c0,0-4.7,11.5,7.3,13c9.6,1.2,49.5,5.9,65.2,7.7
	c2.4-4.3,4.3-8.6,5.9-12.8l4.4-14.8c1.4-6.5,2.1-12.6,2.4-17.7C699.8,413.8,697.1,410.6,693.5,410.2z"/>
<linearGradient id="SVGID_59_" gradientUnits="userSpaceOnUse" x1="429.2658" y1="35.2676" x2="429.2658" y2="137.2441">
	<stop  offset="0" style="stop-color:#686868"/>
	<stop  offset="0.4477" style="stop-color:#000000"/>
</linearGradient>
<path class="st58" d="M404,127.7c1.5,3,2.8,6.2,3.9,9.5c9.1-29.4,46.9-50,46.9-50v-52c0,0-1.1,0.4-3,1.3
	C409.1,64.2,402.5,104.2,404,127.7z"/>
<g>
	<linearGradient id="SVGID_60_" gradientUnits="userSpaceOnUse" x1="253.0772" y1="435.1525" x2="253.0772" y2="530.7473">
		<stop  offset="0" style="stop-color:#686868"/>
		<stop  offset="0.867" style="stop-color:#000000"/>
	</linearGradient>
	<path class="st59" d="M258.7,505.8c1.5-14.3-6.8-56.1-9.2-70.6l-2.2,49.4l9,46.1C257.3,521.6,257.9,513.2,258.7,505.8z"/>
	<linearGradient id="SVGID_61_" gradientUnits="userSpaceOnUse" x1="282.5298" y1="499.7501" x2="282.5298" y2="574.2347">
		<stop  offset="0" style="stop-color:#686868"/>
		<stop  offset="0.867" style="stop-color:#000000"/>
	</linearGradient>
	<path class="st60" d="M280.5,499.8c0.1,3.1,0,5.8-0.3,8.2c-0.3,2.6-0.5,5.4-0.8,8.3c-0.7,8-1.6,17-3.1,26.7l9.8,31.2
		c0.9-3.8,1.6-7.7,2-11.5C290.2,540.9,287.7,520,280.5,499.8z"/>
</g>
<linearGradient id="SVGID_62_" gradientUnits="userSpaceOnUse" x1="266.4213" y1="515.8688" x2="266.4213" y2="615.7669">
	<stop  offset="0" style="stop-color:#686868"/>
	<stop  offset="0.867" style="stop-color:#000000"/>
</linearGradient>
<path class="st61" d="M279.4,515.9c0,0.2,0,0.3,0,0.5c-1.5,16.6-3.4,37.2-11.6,60.3c-2.9,8.1-6.7,15-9.8,20.6
	c-1.6,2.8-3.1,5.5-4.1,7.8c-1.2,2.5-1.3,3.5-1.3,3.8c0.1,0.2,0.4,1.1,1.7,2.8c0.9,1.2,2,2.4,3.3,3.7c0.3,0.3,0.5,0.5,0.6,0.5
	c0.5-0.1,1.5-0.4,2.9-1.2c2-1.1,4.2-2.9,6.4-5c4.6-4.6,8.7-10.6,12.1-17.4C280.7,569.4,280.1,536.6,279.4,515.9z"/>
<g>
	<linearGradient id="SVGID_63_" gradientUnits="userSpaceOnUse" x1="496.1179" y1="517.3549" x2="496.1179" y2="629.0688">
		<stop  offset="0" style="stop-color:#686868"/>
		<stop  offset="0.867" style="stop-color:#000000"/>
	</linearGradient>
	<path class="st62" d="M515.6,609.9c0-7.5-1-15.5-2-23.2l-0.2-2c-1.3-10.4-5.8-24.1-12.1-36.7c-6.5-13-14.4-23.8-21.6-29.5
		c-0.5-0.4-1-0.8-1.5-1.2c0.9,5.5,1.4,11.3,1.4,17.5c0.1,9.1-0.9,17.5-1.9,25.7c-0.4,3.3-0.8,6.5-1,9.6c6.7,4.3,21.5,18,34.4,59
		c0,0,0.1-0.1,0.1-0.1C514.1,625.6,515.6,619.1,515.6,609.9z"/>
	<linearGradient id="SVGID_64_" gradientUnits="userSpaceOnUse" x1="441.2698" y1="470.6107" x2="441.2698" y2="567.9893">
		<stop  offset="0" style="stop-color:#686868"/>
		<stop  offset="0.867" style="stop-color:#000000"/>
	</linearGradient>
	<path class="st63" d="M454.7,535.1c-0.2-31.3-15.2-51-26.2-64.3c0,0-0.1-0.1-0.1-0.1l-0.5,29.3c3.6,6.1,6.5,12.6,8.1,19.6
		c1.3,5.6,2,11.3,2.2,17.1c4.6,7.3,9.9,17.7,13.7,31.4C452.9,557.1,454.8,546.2,454.7,535.1z"/>
</g>
<g>
	<linearGradient id="SVGID_65_" gradientUnits="userSpaceOnUse" x1="477.776" y1="545.8299" x2="477.776" y2="597.8857">
		<stop  offset="0" style="stop-color:#686868"/>
		<stop  offset="0.867" style="stop-color:#000000"/>
	</linearGradient>
	<path class="st64" d="M479.4,597.9l-0.3-52.1c-0.4,5.1-0.9,9.9-1.5,14.7c-1.2,10.6-2.3,19.8-0.7,28.1
		C477.5,591.8,478.4,594.9,479.4,597.9z"/>
	<linearGradient id="SVGID_66_" gradientUnits="userSpaceOnUse" x1="495.7448" y1="567.0922" x2="495.7448" y2="709.9885">
		<stop  offset="0" style="stop-color:#686868"/>
		<stop  offset="0.867" style="stop-color:#000000"/>
	</linearGradient>
	<path class="st65" d="M540.4,609.7c0.1,13.1-2.2,26.1-10.8,35.7c-0.5,0.5-0.9,1-1.4,1.5c-7.8,7.8-19,11.3-29.8,8
		c-0.8-0.2-1.6-0.5-2.4-0.8c-6.2-2.4-11.6-6.5-16.5-11c-14-13.1-23.6-30.9-27.1-49.8c-1.7-8.8-1.4-17.5-0.5-26.2
		c-1.1,9.2-2.1,22.3-1.2,36.5c0.5,8.5,1,17.1,1.5,24.8c10.1,15.9,22.1,29.4,28.3,41.3c4.9,9.5,6,18-0.7,26c-0.3,0.3-0.5,0.6-0.8,0.9
		c6.7,4.7,15.3,9.2,26.1,13c0,0,23.7,5.7,33.3-26.3c0,0,2-8.7,2.3-25c0.3-16.3,0.3-50.7,0.3-50.7l-0.7,0.7
		C540.4,608.8,540.4,609.2,540.4,609.7z"/>
</g>
<linearGradient id="SVGID_67_" gradientUnits="userSpaceOnUse" x1="436.6712" y1="663.1009" x2="436.6712" y2="794.5068">
	<stop  offset="0" style="stop-color:#686868"/>
	<stop  offset="0.867" style="stop-color:#000000"/>
</linearGradient>
<path class="st66" d="M483.1,675.8c0,0.1,0.1,0.2,0.1,0.3c0.1,0.4,0.2,0.8,0.4,1.2c0,0.1,0.1,0.2,0.1,0.3c0.1,0.4,0.2,0.8,0.3,1.2
	c0,0.1,0,0.1,0,0.2c0.3,1.2,0.4,2.4,0.5,3.5c0,0.2,0,0.4,0,0.5c0,0.3,0,0.6,0,0.9c0,0.2,0,0.4,0,0.6c0,0.3,0,0.5-0.1,0.8
	c0,0.2-0.1,0.5-0.1,0.7c0,0.2-0.1,0.5-0.1,0.7c-0.1,0.3-0.1,0.6-0.2,0.9c-0.1,0.2-0.1,0.5-0.2,0.7c-0.1,0.4-0.2,0.8-0.4,1.2
	c-0.1,0.2-0.1,0.4-0.2,0.6c-0.1,0.3-0.2,0.6-0.4,0.9c-0.1,0.2-0.2,0.4-0.3,0.6c-0.1,0.3-0.3,0.6-0.5,0.9c-0.1,0.2-0.2,0.4-0.3,0.5
	c-0.2,0.3-0.4,0.6-0.6,0.9c-0.1,0.2-0.2,0.3-0.3,0.5c-0.3,0.5-0.7,0.9-1.1,1.4c0,0,0,0,0,0c-1,1.2-2,2.4-3.1,3.6
	c-0.7,0.8-1.4,1.5-2,2.3c-1.4,1.5-2.8,3-4.3,4.5c-0.7,0.7-1.5,1.5-2.2,2.2c-2.9,2.9-5.9,5.7-8.9,8.4l-0.1,0.1c-2.3,2-4.7,4-7,5.9
	c-0.8,0.6-1.6,1.3-2.4,1.9c-3.2,2.4-6.3,4.7-9.5,6.7c-0.1,0-0.1,0.1-0.2,0.1c0,0,0,0,0,0c0,0,0,0,0,0c0,0,0,0,0,0c0,0-0.1,0-0.1,0.1
	c-5.2,3.3-10.2,5.9-14.9,7.5c-0.5,0.2-0.9,0.3-1.4,0.5c-2.3,0.7-4.6,1.2-6.7,1.4h0c0,0,0,0,0,0c0,0,0,0,0,0
	c-2.2,0.2-4.3,0.1-6.3-0.4c-1.9-0.5-3.7-1.3-5.3-2.5c-4.9-3.6-8.4-9.8-11-17.6c0,0,0,0,0,0c-0.3-0.9-0.6-1.8-0.9-2.8
	c-0.1-0.3-0.2-0.6-0.3-1c-0.2-0.7-0.4-1.3-0.5-2c-0.1-0.4-0.2-0.8-0.3-1.2c-0.1-0.6-0.3-1.2-0.4-1.9c-0.1-0.4-0.2-0.8-0.3-1.3
	c-0.1-0.6-0.3-1.3-0.4-1.9c-0.1-0.4-0.2-0.9-0.2-1.3c-0.1-0.7-0.2-1.3-0.3-2c-0.1-0.4-0.1-0.8-0.2-1.2c-0.1-0.7-0.2-1.5-0.3-2.2
	c-0.1-0.4-0.1-0.7-0.2-1.1c-0.1-1-0.3-1.9-0.4-2.9c0-0.2,0-0.3-0.1-0.5c-0.1-1.2-0.3-2.3-0.4-3.5c0-0.2,0-0.4-0.1-0.6
	c-0.1-1-0.2-1.9-0.3-2.9c0-0.4-0.1-0.7-0.1-1.1c-0.1-0.8-0.1-1.7-0.2-2.5c0-0.4,0-0.8-0.1-1.1c-0.1-0.8-0.1-1.7-0.1-2.5
	c0-0.4,0-0.8-0.1-1.1c0-0.9-0.1-1.7-0.1-2.6c0-0.3,0-0.7,0-1c0-0.9-0.1-1.9-0.1-2.8c0-0.3,0-0.5,0-0.8c-0.1-3.7-0.2-7.4-0.2-11
	c0,0,0,0,0,0l-0.1-0.4c0,0-1.5,56.5,2,87s12.5,60.5,48.5,34.5s44-39,44-39s2-4,2.5-22s1-34.5,1-34.5s1.3-9.2-3.1-14.6
	C482.8,674.9,482.9,675.3,483.1,675.8z"/>
<g>
	<linearGradient id="SVGID_68_" gradientUnits="userSpaceOnUse" x1="346.0721" y1="487.1885" x2="346.0721" y2="585.5374">
		<stop  offset="0" style="stop-color:#686868"/>
		<stop  offset="0.867" style="stop-color:#000000"/>
	</linearGradient>
	<path class="st67" d="M353.5,543.9c-1.5-23.1-5.8-41.5-12.1-52c-0.9-1.5-2-3.1-3.3-4.8c4.2,20.5,5.9,41.6,4.9,63.2
		c3.1,6.9,7.1,18.2,10.1,35.2C354.1,573.7,354.5,559.1,353.5,543.9z"/>
	<linearGradient id="SVGID_69_" gradientUnits="userSpaceOnUse" x1="306.1049" y1="429.7305" x2="306.1049" y2="566.193">
		<stop  offset="0" style="stop-color:#686868"/>
		<stop  offset="0.867" style="stop-color:#000000"/>
	</linearGradient>
	<path class="st68" d="M293.2,429.7l-1.4,41.8c8.8,17.3,14.3,34.6,16.8,51.8c4.2,12,8.2,26.5,10.3,42.9
		C324,519.4,316.5,473.2,293.2,429.7z"/>
</g>
<g>
	<linearGradient id="SVGID_70_" gradientUnits="userSpaceOnUse" x1="333.5113" y1="559.0836" x2="333.5113" y2="681.5884">
		<stop  offset="0" style="stop-color:#686868"/>
		<stop  offset="0.867" style="stop-color:#000000"/>
	</linearGradient>
	<path class="st69" d="M328.6,681.6c0-0.5,0.1-1,0.2-1.5c10.5-31.5,14.5-82.5,14.5-82.5l-0.8-38.5c-1.7,22.6-6.3,45.7-13.7,69.3
		c-3.7,11.9-5.4,23.4-4.9,33.4C324.2,669.2,325.8,675.8,328.6,681.6z"/>
	<linearGradient id="SVGID_71_" gradientUnits="userSpaceOnUse" x1="373.7215" y1="577.318" x2="373.7215" y2="674.4926">
		<stop  offset="0" style="stop-color:#686868"/>
		<stop  offset="0.867" style="stop-color:#000000"/>
	</linearGradient>
	<path class="st70" d="M373.7,604.7c-2.4,14.8-4.2,41.7-2,69.8c2.6-17.9,5.1-33.9,5.1-33.9l-0.4-63.3
		C375.9,587.7,374.9,597.1,373.7,604.7z"/>
	<linearGradient id="SVGID_72_" gradientUnits="userSpaceOnUse" x1="349.2085" y1="657.2653" x2="349.2085" y2="708.2388">
		<stop  offset="0" style="stop-color:#686868"/>
		<stop  offset="0.867" style="stop-color:#000000"/>
	</linearGradient>
	<path class="st71" d="M348.1,657.3l-2.9,44.1c2.5,2.5,5.2,4.8,8.1,6.9C349.9,691,348.5,673.4,348.1,657.3z"/>
	<linearGradient id="SVGID_73_" gradientUnits="userSpaceOnUse" x1="341.4705" y1="661.3374" x2="341.4705" y2="793.6478">
		<stop  offset="0" style="stop-color:#686868"/>
		<stop  offset="0.867" style="stop-color:#000000"/>
	</linearGradient>
	<path class="st72" d="M379.1,737.2c-2,2-4.9,3.3-7.8,3.5l0,0c0,0,0,0,0,0c0,0,0,0,0,0c-1.1,0.1-2.3-0.1-3.4-0.4
		c-14.2-4.2-27.7-11.8-38.8-23c0,0-8.5-8.5-8.5-8.5c-2.1-2.1-4-4.3-5.7-6.5c-8.8-11.6-12.8-25.2-13.5-39.3c0-0.5,0-1.1-0.1-1.6
		c-0.8,15.5-1.9,46.2,0.6,66.8c3.5,28.5,39,54.5,58,63s23-7,23-7v-53.5c0,0-0.3-0.4-0.7-1.1C382.3,732.4,381.1,735.2,379.1,737.2z"
		/>
</g>
<path class="st73" d="M76.9,381.2c-0.3,0.3-0.6,0.6-0.9,0.9c-6.8,6.8-13.2,10.5-18.7,10.7c-6.8,0.3-11.6-5.5-12.8-9.7
	c-0.2-0.7-0.2-1.1-0.3-1.3c-0.1-1.1,0-2.2,0.2-3.2l0-0.3c0.6-2.8,2.1-5.4,4.1-7.5c1.4-1.4,4.2-3.6,7.9-3.5c0.5,0,1,0.1,1.6,0.2
	c11.9,2.7,24,1,35.2-4.5C88.9,368.5,83.5,374.3,76.9,381.2z M121.2,299.1c-0.2,0.2-0.4,0.5-0.5,0.8c-5.9,13.5-15.9,35.1-20.6,39.9
	c-7.1,7.1-20.8,17-38.6,13c-1.5-0.3-2.9-0.5-4.4-0.6c-7.3-0.3-14.1,2.9-19.1,7.9c-4.2,4.2-7.1,9.6-8.3,15.4l0,0
	c-0.5,2.4-0.7,4.8-0.5,7.2c0.1,1.5,0.4,3,0.8,4.5c3,10.3,13.4,21.2,27.9,20.6c8.4-0.4,18.2-4.6,28.8-15.1c0.4-0.4,0.7-0.7,1.1-1.1
	c29.5-30.6,37-43.3,37.7-90.7C125.4,298.6,122.6,297.7,121.2,299.1z"/>
<path class="st73" d="M62.8,429.8L62.8,429.8"/>
<path class="st73" d="M81.8,426.4c-0.2,0.2-0.3,0.3-0.5,0.5c-1.8,1.8-3.8,3.3-5.8,4.4c-4.8,2.7-8.6,2.2-10.1,1.5c0,0,0,0-0.1,0
	c-0.2-0.1-0.3-0.1-0.3-0.1c-0.4-0.4-1-1.1-1.5-1.7c0.3-0.2,0.9-0.5,2.3-1c1.2-0.4,2.6-0.8,4.1-1.2c4.1-1.1,9.2-2.5,14.2-5.5
	c0.4-0.2,0.8-0.5,1.4-0.8C84.4,423.7,83.2,425,81.8,426.4z M128.5,344.1c-0.3,0.3-0.5,0.6-0.6,1.1c-3.2,9.6-8.9,24.3-16.4,34.2
	c-3,4-6.3,7.6-9.6,11c-9.9,9.9-20.4,17-25.3,19.9c-4.8,2.9-10.5,3.7-15.5,5.4c-3,1-5.9,2.4-8.2,4.8c-0.9,0.9-1.7,1.9-2.4,3
	c-2.8,4.6-3,8.4-1.9,11.6c1.1,3.2,3.5,5.8,5.7,8.1c1.3,1.3,2.9,2.5,4.7,3.4c6.1,2.9,15,3,23.9-1.9c3.1-1.7,6.2-4,9.2-7
	c0.2-0.2,0.5-0.5,0.7-0.7c8.6-9,15.9-16.8,21.8-26.4c9.7-15.7,11.5-21.8,13.9-31.6c2.8-11.5,5.9-21.8,4.6-33.2
	C132.7,343.4,129.9,342.7,128.5,344.1z"/>
<path class="st73" d="M192.1,450.9c-3.1,34.3-14.8,60-25.1,70.4c-0.7,0.7-1.5,1.4-2.2,1.9c-0.5,0.4-0.9,0.7-1.3,0.9
	c-0.6-0.7-1.2-1.3-1.7-2c0,0,0,0-0.1-0.1c-2.2-2.9-4.9-7.9-3.3-17.9c1.9-11.7,8.7-26.5,21-45.4c4.5-7,8.4-14.5,11.6-22.3
	C191.4,440.6,191.6,445.4,192.1,450.9z M188.6,368c-0.3,0.3-0.5,0.7-0.6,1.3c-1.9,15.8-7.9,52.9-24.7,78.8
	c-11.9,18.2-21.3,36.5-23.9,52.9c-1.9,12.1-0.2,23.2,6.9,32.7c1.2,1.5,2.5,3.1,3.9,4.5c1.1,1.1,2.3,2.1,3.5,2.9
	c7.2,4.8,15.3,3.5,23.1-2.7c1.3-1,2.6-2.2,3.9-3.5c14.8-14.8,27.8-46.3,30.9-84.1c-3-39.1,1.7-38.2-19.4-82.3
	C191.4,367.2,189.6,367.1,188.6,368z"/>
<path class="st73" d="M226.5,524.8c-0.8,20.1-7.5,33.5-13.4,39.4c-0.9,0.9-1.7,1.6-2.6,2.2c-1.1,0.7-1.8,0.9-2,0.9
	c-0.1,0-0.2-0.1-0.4-0.2c0,0,0,0-0.1,0c-0.3-0.2-0.7-0.5-1.2-1.1c-0.4-0.4-0.6-0.7-0.6-0.7c0,0,0-0.1-0.1-0.1
	c-1.2-1.8,0.4-6.7,1.1-8.8c2.1-6.1,6.1-13.3,10-20.2c1-1.9,2.1-3.8,3.1-5.6c1.9-3.6,4.2-8.3,6.4-13.6
	C226.7,519.6,226.6,522.2,226.5,524.8z M220.9,421.8c-0.3,0.3-0.3,1.2-0.1,2.2c0.8,3.8,1.3,7.7,1.3,11.6c0.1,10.8-1.8,29-5.8,48.4
	c-2,9.8-9.2,28-14,36.9c-5,9.3-11,19.2-14.4,28.8c-3.4,9.6-4.2,18.9,1.1,26.9c0.8,1.2,1.8,2.4,2.9,3.6c1.5,1.6,3.1,3,4.8,4
	c7.9,5.3,16.9,4.7,25.1-0.7c2-1.3,3.9-2.9,5.8-4.8c10.4-10.4,18.4-29,19.4-53.1c2.1-49.9-8-84.4-22-100.8
	C222.5,422,221.3,421.3,220.9,421.8z"/>
<path class="st73" d="M288.1,562.7c-1.7,17.7-9.8,36-20.6,46.8c-2.2,2.2-4.4,3.9-6.4,5c-1.4,0.8-2.4,1.1-2.9,1.2
	c-0.1-0.1-0.3-0.2-0.6-0.5c-1.3-1.3-2.4-2.5-3.3-3.7c-1.3-1.7-1.6-2.6-1.7-2.8c0-0.2,0.1-1.2,1.3-3.8c1-2.2,2.5-4.9,4.1-7.8
	c3.1-5.6,6.9-12.5,9.8-20.6c8.2-23.1,10.1-43.7,11.6-60.3c0.3-3,0.5-5.7,0.8-8.3c0.2-2.4,0.3-5.2,0.3-8.2
	C287.7,520,290.2,540.9,288.1,562.7z M251.3,425.6c-0.1,0.1-0.2,0.2-0.3,0.3c-1.3,1.5-2.1,2.8-2.3,4.3c-0.3,2.5,11.7,58.5,9.9,75.6
	c-1.8,17.1-2.6,39.2-11.3,63.7c-3.7,10.4-9.5,18.7-13.1,26.6c-4.1,9.1-5.4,17.7,2.8,28.5c1.4,1.9,3.2,3.9,5.2,5.9
	c1.3,1.3,2.7,2.4,4,3.3c7.8,5.2,16.7,4.4,25.3-0.4c3.8-2.1,7.5-5,11.1-8.6c13.4-13.4,24.5-36.1,26.9-60
	c4.5-45.8-8.4-92.2-49.2-138.9C258,423.1,253.8,423.1,251.3,425.6z"/>
<path class="st73" d="M638,219L638,219L638,219z M638,219c0,0,0,0.1,0.1,0.2l0.4,0.4C638.4,219.4,638.2,219.2,638,219L638,219z"/>
<g>
	<path class="st73" d="M445.2,28.9c-7.6,3.5-14.5,7.9-20.7,13c-2.5,2.1-4.9,4.3-7.2,6.5c-48.4,48.4-46.8,143.4-41,188.7
		c5.4,42,24.2,64.9,31.6,72.5c1.4,1.5,1.4,3.8,0,5.3c-0.1,0.1-0.2,0.2-0.4,0.3c-1.2,0.9-2.5,2-3.7,3.3
		c-13.2,13.2-27.4,43.1-27.4,43.1c-11.9,24.9-12.3,45.2-11.9,53.4c0,0.8-0.3,1.6-0.8,2.1c-0.7,0.7-1.7,1-2.7,0.7
		c-5.6-1.6-15.5-4.5-18.1-5.3c-3.7-1.1-3.2-5.7-3.2-5.7c0-12.2,1.8-15.5,4.4-39.7c-31.5-39.7-37.1-52.4-39.1-86
		c-2-33.6-40.1-87-52.3-123.6c-1.3-3.8-2-7.7-2.4-11.6c-1-9.8,0.6-19.8,3.3-29l76-76C360.9,9.4,409.6,5.5,445.2,28.9z"/>
</g>
<path class="st73" d="M199.4,237.9L199.4,237.9"/>
<path class="st73" d="M236.8,278c12.5,12.5,12.5,32.8-0.1,45.3c-2,2-4.3,3.8-6.7,5.2c-2.2,1.3-5-0.5-4.8-3.1
	c1.2-15,2.8-31.3,4.8-46.7c0.1-0.8,0.4-1.4,0.9-1.9c1.1-1.1,3-1.4,4.4-0.2C235.9,277.1,236.4,277.5,236.8,278z"/>
<path class="st73" d="M247.5,267.3c18.4,18.4,18.3,48.3-0.1,66.7c-5.5,5.5-12.1,9.5-19.4,11.7c-2.1,0.7-4.3-1.1-4.1-3.3
	c0,0,0-0.1,0-0.1c0.1-0.8,0.4-1.5,0.9-2c0.4-0.4,0.8-0.6,1.3-0.8c6.2-1.9,12-5.4,16.7-10.1c15.9-15.9,15.9-41.7,0.1-57.5
	c-2.7-2.7-5.7-4.9-8.9-6.7c-1.2-0.6-1.8-2-1.6-3.3c0,0,0,0,0-0.1c0.1-0.7,0.4-1.3,0.9-1.8c1-1,2.5-1.3,3.9-0.5
	C241,261.6,244.5,264.2,247.5,267.3z"/>
<path class="st73" d="M296.9,324.6c10.1,14.5,24.5,39.8,28.7,47.2c0.4,0.7,0.5,1.5,0.3,2.2l-6.5,31.1c-0.1,0.6-0.4,1.2-0.9,1.6
	c-0.9,0.9-2.4,1.3-3.7,0.6L294.9,397c-0.9-0.5-1.6-1.4-1.7-2.4c-1-8.2-4.5-29.2-13.3-43.6c-0.7-1.1-0.6-2.5,0.2-3.5
	c4.9-6.9,8.6-14.3,11.1-22c0.2-0.5,0.4-1,0.8-1.3C293.4,322.8,295.7,322.8,296.9,324.6z M271.5,243.3c-7.8-7.8-17.1-13.9-27.3-18
	c-1.2-0.5-2.6-0.2-3.5,0.7c-0.4,0.4-0.6,0.8-0.8,1.3c0,0,0,0,0,0.1c-0.5,1.6,0.3,3.3,1.8,3.9c9.4,3.7,18,9.4,25.1,16.5
	c26.9,26.9,29.2,69.6,5.4,99.2c-1.7,2.1-3.6,4.2-5.5,6.1c-5.2,5.2-11,9.5-17.4,13c-0.1,0.1-0.3,0.1-0.4,0.2l-5.3,2l0.2,0.5
	c-6,2.6-12.4,4.4-19,5.4c-0.1,0-0.2,0-0.3,0c-0.7,0.1-1.4,0.4-1.8,0.9c-0.5,0.5-0.9,1.3-0.9,2.1c-0.1,2.1-0.2,3.4-0.2,3.7
	c0,0.1,0,0.1,0,0.2l-2.9,24c-0.1,1,0.2,2,1,2.7l14.8,14.3c1.2,1.2,3.2,1.2,4.4,0l13.3-12.6c1.2-1.1,3.1-1.2,4.3-0.1l12.4,10.9
	c1.3,1.1,3.2,1.1,4.4-0.1l0,0l16.1-16.5l0,0c1-1,2.5-1.2,3.7-0.6l26.3,13.6c1.3,0.7,2.8,0.4,3.7-0.6c0.4-0.4,0.7-1,0.9-1.6l8.7-41.8
	c0.2-0.7,0-1.5-0.3-2.2l0,0c-1-1.8-25.2-45.2-36.2-57.8c-0.5-0.6-1-1.2-1.5-1.7l-0.3,0.2C297.8,287.2,290,261.8,271.5,243.3z
	 M250.8,400.6c0.1,0.9-0.3,1.9-0.9,2.5l-0.1,0.1l-10.9,10.2c-1.2,1.2-3.2,1.2-4.4,0l-8-7.7c-0.7-0.7-1.1-1.7-1-2.7l2.4-20.3
	c0.1-0.7,0.4-1.4,0.9-1.9c0.4-0.4,1-0.8,1.7-0.9c4.2-0.9,8.4-2.1,12.4-3.6c1.7-0.7,3.7,0.3,4.2,2c1.7,5.5,2.8,11.2,3.2,17
	L250.8,400.6z M285.9,398.3l-13,13.3l0,0c-1.2,1.2-3.1,1.3-4.4,0.1l-10.2-9c-0.6-0.5-1-1.3-1.1-2.2l-0.4-5.8
	c-0.5-6.9-1.9-13.6-4-20.1c-0.4-1.2-0.1-2.4,0.8-3.2c0.2-0.2,0.4-0.4,0.7-0.5c6.2-3.6,12-7.9,17.1-13.1l0.2-0.2c0,0,0,0,0,0
	c1.6-1.6,4.2-1.2,5.2,0.8c6.5,13,9.2,30.3,10.1,37.1C286.9,396.6,286.6,397.6,285.9,398.3z"/>
<path class="st73" d="M260.5,254.3c25.5,25.5,25.5,67.1-0.1,92.6c-9.4,9.4-21.2,15.6-34,18.1c-0.3,0-0.5,0.1-0.8,0.1
	c-0.8-0.1-1.5-0.4-2-0.9c-0.6-0.6-1-1.5-0.9-2.5c0,0,0,0,0-0.1c0.1-0.8,0.4-1.5,0.9-2.1c0.4-0.4,1-0.7,1.6-0.9
	c11.5-2.2,22.2-7.8,30.6-16.3c23-23,23.1-60.5,0.1-83.5c-5.3-5.3-11.5-9.5-18.2-12.4c-0.4-0.2-0.7-0.4-1-0.7
	c-0.7-0.7-1.1-1.9-0.9-2.9c0,0,0,0,0-0.1c0.1-0.6,0.5-1.2,0.9-1.6c0.9-0.9,2.3-1.2,3.5-0.7C247.8,243.8,254.7,248.4,260.5,254.3z"/>
<path class="st73" d="M241.9,197.6c-5.6-0.1-10.8,2.1-14.8,6c-4.8,4.8-6.4,11.1-6.9,15.8l-1.3,3.4c0,0,0,0,0,0
	c-0.6,1.5-12.2,32.5-17.6,104c-4-8.3-8-18-11-29.3c-5.1-18.6,4.5-48.4,8.9-59.1c1.9-3.6,10.3-19.3,19.6-38.1
	c4.8-9.6,9.1-18.5,12.8-26.6C234.9,182.4,239,191.5,241.9,197.6z M224.2,146.2c-0.4,0.4-0.7,0.9-0.8,1.5c-0.9,3.4-1.9,6.7-3.1,9.3
	c-5.1,11.6-11.2,24.3-17,35.8c-10,20-18.9,36.6-19.7,38.2c0,0.1-0.1,0.2-0.1,0.3c-1.1,2.7-17.7,42.5-9.9,70.9
	c8,29.4,21.3,48.6,26.7,60c4.1,8.9,12.6,36.4,15.1,33.9c0.7-0.7,1-3.7,0.6-9.9c-0.1-1.1,0-2.1,0.1-3.2c0.1-5.6,0.2-11,0.4-16.3
	c0-0.2,0-0.3,0-0.5c3.3-97.5,18.6-137.1,18.6-137.1l2.4-6.1l0,0c0-0.6-0.1-5.2,1.9-7.2c1.8-1.8,5.4-1.5,12.2,6.1
	c7.1,7.8,10.5,8.2,12.3,6.5c1.9-1.9,1.6-6.4,1.6-6.4s-0.1-16.9-5.4-26.9c-5.3-9.9-16.4-36.3-16.8-42c0-0.1,0-0.1,0-0.2
	c-0.3-2.2-3.5-12.5-2.6-21.1c0.1-0.7,0.2-1.5,0.2-2.1L224.2,146.2z"/>
<path class="st73" d="M599.2,379c-1.6-0.8-3.3-1.5-5-1.9l-0.6-0.2l-0.4-0.1l-0.9-0.2l-1.7-0.4l-3.5-0.8l-7-1.5l-14-2.9
	c-9.3-1.9-18.7-3.8-28.1-5.5c-9.4-1.8-18.8-3.4-28.3-4.9c-9.5-1.4-19-2.8-29-3.4c-0.2,0-0.4,0-0.6,0c-0.7-2.1-1.6-4.2-2.5-6.1
	c-0.7-1.4-1.4-2.8-2.1-4.2l-1.1-2.1l-1.3-2.1c-0.4-0.7-0.8-1.4-1.3-2.1l-1.5-2c-1-1.4-2.2-2.6-3.3-3.8c-0.5-0.6-1.2-1.2-1.8-1.8
	l-1.9-1.7l-2.1-1.5c-0.7-0.5-1.4-1-2.1-1.4c-5.8-3.6-12.6-5.7-19.4-6c-6.8-0.3-13.7,1.2-19.8,3.8c-1.6,0.7-3,1.5-4.5,2.2
	c-1.4,0.8-2.9,1.7-4.2,2.6c-2.7,1.8-5.3,3.9-7.7,6.1c-0.6,0.5-1.1,1.1-1.7,1.6c-8.7,8.7-14.9,19.6-18.5,31.4
	c-3.7,12.4-4.3,26-0.5,38.9c1.8,6.4,4.8,12.6,9,18.1c4.2,5.4,9.6,10.1,16,13.2c6.3,3.1,13.4,4.6,20.4,4.5c7-0.1,13.8-1.8,20.1-4.6
	c7-3.2,13.2-7.7,18.5-13c3.3-3.3,6.3-6.9,8.9-10.8c0.4,0.2,0.7,0.4,1.1,0.6l1.2,0.8l0.6,0.4l0.6,0.5c3.3,2.3,6.5,5.3,9.7,8.2
	c1.6,1.5,3.2,3,4.7,4.6l4.7,4.7l4.9,4.9c1.6,1.6,3.4,3.2,5,4.8c6.8,6.3,14.1,12.3,21.7,17.7c3.9,2.7,7.8,5.3,11.9,7.7l3.1,1.8
	l3.2,1.7c1.1,0.5,2.2,1.1,3.3,1.6c0.6,0.3,1.1,0.5,1.7,0.8l0.9,0.4l0.4,0.2l0.1,0.1c0.3,0.1,0.5,0.3,0.7,0.4
	c0.5,0.2,0.9,0.4,1.4,0.6c0.5,0.2,0.9,0.3,1.4,0.4l1.4,0.3c0.9,0.2,1.8,0.3,2.8,0.3c0.9,0,1.8,0,2.7,0c3.6-0.3,6.8-1.6,9.6-3.1
	c2.7-1.6,5-3.5,7-5.5c2-2,3.8-4.2,5.4-6.4c6.1-8.8,10.1-17.9,13.5-27.3c3.3-9.4,5.8-18.9,7.8-28.5c0.5-2.4,0.9-4.8,1.3-7.2l0.2-0.9
	l0-0.2l0-0.3l0.1-0.7c0.1-0.9,0.1-1.8,0.1-2.7c-0.1-1.8-0.3-3.6-0.8-5.3c-0.2-0.9-0.6-1.7-0.9-2.5c-0.4-0.8-0.8-1.6-1.2-2.4
	c-0.9-1.5-2.1-2.9-3.3-4.2C602.2,381,600.7,379.9,599.2,379z M595.5,395.3c0.2,0.5,0.2,1.1,0.3,1.7c0,0.3,0,0.6-0.1,0.9l0,0.2l0,0.1
	l0,0.2l-0.1,0.9c-0.4,2.3-0.8,4.5-1.2,6.8c-1.8,9-4.2,17.9-7.2,26.5c-1.5,4.3-3.2,8.5-5.2,12.5l-1.5,3c-0.5,1-1.1,1.9-1.6,2.9
	c-1,2-2.2,3.7-3.4,5.4c-1.2,1.7-2.6,3.3-3.9,4.7c-1.3,1.3-2.7,2.4-4,3.2c-1.4,0.7-2.7,1.2-3.8,1.3c-0.3,0-0.6,0-0.8,0
	c-0.2-0.1-0.5,0-0.8-0.1c-0.1,0-0.2,0-0.4-0.1c-0.1,0-0.2-0.1-0.3-0.1c-0.1,0-0.2-0.1-0.3-0.1c0,0,0,0,0,0l0,0c0,0,0.2,0.1,0.2,0.1
	l-1.5-0.8l-0.5-0.2l-0.7-0.3c-0.5-0.2-0.9-0.4-1.4-0.6c-0.9-0.4-1.9-0.9-2.8-1.4l-2.8-1.5l-2.8-1.6c-3.7-2.2-7.3-4.5-10.9-7
	c-7.1-5-13.9-10.6-20.3-16.5c-1.6-1.5-3.2-3-4.8-4.5l-4.7-4.7l-4.9-4.9c-1.6-1.6-3.4-3.2-5-4.8c-3.5-3.2-7-6.3-11.1-9.3
	c-2-1.5-4.2-2.9-7-4.2l-1.1-0.5l-0.6-0.2c-0.2-0.1-0.4-0.1-0.6-0.2c-0.5-0.1-1-0.3-1.5-0.4c-0.3-0.1-0.5-0.1-0.8-0.2
	c-0.3,0-0.7-0.1-1-0.1c-1.2-0.1-3-0.1-5.1,0.9c-0.6,0.3-1.1,0.6-1.6,0.9c-0.4,0.3-0.7,0.6-1.1,0.9c-0.1,0.1-0.3,0.3-0.4,0.4
	c-0.4,0.5-0.8,1.1-1.1,1.7c-0.1,0.2-0.2,0.3-0.2,0.5c-2.5,4.2-5.5,8-8.9,11.4c-4,4-8.6,7.4-13.6,9.8c-4.7,2.2-9.7,3.5-14.8,3.7
	c-5,0.2-10-0.8-14.5-2.9c-9.1-4.2-15.9-13-18.9-23.2c-3.2-10.2-3-21.6,0-32.2c2.9-10.3,8.3-20,15.8-27.6c0.2-0.2,0.5-0.5,0.7-0.7
	c2-1.9,4.1-3.6,6.3-5.2c1.1-0.8,2.3-1.5,3.4-2.2c1.2-0.6,2.3-1.3,3.5-1.8c4.8-2.2,10-3.4,15.2-3.3c5.2,0.1,10.2,1.6,14.7,4.2
	c0.6,0.3,1.1,0.7,1.6,1.1l1.6,1.1l1.5,1.3c0.5,0.4,1,0.8,1.4,1.3l1.4,1.4c0.5,0.5,0.9,1,1.3,1.5l1.2,1.6c0.4,0.5,0.7,1.1,1.1,1.7
	l1.1,1.7l1.1,1.9c0.7,1.3,1.4,2.5,2,3.8c1.2,2.5,2.3,5,3.1,7.6c1.5,5.1,2,11,2.7,17l0,0c0.3,2.4,2.4,4.1,4.8,3.9
	c1.1-0.1,2-0.6,2.7-1.3c0.9-0.9,1.4-2.2,1.3-3.6c-0.2-2.4-0.4-4.9-0.7-7.4c8,0.6,16.3,1.8,24.5,3c9.3,1.4,18.6,3.1,27.9,4.8
	c9.3,1.7,18.6,3.6,27.8,5.5l13.9,2.9l6.9,1.5l3.5,0.8l2.6,0.6l0.4,0.1c0.1,0,0.2,0.1,0.2,0.1C593,391.2,594.9,393.1,595.5,395.3z"/>
<path class="st73" d="M713.6,418.2c-0.3,6.2-1.2,13.5-3,21.4c-3.1,13.6-9,28.9-20,43.4l-1.4,1.8c-3.8,5-8.4,11.2-13.9,16.7
	c-6.7,6.7-14.5,12.2-23.4,13.1c-5.3,0.5-9.9-0.6-14-2.3c-2.1-0.9-4.1-1.8-6-2.8c-1.4-0.7-2.6-1.3-3.9-1.9c-3.8-1.7-7.8-3.2-11.6-4.7
	c-2.7-1.1-5.5-2.1-8.2-3.3l-26.3-10.9c-3.6-1.5-5.3-5.6-3.8-9.2c0.4-0.9,0.9-1.7,1.5-2.3c1.9-1.9,4.9-2.6,7.7-1.5l26.3,10.9
	c2.6,1.1,5.3,2.1,7.9,3.2c4,1.6,8.2,3.2,12.2,5c1.5,0.7,3,1.4,4.4,2.1c4.1,2,7.7,3.8,11.4,3.8c0.3,0,0.7,0,1,0
	c4.9-0.5,10.1-4.3,14.8-9c4.9-4.9,9.3-10.8,12.7-15.2l1.4-1.9c2.7-3.5,5-7.1,7-10.7c9.5-16.9,12.5-34,13.2-46.3
	c0.2-3.7-2.5-6.9-6.1-7.3l-73.8-8.8c-3.8-0.5-6.6-4-6.1-7.8c0.2-1.6,0.9-3,2-4.1c1.5-1.5,3.6-2.3,5.8-2l73.8,8.8
	C706.1,397.5,714.2,407.2,713.6,418.2z"/>
<g>
	<g>
		<linearGradient id="SVGID_74_" gradientUnits="userSpaceOnUse" x1="91.6793" y1="235.6009" x2="91.6793" y2="353.7259">
			<stop  offset="0" style="stop-color:#686868"/>
			<stop  offset="0.867" style="stop-color:#000000"/>
		</linearGradient>
		<path class="st74" d="M57.1,352.2c1.4,0.1,2.9,0.2,4.4,0.6c17.7,4,31.5-6,38.6-13c4.8-4.8,14.7-26.3,20.6-39.9
			c0.1-0.3,0.3-0.6,0.5-0.8c1.4-1.4,4.2-0.5,4.2,1.8c-0.1,6.3-0.3,12-0.7,17.2c4.1-10.8,7.2-20.4,8.8-25.5
			c-0.2-7.3,0.1-15.1,1.2-23.3v-33.8l-0.1,0.1c-3.8,10.7-7.9,23.5-9,30.4c-0.2,1.5-0.7,3.5-1.4,5.7c-5.2,17-22,51.8-32.4,62.2
			c-0.5,0.5-1.1,1-1.6,1.4c-9.1,7.3-18,11.9-28.9,6.1c-2.8-1.5-5.8-3.7-8.9-6.8c-3.2-3.1-3.4-8.2-1.8-14.5c0,0,0-0.1,0-0.1
			c0.3-0.4,0.7-0.8,1.1-1.2l-2.4,2.4l-0.8,32.2C51.3,352.6,54.1,352.1,57.1,352.2z"/>
		<linearGradient id="SVGID_75_" gradientUnits="userSpaceOnUse" x1="82.6508" y1="291.9949" x2="82.6508" y2="328.9966">
			<stop  offset="0" style="stop-color:#686868"/>
			<stop  offset="0.867" style="stop-color:#000000"/>
		</linearGradient>
		<path class="st75" d="M68.6,328.1c2.2,1.2,4,2.1,12.3-4.5c0,0,0.1-0.1,0.3-0.3c4.7-4.7,12.2-18,18.6-31.3l-33,33
			c-0.4,0.4-0.7,0.7-1.1,1.1C66.6,327,67.6,327.6,68.6,328.1z"/>
	</g>
	<g>
		<path class="st73" d="M81.1,323.3c-0.2,0.2-0.3,0.3-0.3,0.3c-8.3,6.7-10.1,5.7-12.3,4.5c-0.9-0.5-1.9-1.2-3-2
			c0.4-0.4,0.7-0.7,1.1-1.1l33-33C93.3,305.3,85.8,318.7,81.1,323.3z M56,314.4c-1.9,1.9-3.6,3.8-5.3,5.7c0,0,0,0.1,0,0.1
			c-1.6,6.2-1.4,11.4,1.8,14.5c3.1,3.1,6.1,5.3,8.9,6.8c10.9,5.9,19.8,1.2,28.9-6.1c0.5-0.4,1-0.9,1.6-1.4
			c10.4-10.4,27.2-45.2,32.4-62.2c0.7-2.3,1.2-4.2,1.4-5.7c1.1-6.9,5.2-19.6,9-30.4L56,314.4z"/>
	</g>
</g>
<path class="st73" d="M158.7,390.7c-3.8,17.2-11.7,31.3-19.4,45c-1.2,2.2-2.4,4.3-3.6,6.4c-6.7,12.1-12.9,21.1-18.6,26.8
	c-1.2,1.2-2.4,2.3-3.6,3.2c-1.7,1.3-2.8,1.8-3.3,1.9c-0.3-0.2-0.7-0.5-1.2-1c-1-0.9-1.7-1.8-2.3-2.6c-1-1.4-2.2-3.2,0.7-9.1
	c2.8-5.9,8.3-12.5,12.2-17c22.6-26,35.3-53.6,38.9-84.3c0.9-7.7-0.2-15.7-1.8-24.7C161.7,355.7,162.4,373.9,158.7,390.7z
	 M152.9,217.5c-6.9,13.4-13.1,28.2-16.4,42.1c-0.6,2.7-1.1,5.3-1.5,7.9c-6.2,42,8.5,72.5,6.4,90.5c-2,17.5-8.1,44.3-34.7,75
	c-6.2,7.1-11.5,14-14.8,20.8c-4.4,9.1-5.2,17.9,0.6,26.3c1.2,1.8,2.7,3.6,4.6,5.4c1.3,1.3,2.6,2.3,3.9,3.1c7.5,4.7,15.2,3.1,23-2.8
	c1.8-1.4,3.6-2.9,5.3-4.7c7.4-7.4,14.7-18.3,21.5-30.6c16.8-30.6,39.8-63.9,19.6-130.7c-10.8-27.9-7.5-61.2,8.3-102.4
	c5.7-14.8,13-30.6,21.8-47.5L152.9,217.5z"/>
<path class="st73" d="M341.4,492c6.3,10.4,10.6,28.9,12.1,52c1.5,22.9-0.2,44.6-2.2,57.2c-3.2,19.8-6.2,64.7,2,107.1
	c-2.9-2.1-5.7-4.5-8.3-7l-8.5-8.5c-1.3-1.3-2.6-2.7-3.6-4.2c0,0,0,0-0.1-0.1c-5.4-7.1-8.4-16-8.9-26.7c-0.5-9.9,1.2-21.5,4.9-33.4
	c15.4-49.5,18.5-96.7,9.3-141.2C339.4,488.8,340.5,490.4,341.4,492z M298,425.1c-1.5-1-3.2-0.6-4.2,0.5c-1,1-1.4,2.5-0.6,4
	c32.6,60.7,34.4,126.6,14,192c-4.2,13.3-6.6,27.5-5.9,41.3c0.7,14.1,4.7,27.7,13.5,39.3c1.7,2.3,3.6,4.4,5.7,6.5
	c0,0,8.5,8.5,8.5,8.5c11.2,11.2,24.6,18.8,38.8,23c1.1,0.3,2.3,0.5,3.4,0.4c0,0,0,0,0,0c0,0,0,0,0,0l0,0c3-0.1,5.8-1.4,7.8-3.5
	c2.5-2.5,3.8-6.2,2.5-9.9c-0.9-2.7-1.8-5.6-2.6-8.4c-11.2-40.6-9-91.5-5.4-114.3c5-30.9,5.8-93.5-12.8-124.5
	C347.4,458,315.1,435.9,298,425.1z"/>
<path class="st73" d="M351.2,410.8L351.2,410.8"/>
<path class="st73" d="M446.8,662.2c5.1,6.9,9.9,13.4,12.5,18.4c0.3,0.6,0.6,1.1,0.7,1.6c-0.4,0.4-0.8,0.9-1.2,1.4
	c-2.4,2.7-5,5.4-7.5,8c-2.6,2.6-5.2,5.1-7.9,7.4c-0.1,0.1-0.2,0.2-0.3,0.3c-5.4,4.8-10.6,8.7-15.4,11.8c-0.1,0.1-0.3,0.2-0.5,0.3
	c0,0-0.1,0-0.1,0.1c-4.1,2.6-7.1,4-9.2,4.8c-0.4-0.9-0.8-2-1.2-3.3c0,0,0,0,0-0.1c-6.4-19.5-5.3-55.4-4.7-76.8
	c0.1-3.7,0.2-7.1,0.3-10.1c0.2-8.9,0.8-17.8,1.5-27C419.4,625,434.8,645.8,446.8,662.2z M375.2,443.2c-12-9.9-23.9-16-39.2-19.2
	c-0.7-0.2-1.4,0.1-1.8,0.5c-0.7,0.7-0.9,2,0,2.8c20.6,21.4,46.7,43.4,53.9,72.5c10.9,44.2,1.5,84.2,0.7,125.6
	c-0.4,21.2-3.4,67.6,5.6,94.8c2.5,7.8,6.1,14,11,17.6c3.2,2.4,7.2,3.2,11.6,2.8c0,0,0,0,0,0c0,0,0,0,0,0c6.8-0.6,14.8-4.1,23.1-9.3
	c0,0,0.1,0,0.1-0.1c0,0,0,0,0,0c0,0,0,0,0,0c0.1,0,0.1-0.1,0.2-0.1c6.3-4,12.7-9,18.9-14.5l0.1-0.1c3-2.7,6-5.5,8.9-8.4
	c3-3,5.8-6,8.5-9c1.1-1.2,2.1-2.4,3.1-3.6c6.7-7.9,5.6-16.5,0.7-26c-12.4-24.1-49-54.6-44.4-98.2c1.8-17.1,3.9-35.1-0.1-52
	c-3.9-16.2-14-29.6-25.1-41.7C399.7,465.6,387.9,453.8,375.2,443.2z"/>
<path class="st73" d="M501.2,548.1c6.3,12.6,10.8,26.3,12.1,36.7l0.2,2c1,7.7,2,15.7,2,23.2c0,9.2-1.5,15.7-4.5,19.1
	c-0.1,0.1-0.2,0.3-0.4,0.4c-0.6,0.6-2.7,2.4-4.9,1.7c-0.2-0.1-0.4-0.1-0.6-0.2c0,0,0,0-0.1,0c-2.4-0.9-5.2-2.9-8.5-6
	c-10.1-9.5-17.1-22.4-19.7-36.3c-1.6-8.2-0.5-17.4,0.7-28.1c0.9-8.1,1.9-16.5,1.9-25.7c0-6.2-0.5-12-1.4-17.5c0.5,0.4,1,0.8,1.5,1.2
	C486.8,524.3,494.7,535.1,501.2,548.1z M495.2,499.2c-30.8-24.7-48.2-27.1-62.8-33.5c-1.4-0.6-2.8-0.2-3.7,0.7
	c-1.1,1.1-1.5,2.9-0.2,4.4c11.1,13.3,26,33,26.2,64.3c0.1,19.6-5.9,38.7-2.2,58.2c3.6,18.9,13.1,36.6,27.1,49.8
	c4.8,4.5,10.3,8.6,16.5,11c0.8,0.3,1.6,0.6,2.4,0.8c10.7,3.3,22-0.1,29.8-8c0.5-0.5,0.9-1,1.4-1.5c8.5-9.6,10.8-22.6,10.8-35.7
	c0-9.7-1.4-19.5-2.4-28.1C534.7,555.1,516.7,516.4,495.2,499.2z"/>
<path class="st73" d="M591.1,542.2c-1.2,4.2-3.2,8.5-5.9,12.4c-1.4,2-2.9,3.8-4.5,5.4c-1.5,1.5-3,2.7-4.5,3.8
	c-0.4,0.3-0.8,0.5-1.3,0.8c-1.6-3.9-3.3-9.8-4.3-13.4c-1.2-4.3-2.5-8.8-4-13c-1.8-4.8-3.7-9.3-5.6-13.7c0,0,0.1,0,0.1,0
	c8.9,3.8,17.4,7.4,25.4,11.3c3.1,1.5,4.5,2.6,5,3.1C591.6,539.5,591.6,540.7,591.1,542.2z M597.9,512.4
	c-22.5-10.9-47.1-19.1-68.9-32c-11-6.5-21.6-14.2-29.9-23.9c-3.4-3.9-6.5-8.7-10.7-11.8c-2.7-1.9-6-3.1-9.3-2.5
	c-1.1,0.2-2.1,0.6-3.1,1c-3.1,1.4-5.9,3.7-9.2,4.7c-4.8,1.4-9.9,1-14.4,3.4c-1.6,0.9-2.6,1.5-3.1,2c-1.2,1.2,0.2,1.9,3.2,3.7
	c3.9,2.2,8.7,3.6,12.8,5.5c17,8,33.3,18.4,46.3,32.1c14.1,14.8,23.6,33.6,30.7,52.6c4.6,12.1,7.1,33.3,19,41.5
	c1.9,1.3,4.2,2.3,6.7,2.9c5,1.1,10.3-0.2,15-2.2c2.6-1.1,5.1-2.5,7.5-4.1c3-2,5.9-4.4,8.5-7c2.7-2.7,5.2-5.7,7.4-8.9
	c4.4-6.3,7.7-13.2,9.6-20.2c1.4-5.2,1.9-10.7,0.8-15.9c-0.5-2.2-1.2-4.4-2.3-6.4C611.2,520.2,604.7,515.7,597.9,512.4z"/>
<g>
	<path class="st73" d="M690.9,248.8L690.9,248.8"/>
	<path class="st73" d="M675.5,256.6l57,57c24.7,24.7,32.3,60.4,22.7,91.9c-0.2,0.7-0.6,1.3-1,1.7c-2.3,2.3-6.8,1-6.9-2.8
		c-0.3-7.7-3-15.2-9.7-21.5c-0.8-0.8-1.2-1.9-1.2-3c0,0.6,0,1.3-0.1,1.9c-0.4-0.3-0.8-0.7-1.2-1c-0.2-0.1-0.4-0.3-0.6-0.4
		c-1.3-0.8-6.1-3.4-14.9-4.9c-7.9-1.3-53-0.1-77.4-2.1c-4.7-0.4-6.6-6-3.4-9.2c0.1-0.1,0.2-0.2,0.3-0.3c6.4-5.6,13.9-12.4,21.2-19.7
		c11.3-11.3,22-23.6,27.2-33.9c2.7-5.3,3.4-11.2,2.7-17.2l-0.6,2.5c-0.6-0.6,0.5-3,0.4-3.9C687.9,277.1,675.3,256.7,675.5,256.6
		C675.5,256.6,675.5,256.6,675.5,256.6z"/>
</g>
<path class="st73" d="M476.4,208.6c3.8,6.1-2.7,11.5-2.7,11.5l-18.7,14.1c11.5-15.3,13.5-30.3,13.5-30.3S472.6,202.5,476.4,208.6z
	 M576,206c-7.6-7.6-8.1-2.5-11.2-1.3c0,0-4.2-7.8-5.6-8.9c-1.4-1.1-13.2,3.3-18.3,0.5c0,0-0.7-6.6-4.1-13
	c-3.4-6.5-0.4-12.2-13.4-9.5c-13,2.7-32.3,15.9-45,14.6c0,0-11.5-5-15.7-8.8c-4.2-3.8-27.7,3.7-27.7,3.7l-22.3,5.9
	c0,0,3.5-37.8-8.7-61.5c-1.5-24.1,5.4-65.3,50.7-93c0,0-39.3,15.7-53.1,61.5s-7,145.9-7,145.9s1.1,28.6,26.7,53.4l11.4,10.7
	c0,0,29,3,44.3,23.6s25.2,21.6,25.2,21.6l16.7,3.4c3.4,0.7,7,0.4,10.3-0.8c13.8-5.1,52.8-21.7,94.4-60.3c0,0-16.4-24.8-6.8-51.2
	c9.6-26.4-14.5-28.2-22.1-29C587,212.9,583.6,213.6,576,206z"/>
<path class="st73" d="M638.2,218c14.7,17.3,18,42,16.2,59c-1.8,17.1-26.5,36.4-26.5,36.4l-55.5,49.1c-6-0.6-11.8-1.3-17.4-1.9
	l6.2-4.1c0,0,72.1-53.3,85.6-74.4C660.3,261,638.2,218,638.2,218z"/>
<path class="st73" d="M651.2,231c0,0,44.1,45.9,29.6,74.6c-10.5,20.7-40.9,47.3-56.9,60.5l0,0c-14.6-0.5-28.8-1.4-42.1-2.6
	c17.3-15,65.2-57.1,75-71.6C668.8,274.1,651.2,231,651.2,231z"/>
<path class="st76" d="M595.3,395.2c0.2,0.5,0.2,1.1,0.3,1.7c0,0.3,0,0.6-0.1,0.8l0,0.2l0,0.1l0,0.2l-0.1,0.8
	c-0.4,2.2-0.8,4.4-1.2,6.6c-1.8,8.8-4.1,17.5-7.2,25.8c-1.5,4.2-3.2,8.2-5.1,12.2l-1.5,2.9c-0.5,1-1.1,1.8-1.6,2.8
	c-1,1.9-2.2,3.6-3.4,5.3c-1.2,1.7-2.6,3.2-3.9,4.5c-1.3,1.3-2.7,2.4-4,3.1c-1.4,0.7-2.7,1.2-3.8,1.3c-0.3,0-0.6,0-0.8,0
	c-0.2-0.1-0.5,0-0.8-0.1c-0.1,0-0.2,0-0.4-0.1c-0.1,0-0.2-0.1-0.3-0.1c-0.1,0-0.2-0.1-0.3-0.1c0,0,0,0,0,0h0c0,0,0.2,0.1,0.2,0.1
	l-1.5-0.8l-0.5-0.2l-0.7-0.3c-0.4-0.2-0.9-0.4-1.4-0.6c-0.9-0.4-1.9-0.9-2.8-1.3l-2.8-1.4l-2.8-1.5c-3.7-2.1-7.3-4.4-10.9-6.8
	c-7.1-4.9-13.9-10.3-20.2-16.1c-1.6-1.5-3.2-2.9-4.8-4.4l-4.6-4.5l-4.9-4.8c-1.6-1.6-3.3-3.2-5-4.7c-3.4-3.1-6.9-6.2-11-9
	c-2-1.4-4.2-2.8-7-4.1l-1.1-0.5l-0.6-0.2c-0.2-0.1-0.4-0.1-0.6-0.2c-0.5-0.1-1-0.3-1.5-0.4c-0.3-0.1-0.5-0.1-0.8-0.2
	c-0.3,0-0.7-0.1-1-0.1c-1.2-0.1-3-0.1-5.1,0.8c-0.6,0.3-1.1,0.5-1.6,0.9c-0.4,0.3-0.7,0.6-1.1,0.9c-0.1,0.1-0.3,0.3-0.4,0.4
	c-0.4,0.5-0.8,1.1-1.1,1.7c-0.1,0.2-0.2,0.3-0.2,0.5c-2.5,4.1-5.4,7.8-8.8,11.1c-4,3.9-8.6,7.2-13.6,9.5c-4.7,2.2-9.7,3.4-14.7,3.6
	c-5,0.2-10-0.8-14.5-2.8c-9.1-4.1-15.8-12.7-18.9-22.6c-3.1-10-3-21.1-0.1-31.4c2.8-10,8.2-19.5,15.7-26.8c0.2-0.2,0.5-0.4,0.7-0.7
	c2-1.8,4.1-3.5,6.3-5.1c1.1-0.8,2.3-1.5,3.4-2.1c1.2-0.6,2.3-1.3,3.5-1.8c4.8-2.1,10-3.3,15.1-3.2c5.2,0.1,10.2,1.6,14.6,4.1
	c0.6,0.3,1.1,0.7,1.6,1l1.6,1.1l1.5,1.3c0.5,0.4,1,0.8,1.4,1.3l1.3,1.4c0.5,0.5,0.9,1,1.3,1.5l1.2,1.5c0.4,0.5,0.7,1.1,1.1,1.6
	l1.1,1.7l1.1,1.8c0.7,1.2,1.4,2.5,2,3.7c1.2,2.5,2.3,4.9,3.1,7.4c1.5,5,2,10.7,2.7,16.5l0,0c0.3,2.3,2.4,4,4.8,3.8
	c1.1-0.1,2-0.6,2.7-1.2c0.9-0.9,1.4-2.1,1.3-3.5c-0.2-2.4-0.4-4.7-0.7-7.2c8,0.6,16.2,1.7,24.4,3c9.3,1.4,18.5,3,27.8,4.7
	c9.3,1.7,18.5,3.5,27.7,5.4l13.8,2.9l6.9,1.5l3.5,0.7l2.6,0.6l0.4,0.1c0.1,0,0.2,0.1,0.2,0.1C592.8,391.2,594.6,393.1,595.3,395.2z"
	/>
<path class="st73" d="M452.4,370.4c1.9,5.8,1.7,12.5-0.7,18.9c-1.5,4.1-3.9,7.8-6.8,10.7c-6,6-13.6,8.2-20,5.8
	c-4.6-1.7-8.2-5.7-10-11.1c-1.9-5.8-1.7-12.5,0.7-18.8c1.6-4.1,3.9-7.9,6.9-10.8c1.5-1.5,3.2-2.9,5-3.9c5-3,10.2-3.6,14.9-1.9
	c2.1,0.8,3.9,2,5.5,3.5C449.8,364.8,451.3,367.3,452.4,370.4z M445.4,351.1c-7.1-2.7-15.1-1.8-22.3,2.5c-2.4,1.4-4.7,3.2-6.7,5.2
	c-3.8,3.8-6.8,8.5-8.8,13.9c-3.1,8.2-3.4,17-0.8,24.6c2.7,8,8,13.8,15.2,16.5c9.9,3.7,21,0.3,29.1-7.8c3.7-3.7,6.8-8.4,8.8-13.8
	c3.1-8.2,3.4-17,0.8-24.6c-1.4-4.4-3.7-8.1-6.6-11C451.5,354.2,448.6,352.4,445.4,351.1z"/>
<g>
	<g>
		<path class="st73" d="M506.2,385.7L506.2,385.7L506.2,385.7L506.2,385.7L506.2,385.7"/>
		<path class="st73" d="M553.1,425c-2.8-1.7-5.6-3.6-8.3-5.5c-1.4-1-2.7-2-4.1-3c-1.3-1-2.7-2-4-3.1l10.2,1.5l10.2,1.5
			c-0.7,1.7-1.4,3.3-2.1,4.7C554.4,422.6,553.7,423.9,553.1,425z M571.7,401.2l-74.1-11.1c-1.6-0.2-2.9,0.3-3.8,1.2
			c-1.6,1.6-2,4.4-0.1,6.3l1.9,1.9c0,0,28.9,30.2,55.6,44.2c3.7,2,8.2,1.2,11.1-1.7c0.3-0.3,0.5-0.6,0.8-0.9
			c4.2-5.4,10-15.2,14.4-31.3C578.5,405.9,575.9,401.8,571.7,401.2z"/>
	</g>
</g>
</svg>
